# Deterministic AVBD convex-compound debug mesh
o hull-1b6714239c1984b8
v -0.197602943 -0.159030959 0.596446991
v -0.197602943 0.000354861579 0.610947728
v -0.195250139 -0.16623877 0.557899594
v -0.190358192 0.00709766056 0.53610301
v -0.189472973 -0.0131307365 0.640949249
v -0.188750848 -0.157025561 0.53610301
v -0.168787047 -0.0167055819 0.53610301
v -0.164407596 -0.0962241143 0.53610301
v -0.161798552 0.0217167474 0.650313377
v -0.159142926 -0.0610859916 0.53610301
v -0.155671969 0.00224400847 0.675882876
v -0.137758136 0.0342723057 0.674837351
v -0.133471847 0.0125616547 0.693565607
v -0.111714333 0.0264250804 0.708634555
v -0.0545018613 0.0368880481 0.744772792
v -0.0342585184 0.0577849112 0.758705318
v -0.0108237639 0.0782458186 0.76827395
v 0.00131291908 0.109896287 0.766637564
v 0.00289698201 0.0332550704 0.639449239
v 0.0216960348 0.130676895 0.747000158
v 0.023233505 0.063568607 0.651245236
v 0.0367911831 0.0923998803 0.673110008
v 0.0369775444 0.128322721 0.701520562
v 0.0403786078 0.106931783 0.694702029
f 1 2 3
f 1 3 19
f 1 5 2
f 1 11 5
f 1 13 11
f 1 15 13
f 1 16 15
f 1 17 16
f 1 19 17
f 2 4 3
f 2 5 9
f 2 9 4
f 3 4 6
f 3 6 19
f 4 7 10
f 4 8 6
f 4 9 20
f 4 10 8
f 4 20 23
f 4 21 7
f 4 22 21
f 4 23 22
f 5 11 12
f 5 12 9
f 6 8 19
f 7 21 10
f 8 10 19
f 9 12 20
f 10 21 19
f 11 13 14
f 11 14 12
f 12 14 18
f 12 18 20
f 13 15 14
f 14 15 16
f 14 16 18
f 16 17 18
f 17 19 21
f 17 20 18
f 17 21 24
f 17 24 20
f 20 24 23
f 21 22 24
f 22 23 24
o hull-1defbe9231a22df0
v -0.389859587 -0.0923992693 0.450346082
v -0.38611117 -0.0728451163 0.435980022
v -0.382838994 -0.0638080686 0.463597357
v -0.378199548 -0.0498433001 0.424979329
v -0.377999872 -0.0572958179 0.485703886
v -0.370933175 -0.0914067626 0.53416574
v -0.365295172 -0.0771459863 0.321177602
v -0.365264446 -0.0317169651 0.501963019
v -0.361654311 -0.0150010344 0.437809944
v -0.358720094 -0.0344158895 0.321177602
v -0.346430212 -0.0941405147 0.374792725
v -0.346076876 -0.0199113395 0.532630265
v -0.345677465 0.00610282598 0.470769882
v -0.341437429 0.0047098319 0.321177602
v -0.319807231 0.0340845957 0.321177602
v -0.312878817 0.0160279088 0.535827398
v -0.29877615 0.0553277582 0.321177602
v -0.287853509 0.0283907335 0.536058724
v -0.272445083 0.0711034089 0.321177602
v -0.255592585 0.0357736014 0.536058724
v -0.238663256 0.0809066147 0.321282774
v -0.233424693 0.0837448388 0.346355051
v -0.232917726 0.0280773081 0.535385668
v -0.232917726 0.035320878 0.432509422
f 25 26 31
f 25 27 26
f 25 29 27
f 25 30 29
f 25 31 35
f 25 35 30
f 26 27 28
f 26 28 34
f 26 34 31
f 27 29 32
f 27 32 33
f 27 33 28
f 28 33 38
f 28 38 34
f 29 30 32
f 30 35 47
f 30 36 32
f 30 40 36
f 30 42 40
f 30 44 42
f 30 47 44
f 31 34 38
f 31 38 39
f 31 39 41
f 31 41 43
f 31 43 45
f 31 45 35
f 32 36 37
f 32 37 33
f 33 37 39
f 33 39 38
f 35 45 48
f 35 48 47
f 36 40 37
f 37 40 43
f 37 41 39
f 37 43 41
f 40 42 43
f 42 44 46
f 42 46 43
f 43 46 45
f 44 47 46
f 45 46 48
f 46 47 48
o hull-32f0abe389ea5934
v -0.261332303 -0.0740879625 0.140548632
v -0.258599371 -0.0650693402 0.00621389458
v -0.253106982 -0.171421826 0.0155548099
v -0.252257913 -0.104780704 0.140548632
v -0.24554497 -0.195177168 0.0173564795
v -0.235939875 -0.170307621 0.00443994906
v -0.232490554 -0.208736643 0.00990036502
v -0.226387858 -0.223746672 0.042191714
v -0.221717998 -0.0650693402 0.000892058481
v -0.212855861 -0.229801118 0.0117990384
v -0.206806228 -0.23642318 0.0458781868
v -0.199615702 -0.0650693402 0.124569274
v -0.192159817 -0.0650693402 -0.000105791587
v -0.187277675 -0.0997773707 -0.00103434036
v -0.140685067 -0.206298038 0.140548632
v -0.0802951083 -0.0715652704 0.00119694229
v -0.0775356442 -0.0935757533 0.00140482292
v -0.0493306704 -0.196501568 0.140548632
v -0.0454833284 -0.279834509 0.0349157564
v -0.03967252 -0.273401648 0.0139471684
v -0.00255232584 -0.260788172 0.0102884239
v 0.00678741746 -0.273212433 0.140548632
v 0.00973261707 -0.232386857 0.00617231848
v 0.00973261707 -0.0650693402 0.0262262076
f 49 50 51
f 49 51 52
f 49 52 66
f 49 60 50
f 49 66 60
f 50 54 51
f 50 57 54
f 50 60 72
f 50 72 57
f 51 53 52
f 51 54 55
f 51 55 53
f 52 53 56
f 52 56 63
f 52 63 66
f 53 55 56
f 54 57 62
f 54 58 55
f 54 62 71
f 54 69 58
f 54 71 69
f 55 58 56
f 56 58 59
f 56 59 63
f 57 61 62
f 57 72 61
f 58 67 59
f 58 68 67
f 58 69 68
f 59 67 70
f 59 70 63
f 60 66 72
f 61 64 62
f 61 72 64
f 62 64 65
f 62 65 71
f 63 70 66
f 64 71 65
f 64 72 71
f 66 70 72
f 67 68 69
f 67 69 70
f 69 71 70
f 70 71 72
o hull-36a7eb1f00cdc102
v -0.102334999 -0.0566873662 0.476558208
v -0.102334999 -0.0137626845 0.474845082
v -0.102334999 0.0149157951 0.466449142
v -0.102334999 0.0446281061 0.447112978
v -0.102334999 0.0829832479 0.397975385
v -0.102334999 0.104611002 0.330400646
v -0.0636395738 -0.0643583909 0.461801678
v 0.0207147561 0.146874025 0.321156591
v 0.0498424768 0.0998140201 0.393310964
v 0.0592686497 0.0255435798 0.470740408
v 0.0662038252 0.146295071 0.321156591
v 0.0964638144 -0.00650518946 0.48663336
v 0.105550304 0.0852990299 0.415937662
v 0.106795803 -0.0492024235 0.494435668
v 0.128761902 -0.0190972518 0.48799029
v 0.130262166 0.0107597932 0.475574434
v 0.13365899 0.0878422558 0.400960624
v 0.143311605 0.0629269183 0.433764249
v 0.151973501 -0.0440539457 0.486446768
v 0.169155732 -0.0142382458 0.473199815
v 0.171561807 0.0294101108 0.449419737
v 0.175779536 -0.0551159307 0.476846546
v 0.176911816 0.0532295853 0.426776081
v 0.186847508 0.102770783 0.335132897
f 73 74 78
f 73 78 79
f 73 79 86
f 73 86 74
f 74 75 78
f 74 84 75
f 74 86 84
f 75 76 78
f 75 82 76
f 75 84 82
f 76 77 78
f 76 81 77
f 76 82 85
f 76 85 81
f 77 80 78
f 77 81 80
f 78 80 83
f 78 83 96
f 78 96 79
f 79 94 86
f 79 96 94
f 80 81 85
f 80 85 83
f 82 84 88
f 82 88 90
f 82 90 85
f 83 85 89
f 83 89 96
f 84 86 87
f 84 87 88
f 85 90 89
f 86 91 87
f 86 94 91
f 87 91 92
f 87 92 88
f 88 92 93
f 88 93 90
f 89 90 95
f 89 95 96
f 90 93 95
f 91 94 92
f 92 94 93
f 93 94 95
f 94 96 95
o hull-658673d5e32e6ef3
v 0.00973261707 -0.294591635 0.271472722
v 0.00978030637 -0.262733281 0.318904817
v 0.0140247019 -0.294647157 0.226892531
v 0.0296908133 -0.285440326 0.14168486
v 0.0301915482 -0.246503368 0.0655583292
v 0.0336013697 -0.287152141 0.302218527
v 0.0697740987 -0.303483844 0.210581496
v 0.0830557197 -0.283219576 0.308822989
v 0.083818756 -0.292768776 0.144786954
v 0.0937859267 -0.277556717 0.093977578
v 0.104396917 -0.295267105 0.264417917
v 0.117130093 -0.255210519 0.0681601092
v 0.118346192 -0.287688822 0.147789001
v 0.125761956 -0.290936679 0.204777569
v 0.135276064 -0.282368332 0.281054199
v 0.138185143 -0.269562036 0.104834929
v 0.187877953 -0.21856831 0.0633568615
v 0.188307151 -0.247382417 0.115692258
v 0.193123817 -0.262030035 0.226417214
v 0.201445699 -0.241821304 0.313451111
v 0.207335398 -0.24847427 0.279353023
v 0.245630324 -0.208963588 0.134780183
v 0.249135524 -0.214237869 0.299016356
v 0.253332227 -0.216116235 0.230319843
f 97 98 101
f 97 99 103
f 97 101 99
f 97 102 98
f 97 103 107
f 97 107 102
f 98 102 104
f 98 104 116
f 98 116 119
f 98 119 101
f 99 100 103
f 99 101 100
f 100 101 106
f 100 105 103
f 100 106 105
f 101 108 106
f 101 113 108
f 101 118 113
f 101 119 118
f 102 107 104
f 103 105 109
f 103 109 110
f 103 110 107
f 104 107 111
f 104 111 116
f 105 106 109
f 106 108 112
f 106 112 109
f 107 110 111
f 108 113 112
f 109 112 114
f 109 114 115
f 109 115 110
f 110 115 111
f 111 115 117
f 111 117 116
f 112 113 114
f 113 118 114
f 114 118 115
f 115 118 120
f 115 120 117
f 116 117 119
f 117 120 119
f 118 119 120
o hull-8957bcfca2a8be55
v -0.232889518 0.0354084 0.432278067
v -0.232889518 0.0810272321 0.321387947
v -0.232838377 0.0280618388 0.535406709
v -0.23138155 0.0841061622 0.347764313
v -0.20413582 0.0981951803 0.321177602
v -0.197273284 0.0125307785 0.536058724
v -0.179203182 0.103593059 0.33022213
v -0.170807108 0.0875943154 0.385940641
v -0.170640975 -0.0138544831 0.536058724
v -0.163740098 -0.0934389904 0.524868786
v -0.15917784 -0.0610712431 0.536058724
v -0.133823484 0.0983510911 0.36109975
v -0.132008806 -0.0941405147 0.473651499
v -0.103319019 0.0420729183 0.450093687
v -0.102922857 0.104937658 0.321177602
v -0.102334999 -0.0938287154 0.47026509
v -0.102334999 -0.0759787187 0.476112455
v -0.102334999 -0.0487750061 0.478384107
v -0.102334999 -0.0135426931 0.474787325
v -0.102334999 0.00584677188 0.470033705
v -0.102334999 0.0243593249 0.462566704
v -0.102334999 0.076233454 0.409330189
v -0.102334999 0.08967942 0.386718899
v -0.102334999 0.104177669 0.339645267
f 121 122 130
f 121 123 122
f 121 130 123
f 122 123 124
f 122 124 125
f 122 125 135
f 122 133 130
f 122 135 136
f 122 136 133
f 123 126 142
f 123 127 124
f 123 128 127
f 123 130 131
f 123 131 126
f 123 142 143
f 123 143 128
f 124 127 125
f 125 127 135
f 126 129 141
f 126 131 129
f 126 134 142
f 126 141 134
f 127 128 132
f 127 132 144
f 127 144 135
f 128 143 132
f 129 131 139
f 129 139 140
f 129 140 141
f 130 133 136
f 130 136 131
f 131 136 137
f 131 137 138
f 131 138 139
f 132 143 144
f 134 141 142
f 135 144 136
f 136 138 137
f 136 139 138
f 136 140 139
f 136 141 140
f 136 142 141
f 136 143 142
f 136 144 143
o hull-8fded92502d6a70a
v -0.102334999 -0.221244857 0.327484548
v -0.102334999 -0.191577613 0.389488459
v -0.102334999 -0.152014405 0.444024682
v -0.102334999 -0.122595608 0.462107033
v -0.102334999 -0.0773805082 0.47510317
v -0.0587065928 -0.0643583909 0.462090015
v -0.0484247394 -0.223646387 0.321156591
v 0.0111929141 -0.266770512 0.321156591
v 0.0298114065 -0.198078334 0.430212021
v 0.0457151458 -0.275507122 0.321156591
v 0.0473824739 -0.181453899 0.453074366
v 0.0555267297 -0.112803146 0.489239067
v 0.070276171 -0.162883431 0.470085025
v 0.0710670799 -0.136280209 0.48381266
v 0.0791899636 -0.200231418 0.433716208
v 0.0825887471 -0.275859058 0.321156591
v 0.0832941532 -0.0662216544 0.494937629
v 0.0935546234 -0.0929904804 0.494410306
v 0.103900611 -0.168493912 0.465509146
v 0.110163778 -0.066056028 0.494359255
v 0.112301379 -0.134189218 0.485343605
v 0.112707525 -0.25987643 0.322857648
v 0.116042174 -0.204620451 0.419563323
v 0.116042174 -0.185428858 0.447750032
f 145 146 147
f 145 147 148
f 145 148 149
f 145 149 150
f 145 150 151
f 145 151 152
f 145 152 146
f 146 152 153
f 146 153 147
f 147 153 155
f 147 155 157
f 147 157 148
f 148 156 149
f 148 157 158
f 148 158 156
f 149 156 162
f 149 161 150
f 149 162 161
f 150 161 164
f 150 164 151
f 151 154 152
f 151 160 154
f 151 164 166
f 151 166 160
f 152 154 153
f 153 154 159
f 153 159 155
f 154 160 159
f 155 159 163
f 155 163 157
f 156 158 165
f 156 165 162
f 157 163 165
f 157 165 158
f 159 160 167
f 159 167 168
f 159 168 163
f 160 166 167
f 161 162 164
f 162 165 164
f 163 168 165
f 164 165 168
f 164 167 166
f 164 168 167
o hull-a8b4e15fc3912dc1
v 0.193758309 0.100600436 0.332281172
v 0.194349259 0.0546359271 0.413509816
v 0.195936114 -0.0165415071 0.459247112
v 0.199383408 -0.0598826148 0.464056432
v 0.20309335 0.0144366212 0.440720797
v 0.21644479 -0.0454460494 0.451454639
v 0.218403712 0.0918819457 0.323052853
v 0.22661157 -0.0245688036 0.439619541
v 0.229194298 0.00719477702 0.425512195
v 0.233768806 0.0447078496 0.390452981
v 0.234600544 0.0650195777 0.359380633
v 0.247875363 -0.0108548533 0.416283906
v 0.251738518 -0.0550285354 0.419169486
v 0.256072253 0.0161960293 0.390940875
v 0.259990126 0.0478025191 0.352633625
v 0.266917557 0.0492477491 0.328865856
v 0.272881925 -0.0207515173 0.385741264
v 0.281013161 -0.0510384515 0.380053699
v 0.281921506 0.0279934797 0.330956876
v 0.292274326 -0.0258412305 0.356843531
v 0.29390493 -0.0544158854 0.356955051
v 0.294594377 -0.000628300826 0.333828509
v 0.305056661 -0.0525622256 0.329507083
v 0.305549115 -0.0266109724 0.321672797
f 169 170 179
f 169 171 170
f 169 172 171
f 169 175 191
f 169 179 175
f 169 191 172
f 170 171 173
f 170 173 178
f 170 178 179
f 171 172 174
f 171 174 176
f 171 176 177
f 171 177 173
f 172 181 174
f 172 189 181
f 172 191 189
f 173 177 178
f 174 181 176
f 175 179 183
f 175 183 184
f 175 184 192
f 175 192 191
f 176 180 177
f 176 181 180
f 177 180 182
f 177 182 178
f 178 182 183
f 178 183 179
f 180 181 185
f 180 185 182
f 181 186 185
f 181 189 186
f 182 185 188
f 182 187 183
f 182 188 190
f 182 190 187
f 183 187 184
f 184 187 192
f 185 186 188
f 186 189 188
f 187 190 192
f 188 189 191
f 188 191 192
f 188 192 190
o hull-b3cc225d27fe1c50
v 0.00963992905 -0.0650482625 0.0262172986
v 0.0136831831 0.167767629 0.122629166
v 0.0146578904 0.116651155 0.0050244974
v 0.0341521502 0.161454991 0.101104103
v 0.0426357538 0.106828935 0.00141721219
v 0.0601444729 0.162070304 0.122629166
v 0.0947287306 0.143724889 0.0779296607
v 0.0959922373 0.1558716 0.122629166
v 0.0983387753 -0.0650482625 0.00369550008
v 0.108158097 0.104071431 0.00778928585
v 0.131081894 0.142471477 0.0976036116
v 0.14501667 0.0928818658 0.00985398609
v 0.14602749 0.0620023087 0.00375482487
v 0.17703779 0.105233684 0.0488340333
v 0.186099008 0.129390389 0.114026271
v 0.218264505 -0.0582798347 0.00535673508
v 0.260899186 -0.0539498515 0.0150513258
v 0.282595545 -0.0350119174 0.0267512687
v 0.313064337 -0.0211559981 0.0472083874
v 0.328334838 -0.055157695 0.0491900295
v 0.338912278 -0.00855349191 0.0766244009
v 0.358262122 -0.00679871067 0.10717953
v 0.361836076 -0.0503491461 0.0784043074
v 0.378442287 -0.0414840877 0.115556978
f 193 194 195
f 193 195 201
f 193 201 212
f 193 212 215
f 193 215 216
f 193 216 194
f 194 196 195
f 194 198 196
f 194 200 198
f 194 216 200
f 195 196 199
f 195 197 201
f 195 199 202
f 195 202 197
f 196 198 200
f 196 200 203
f 196 203 199
f 197 202 205
f 197 205 208
f 197 208 201
f 199 203 206
f 199 206 202
f 200 207 203
f 200 216 207
f 201 208 212
f 202 204 205
f 202 206 204
f 203 207 206
f 204 206 213
f 204 209 205
f 204 210 209
f 204 211 210
f 204 213 211
f 205 209 208
f 206 207 214
f 206 214 213
f 207 216 214
f 208 209 212
f 209 210 212
f 210 211 212
f 211 213 215
f 211 215 212
f 213 214 215
f 214 216 215
o hull-bc16bd6b3aa41ae5
v -0.2709288 -0.268115014 0.410487056
v -0.2709288 -0.195980132 0.35457927
v -0.2709288 -0.192598522 0.374918938
v -0.270582259 -0.274451077 0.423654199
v -0.270532757 -0.251313806 0.522134423
v -0.26723215 -0.24189873 0.535427749
v -0.266473025 -0.216358706 0.321177602
v -0.265614867 -0.275963902 0.439576775
v -0.261423111 -0.271407664 0.460000575
v -0.253914297 -0.233177736 0.536058724
v -0.220182344 -0.226966262 0.321177602
v -0.184338003 -0.151289582 0.536058724
v -0.166663378 -0.0947812349 0.531641662
v -0.161927029 -0.0941405147 0.51805383
v -0.161712497 -0.23047246 0.321177602
v -0.138492897 -0.0941405147 0.478468239
v -0.125587612 -0.0941405147 0.46893996
v -0.104975477 -0.219882712 0.327256382
v -0.102334999 -0.191584051 0.389495343
v -0.102334999 -0.157323077 0.439071983
v -0.102334999 -0.146715522 0.44895786
v -0.102334999 -0.132922143 0.45720309
v -0.102334999 -0.118612632 0.464480788
v -0.102334999 -0.100031622 0.46982336
f 217 218 223
f 217 219 218
f 217 220 221
f 217 221 219
f 217 223 227
f 217 227 231
f 217 231 220
f 218 219 229
f 218 229 230
f 218 230 232
f 218 232 233
f 218 233 223
f 219 221 222
f 219 222 229
f 220 224 221
f 220 231 234
f 220 234 224
f 221 224 225
f 221 225 234
f 221 226 222
f 221 234 235
f 221 235 226
f 222 226 228
f 222 228 229
f 223 231 227
f 223 233 234
f 223 234 231
f 224 234 225
f 226 235 236
f 226 236 228
f 228 236 237
f 228 237 238
f 228 238 239
f 228 239 240
f 228 240 229
f 229 233 230
f 229 240 233
f 230 233 232
f 233 240 234
f 234 240 235
f 235 237 236
f 235 238 237
f 235 239 238
f 235 240 239
o hull-bc527c2e7105e9c5
v -0.365272462 -0.0820239633 0.321105629
v -0.364980847 -0.0691130608 0.282558769
v -0.36356172 -0.104423724 0.285351247
v -0.358857185 -0.126186579 0.316810846
v -0.353316724 -0.136074856 0.290865511
v -0.348456681 -0.0776303709 0.234450281
v -0.343538314 -0.101865299 0.230155513
v -0.34291622 -0.153379351 0.312781185
v -0.332671255 -0.148931786 0.238939464
v -0.32131815 -0.170942932 0.245531842
v -0.320540547 -0.174807563 0.317411751
v -0.318985343 -0.0749208033 0.189417094
v -0.313192159 -0.0984756351 0.186695293
v -0.306232572 -0.135319203 0.194860667
v -0.28978616 -0.154027045 0.188480377
v -0.271415174 -0.168438464 0.183567017
v -0.268479705 -0.0935962722 0.145780131
v -0.268149197 -0.0660256743 0.145444319
v -0.25473547 -0.112455249 0.144012719
v -0.241516113 -0.172270715 0.16880925
v -0.241360605 -0.133117005 0.147317737
v -0.236636624 -0.153821945 0.155712873
v -0.179151967 -0.149190873 0.140548632
v -0.166690782 -0.176297262 0.146787539
f 241 242 243
f 241 243 244
f 241 244 251
f 241 251 264
f 241 258 242
f 241 263 258
f 241 264 263
f 242 246 243
f 242 252 246
f 242 258 252
f 243 245 244
f 243 246 247
f 243 247 249
f 243 249 245
f 244 245 248
f 244 248 251
f 245 249 250
f 245 250 248
f 246 252 247
f 247 252 253
f 247 253 254
f 247 254 249
f 248 250 251
f 249 254 255
f 249 255 250
f 250 255 256
f 250 256 260
f 250 260 264
f 250 264 251
f 252 257 253
f 252 258 257
f 253 257 254
f 254 257 255
f 255 257 259
f 255 259 256
f 256 259 261
f 256 261 262
f 256 262 260
f 257 258 259
f 258 263 259
f 259 263 261
f 260 262 264
f 261 263 264
f 261 264 262
o hull-be0d535e81abc91b
v -0.362924308 -0.0625736639 0.274732023
v -0.362186313 -0.0540190674 0.320778489
v -0.357362598 -0.0286666472 0.273678601
v -0.355742663 -0.0241599157 0.317945927
v -0.345951229 -0.0551006794 0.230909467
v -0.340659499 0.00968154334 0.310314447
v -0.336897701 0.0111073097 0.25534898
v -0.329770118 -0.0290107988 0.209372744
v -0.320680588 -0.0527080148 0.192611545
v -0.311609089 0.0434902273 0.252727091
v -0.311177105 0.0462598205 0.3121638
v -0.310511142 0.01936692 0.211105049
v -0.289704263 0.0673513263 0.256893992
v -0.285168529 0.0679904595 0.302917033
v -0.272479236 -0.0650318787 0.146050096
v -0.26497364 0.0678265765 0.218010843
v -0.254930198 0.0840508118 0.256308764
v -0.207232773 -0.0289780218 0.0816271752
v -0.204460934 0.0876234248 0.211620048
v -0.195065454 0.102356344 0.304696172
v -0.186011955 0.101684421 0.247530207
v -0.184860006 -0.0636388883 0.0967731103
v -0.183312088 0.0219890177 0.0932850987
v -0.179064333 0.0393276438 0.154781818
f 265 266 267
f 265 267 269
f 265 269 279
f 265 279 286
f 265 286 266
f 266 268 267
f 266 275 268
f 266 284 275
f 266 286 284
f 267 268 270
f 267 270 271
f 267 271 272
f 267 272 269
f 268 275 270
f 269 272 273
f 269 273 279
f 270 274 271
f 270 275 274
f 271 274 276
f 271 276 272
f 272 276 282
f 272 282 273
f 273 282 279
f 274 275 277
f 274 277 276
f 275 278 277
f 275 284 278
f 276 277 280
f 276 280 287
f 276 287 282
f 277 278 281
f 277 281 280
f 278 284 281
f 279 282 286
f 280 281 283
f 280 283 287
f 281 284 285
f 281 285 283
f 282 287 286
f 283 285 287
f 284 286 288
f 284 288 285
f 285 288 287
f 286 287 288
o hull-c04fcece829fcd8e
v -0.320511401 -0.177121326 0.314103395
v -0.316502929 -0.181681797 0.260647535
v -0.293842316 -0.206781983 0.285413295
v -0.281978607 -0.203824192 0.239505604
v -0.281138122 -0.212084845 0.312477082
v -0.273218215 -0.191285849 0.207350776
v -0.260449409 -0.177793026 0.182920873
v -0.25766933 -0.216621742 0.236588866
v -0.249911055 -0.229537159 0.268496215
v -0.236851305 -0.208596736 0.204540104
v -0.234588474 -0.176320001 0.168213457
v -0.229965821 -0.234144762 0.298070163
v -0.22382386 -0.226591125 0.321121246
v -0.162210196 -0.183626175 0.143677488
v -0.140810281 -0.206228137 0.140548632
v -0.0501030982 -0.196235195 0.141397133
v -0.0482605137 -0.223727569 0.321121246
v -0.013639194 -0.233661592 0.321121246
v -0.00116130081 -0.296706736 0.253099352
v 0.00798700005 -0.284038752 0.303143531
v 0.0082456097 -0.272561014 0.141167328
v 0.00966796745 -0.293902099 0.277458549
v 0.00973261707 -0.293489665 0.223790571
v 0.00973261707 -0.261295408 0.320113629
f 289 290 291
f 289 291 293
f 289 293 301
f 289 295 290
f 289 299 295
f 289 301 305
f 289 304 299
f 289 305 304
f 290 292 291
f 290 294 292
f 290 295 294
f 291 292 297
f 291 297 293
f 292 294 296
f 292 296 297
f 293 297 300
f 293 300 301
f 294 295 298
f 294 298 296
f 295 299 303
f 295 303 298
f 296 298 309
f 296 309 297
f 297 307 300
f 297 309 311
f 297 311 307
f 298 303 309
f 299 302 303
f 299 304 302
f 300 307 310
f 300 308 301
f 300 310 308
f 301 306 305
f 301 308 312
f 301 312 306
f 302 304 303
f 303 304 309
f 304 305 306
f 304 306 312
f 304 312 309
f 307 311 310
f 308 310 312
f 309 312 311
f 310 311 312
o hull-c81fa880ec0e3b2c
v 0.198751345 -0.208944455 0.0659330487
v 0.236760736 -0.163016543 0.062464226
v 0.239751711 -0.208944455 0.121535309
v 0.251139641 -0.204240412 0.314472139
v 0.251641244 -0.208944455 0.148045138
v 0.260335445 -0.208944455 0.231170028
v 0.260502666 -0.208944455 0.283632636
v 0.286603928 -0.153932363 0.320852727
v 0.300555587 -0.12066596 0.321105927
v 0.305664361 -0.0813575163 0.321131259
v 0.309714228 -0.160101146 0.0756558478
v 0.314674407 -0.0650764182 0.213091686
v 0.322978526 -0.166945979 0.105204061
v 0.331189722 -0.136637211 0.0705159307
v 0.344825536 -0.067104511 0.0635023266
v 0.353092492 -0.147735402 0.114622995
v 0.354820192 -0.10269478 0.0731491968
v 0.367229879 -0.0739211664 0.0820617527
v 0.370313764 -0.134116173 0.150399879
v 0.37142837 -0.112285987 0.100393295
v 0.380234063 -0.111708537 0.122573413
v 0.386197448 -0.101666652 0.160755664
v 0.387293488 -0.0731324628 0.126396716
v 0.388519585 -0.0717381462 0.170858279
f 313 314 326
f 313 315 317
f 313 316 322
f 313 317 318
f 313 318 319
f 313 319 316
f 313 322 324
f 313 323 325
f 313 324 314
f 313 325 315
f 313 326 323
f 314 324 327
f 314 327 326
f 315 325 317
f 316 319 320
f 316 320 322
f 317 325 318
f 318 325 328
f 318 328 319
f 319 328 331
f 319 331 320
f 320 321 322
f 320 331 334
f 320 334 321
f 321 334 336
f 321 336 322
f 322 336 324
f 323 326 328
f 323 328 325
f 324 336 327
f 326 327 329
f 326 329 332
f 326 332 328
f 327 330 329
f 327 335 330
f 327 336 335
f 328 332 333
f 328 333 331
f 329 330 332
f 330 335 332
f 331 333 334
f 332 335 333
f 333 335 334
f 334 335 336
o hull-cdee142c8404f7d3
v -0.269973755 -0.0336453766 0.0109055694
v -0.260122806 -0.020720847 0.0514584109
v -0.257413775 0.0189611763 0.0114054112
v -0.255115211 -0.0550761409 0.0483786464
v -0.252543032 -0.061352592 0.00567319617
v -0.247125 0.0150383953 0.0445813425
v -0.232923195 -0.00013656955 -0.000478259783
v -0.221731424 -0.0650276169 0.000884262961
v -0.221375689 0.0365104564 0.000344098225
v -0.208897814 -0.0242100563 0.0816271529
v -0.200661317 0.0115698315 -0.000728180516
v -0.196556762 0.0120653398 0.0816271529
v -0.192424819 -0.0596802458 0.0816271529
v -0.189715803 -0.0533418581 -0.000212191182
v -0.150804535 -0.0279470179 -0.000147692524
v -0.123687029 0.12791124 0.0161137432
v -0.0964600742 0.133279264 0.0500475131
v -0.0902758688 0.145852789 0.00710021751
v -0.0890992209 -0.0599486455 0.000964886276
v -0.0596010834 0.131689504 0.00155342498
v -0.0396528915 0.129686818 0.0816271529
v -0.00610491494 0.123967804 0.00605211407
v -0.00164461159 0.145274714 0.0816271529
v 0.00957452506 -0.0650276169 0.0262156744
f 337 338 339
f 337 339 343
f 337 340 338
f 337 341 340
f 337 343 341
f 338 340 346
f 338 342 339
f 338 346 348
f 338 348 342
f 339 342 352
f 339 345 343
f 339 352 354
f 339 354 345
f 340 341 349
f 340 349 346
f 341 343 344
f 341 344 349
f 342 348 353
f 342 353 352
f 343 345 347
f 343 347 350
f 343 350 344
f 344 350 355
f 344 355 360
f 344 360 349
f 345 354 356
f 345 356 347
f 346 349 359
f 346 359 348
f 347 351 350
f 347 356 351
f 348 357 353
f 348 359 357
f 349 360 359
f 350 351 355
f 351 356 355
f 352 353 354
f 353 357 359
f 353 359 354
f 354 358 356
f 354 359 358
f 355 356 358
f 355 358 360
f 358 359 360
o hull-d9b9940e5489413c
v -0.17904605 0.0251326878 0.0936083347
v -0.17904605 0.03935102 0.154803693
v -0.17904605 0.101147972 0.243431449
v -0.17904605 0.102480426 0.320969015
v -0.17904605 0.104999095 0.283618718
v -0.125615284 0.100010499 0.321156561
v -0.084906131 0.0469070487 0.0881921872
v -0.083080858 0.0431209132 0.111122854
v -0.070764862 0.106299073 0.321156561
v -0.0399380103 0.129487142 0.0816271752
v -0.03724619 0.183711812 0.246432588
v -0.029797595 0.184004292 0.197781101
v -0.028820429 0.175408304 0.284486234
v -0.0180347152 0.114943817 0.321156561
v -0.0161541328 0.181436867 0.169574976
v -0.0112867327 0.166666046 0.129950389
v -0.00356157939 0.147052884 0.0842766315
v -0.00197598501 0.180624381 0.284603477
v -4.00912577e-05 0.166162312 0.30450955
v 0.00556479068 0.181583121 0.157757938
v 0.00643133512 0.191121593 0.249293059
v 0.00654196274 0.187481686 0.191989824
v 0.00777724572 0.1357757 0.320453167
v 0.00930752885 0.160604969 0.103549644
f 361 362 363
f 361 363 370
f 361 367 368
f 361 368 362
f 361 370 367
f 362 364 365
f 362 365 363
f 362 366 364
f 362 368 374
f 362 369 366
f 362 374 369
f 363 365 372
f 363 372 370
f 364 366 374
f 364 371 365
f 364 373 371
f 364 374 383
f 364 379 373
f 364 383 379
f 365 371 372
f 366 369 374
f 367 370 377
f 367 377 368
f 368 377 384
f 368 383 374
f 368 384 383
f 370 372 375
f 370 375 376
f 370 376 377
f 371 373 378
f 371 378 381
f 371 381 372
f 372 381 382
f 372 382 375
f 373 379 378
f 375 380 376
f 375 382 380
f 376 380 384
f 376 384 377
f 378 379 381
f 379 383 381
f 380 382 384
f 381 383 384
f 381 384 382
o hull-de31b25f55bdddb7
v -0.390439004 -0.104722634 0.448900998
v -0.381958544 -0.207022443 0.452628642
v -0.373396218 -0.100596502 0.535117984
v -0.373372823 -0.227528647 0.438220739
v -0.36337173 -0.191318214 0.53465724
v -0.3623541 -0.106323294 0.321177602
v -0.354914695 -0.218529388 0.524793684
v -0.352142453 -0.138781071 0.321177602
v -0.351768136 -0.245687202 0.421844333
v -0.346445918 -0.0941405147 0.374788344
v -0.345790893 -0.245224819 0.503998637
v -0.338187724 -0.158824861 0.321177602
v -0.333684295 -0.261498153 0.49237597
v -0.332268953 -0.238519832 0.53178823
v -0.324326545 -0.271066517 0.472816437
v -0.321835041 -0.176805586 0.321177602
v -0.320700437 -0.25621599 0.518678725
v -0.302663386 -0.274321198 0.488711178
v -0.296826482 -0.259275049 0.520710111
v -0.285749257 -0.272738308 0.423791915
v -0.280415326 -0.210348248 0.321177602
v -0.273736238 -0.244815737 0.532039523
v -0.273022711 -0.275832921 0.454136431
v -0.270940632 -0.194270536 0.36475727
f 385 386 387
f 385 387 394
f 385 390 386
f 385 394 390
f 386 388 395
f 386 389 387
f 386 390 388
f 386 391 389
f 386 395 391
f 387 389 406
f 387 406 408
f 387 408 394
f 388 390 392
f 388 392 393
f 388 393 399
f 388 397 395
f 388 399 397
f 389 391 398
f 389 398 406
f 390 394 408
f 390 405 392
f 390 408 405
f 391 395 398
f 392 396 393
f 392 405 396
f 393 396 400
f 393 400 405
f 393 404 399
f 393 405 404
f 395 397 401
f 395 401 398
f 396 405 400
f 397 399 402
f 397 402 401
f 398 401 403
f 398 403 406
f 399 404 407
f 399 407 402
f 401 402 403
f 402 407 403
f 403 407 406
f 404 405 407
f 405 408 407
f 406 407 408
o hull-ea8137c26acd4df2
v -0.375156283 -0.0937014818 0.540593147
v -0.371697336 -0.118518971 0.577396691
v -0.355497688 -0.197004318 0.544578254
v -0.345937759 -0.0219892655 0.536100149
v -0.342409313 -0.176478162 0.579232931
v -0.336986244 -0.146748871 0.597185373
v -0.322489977 -0.23288627 0.545105636
v -0.316684514 -0.209051132 0.572415292
v -0.311365724 0.223807305 0.704411805
v -0.300728172 0.0219583791 0.536100149
v -0.28986463 -0.171566367 0.601912796
v -0.27967903 0.259379059 0.735647917
v -0.278236359 -0.23024939 0.557510257
v -0.269771487 0.210623041 0.58878541
v -0.261115432 -0.198555395 0.589918435
v -0.254249722 0.242161915 0.603768587
v -0.244272649 0.275717229 0.634223342
v -0.244168356 0.0332296565 0.536100149
v -0.232818142 0.294847399 0.718144774
v -0.226786733 0.295312703 0.677395225
v -0.221207231 -0.168722704 0.602362096
v -0.205233499 -0.178236067 0.559756756
v -0.203686565 0.0174085069 0.536100149
v -0.197602987 -0.010356064 0.625295937
f 409 410 417
f 409 411 410
f 409 412 411
f 409 417 412
f 410 411 413
f 410 413 414
f 410 414 417
f 411 412 415
f 411 415 413
f 412 417 422
f 412 418 431
f 412 422 418
f 412 431 415
f 413 415 416
f 413 416 414
f 414 416 419
f 414 419 420
f 414 420 417
f 415 421 416
f 415 430 421
f 415 431 430
f 416 421 423
f 416 423 419
f 417 420 425
f 417 425 422
f 418 422 426
f 418 426 431
f 419 423 429
f 419 429 420
f 420 427 428
f 420 428 425
f 420 429 427
f 421 429 423
f 421 430 429
f 422 424 431
f 422 425 424
f 422 431 426
f 424 425 431
f 425 428 431
f 427 429 432
f 427 432 428
f 428 432 431
f 429 430 432
f 430 431 432
o hull-f94f1cf6e74f2503
v 0.0096029928 0.12766467 0.32113716
v 0.0121649355 0.17320554 0.136940047
v 0.0127505166 0.185884684 0.184927285
v 0.0166666303 0.187915325 0.261240572
v 0.0215709172 0.166147828 0.305497587
v 0.0634769797 0.181501463 0.240530282
v 0.0640259609 0.164042875 0.302214265
v 0.0773114562 0.164042875 0.137348056
v 0.110982694 0.150397956 0.303263366
v 0.123353213 0.163894311 0.219586879
v 0.151168585 0.146212861 0.279094905
v 0.172396109 0.14234969 0.181371957
v 0.186596587 0.129596248 0.122660458
v 0.204969391 0.0990623161 0.32078743
v 0.205664769 0.119987845 0.252012223
v 0.218657464 0.115381755 0.205210134
v 0.220377624 0.104906619 0.284476459
v 0.259868145 0.0787311345 0.279891461
v 0.268725127 0.04861819 0.32113716
v 0.292221814 0.0252410378 0.307148963
v 0.306568682 -0.0411263108 0.32113716
v 0.315681875 -0.0650482625 0.209503725
v 0.365639746 -0.00672920048 0.128741428
v 0.383500129 -0.0449647121 0.157611474
f 433 434 454
f 433 435 434
f 433 436 435
f 433 437 436
f 433 446 437
f 433 451 446
f 433 453 451
f 433 454 453
f 434 435 440
f 434 440 445
f 434 445 455
f 434 455 454
f 435 436 438
f 435 438 440
f 436 437 439
f 436 439 438
f 437 446 439
f 438 439 443
f 438 442 440
f 438 443 442
f 439 441 443
f 439 446 441
f 440 442 445
f 441 446 443
f 442 443 444
f 442 444 445
f 443 446 449
f 443 447 444
f 443 449 447
f 444 447 448
f 444 448 445
f 445 448 455
f 446 450 449
f 446 451 450
f 447 449 450
f 447 450 448
f 448 450 455
f 450 451 452
f 450 452 455
f 451 453 452
f 452 453 456
f 452 456 455
f 453 454 456
f 454 455 456
o hull-ff348342f4032e91
v 0.116060108 -0.258559138 0.32274887
v 0.116060108 -0.204387486 0.419944435
v 0.124708913 -0.181891531 0.451181114
v 0.133860156 -0.150895819 0.47377044
v 0.137915418 -0.0655962899 0.491280913
v 0.139871269 -0.106225014 0.487380475
v 0.174915135 -0.06956283 0.477969617
v 0.183097407 -0.2401997 0.335097492
v 0.187529474 -0.174128428 0.435380191
v 0.202279121 -0.0834457278 0.462334692
v 0.203158364 -0.13161087 0.45363754
v 0.228584453 -0.109322689 0.440077305
v 0.234380245 -0.185688064 0.378317654
v 0.235456869 -0.150518075 0.416857272
v 0.247927651 -0.0813302398 0.423546106
v 0.248663366 -0.199438736 0.328757197
v 0.255643427 -0.12090122 0.409438133
v 0.26190573 -0.144927129 0.3863011
v 0.27563259 -0.068769522 0.387994051
v 0.278647125 -0.103656203 0.377919286
v 0.28056708 -0.139487296 0.356425405
v 0.283563644 -0.159357786 0.321719825
v 0.296985477 -0.0720749721 0.347047776
v 0.299354047 -0.123564467 0.322001994
f 457 458 461
f 457 461 479
f 457 464 458
f 457 472 464
f 457 478 472
f 457 479 480
f 457 480 478
f 458 459 461
f 458 464 459
f 459 460 461
f 459 464 465
f 459 465 460
f 460 462 461
f 460 465 467
f 460 467 462
f 461 462 463
f 461 463 475
f 461 475 479
f 462 467 463
f 463 466 471
f 463 467 466
f 463 471 475
f 464 469 465
f 464 472 469
f 465 469 470
f 465 470 467
f 466 467 468
f 466 468 471
f 467 470 468
f 468 470 473
f 468 473 471
f 469 472 478
f 469 474 470
f 469 478 474
f 470 474 473
f 471 473 475
f 473 474 477
f 473 476 475
f 473 477 476
f 474 478 477
f 475 476 479
f 476 477 480
f 476 480 479
f 477 478 480
o hull-ff398293ddb67e82
v 0.00976487808 -0.263850778 0.0502187833
v 0.00976487808 -0.237621412 0.00613930356
v 0.00976487808 -0.0650680885 0.0262155104
v 0.011571629 -0.259745121 0.0117949778
v 0.041802492 -0.236473411 0.00581446663
v 0.0705814958 -0.231102988 0.0056810379
v 0.100360669 -0.0667803884 0.00319834985
v 0.116653726 -0.250035614 0.0624582395
v 0.142561272 -0.222755522 0.0102287978
v 0.162822738 -0.20339486 0.00868579466
v 0.168081671 -0.22833997 0.0291564651
v 0.181341961 -0.224681869 0.0542908534
v 0.188020498 -0.218941763 0.0339246318
v 0.219283774 -0.0684732348 0.00550703099
v 0.244868696 -0.0716448799 0.00934129115
v 0.269001782 -0.068551071 0.0174332522
v 0.280648887 -0.0958895236 0.0266389512
v 0.295715928 -0.158038303 0.0624582395
v 0.297813028 -0.114180021 0.0388320088
v 0.313299507 -0.0751473233 0.0395977087
v 0.320752382 -0.0944107175 0.0456478223
v 0.321591228 -0.124220341 0.055683028
v 0.336851865 -0.0684148595 0.0555148199
v 0.339303881 -0.0951890349 0.0577944778
f 481 482 484
f 481 483 482
f 481 484 488
f 481 488 483
f 482 483 487
f 482 485 484
f 482 487 485
f 483 488 503
f 483 503 487
f 484 485 486
f 484 486 489
f 484 489 491
f 484 491 488
f 485 487 486
f 486 487 494
f 486 490 489
f 486 494 490
f 487 496 494
f 487 503 496
f 488 491 492
f 488 492 498
f 488 498 503
f 489 490 493
f 489 493 491
f 490 494 495
f 490 495 497
f 490 497 499
f 490 499 502
f 490 502 493
f 491 493 492
f 492 493 498
f 493 502 498
f 494 496 495
f 495 496 497
f 496 500 501
f 496 501 497
f 496 503 500
f 497 501 499
f 498 502 504
f 498 504 503
f 499 501 502
f 500 503 504
f 500 504 501
f 501 504 502
