# Deterministic AVBD convex-compound debug mesh
o hull-16b9dcd2f092a264
v -0.375498831 0.00343318284 0.28647235
v -0.364158273 0.0493532009 0.282766014
v -0.357715964 -0.0430441201 0.286858439
v -0.34251532 0.00919176172 0.331012905
v -0.33279863 0.0641583204 0.315827161
v -0.326223224 0.0836817697 0.268004954
v -0.324652582 -0.0742333233 0.267528802
v -0.314270377 0.024201218 0.361049771
v -0.301758468 -0.0596325397 0.311799079
v -0.287143528 -0.0275145341 0.363996834
v -0.271277368 0.0375759788 0.398589432
v -0.264355868 0.0922453254 0.267142713
v -0.258792073 -0.0618245192 0.318092167
v -0.249581188 -0.0710382462 0.267142713
v -0.246573016 0.0920781419 0.398589432
v -0.245454937 -0.0166661143 0.398589432
v -0.221495971 0.0973351747 0.291928947
v -0.197111085 0.115539707 0.388396978
v -0.196472168 -0.0276817195 0.397341132
v -0.188938409 0.108480804 0.337717801
v -0.145519465 -0.0104617095 0.398576587
v -0.122305885 0.107291937 0.398525089
v -0.110645868 0.0315759145 0.398589432
v -0.103538044 0.0498733334 0.267155588
f 1 2 6
f 1 3 4
f 1 4 2
f 1 6 7
f 1 7 3
f 2 4 8
f 2 5 6
f 2 8 5
f 3 7 9
f 3 9 10
f 3 10 4
f 4 10 8
f 5 8 15
f 5 15 6
f 6 12 7
f 6 15 18
f 6 18 12
f 7 12 14
f 7 13 9
f 7 14 13
f 8 10 11
f 8 11 15
f 9 13 19
f 9 16 10
f 9 19 16
f 10 16 11
f 11 16 15
f 12 17 24
f 12 18 20
f 12 20 17
f 12 24 14
f 13 14 19
f 14 21 19
f 14 24 21
f 15 16 23
f 15 22 18
f 15 23 22
f 16 19 21
f 16 21 23
f 17 20 24
f 18 22 20
f 20 22 24
f 21 24 23
f 22 23 24
o hull-19a302a62c8cf77a
v 0.0171998646 -0.0326833613 0.195220307
v 0.0171998646 -0.0221198257 0.157914594
v 0.0171998646 -0.0123510342 0.136207029
v 0.0171998646 0.0995098874 0.143107161
v 0.0171998646 0.109974086 0.157481775
v 0.0171998646 0.13005805 0.197792247
v 0.0180231687 -0.0336105712 0.221239418
v 0.0237292424 0.135521948 0.220706701
v 0.0335273892 -0.0205965564 0.221239418
v 0.0390459783 0.122905314 0.221239418
v 0.0506374612 0.110056877 0.221239418
v 0.0544197746 0.00615999661 0.221239418
v 0.0587726943 0.0960825384 0.221239418
v 0.0630359501 0.0244061071 0.221239418
v 0.0668997765 0.0736143216 0.221239418
v 0.0679431707 0.0451523662 0.221239418
v 0.100475945 0.0237934906 0.140085757
v 0.100475945 0.029870009 0.154676765
v 0.100475945 0.0400030613 0.172172666
v 0.100475945 0.0520733073 0.185265452
v 0.100475945 0.069607459 0.187496141
v 0.100475945 0.0867442414 0.175810009
v 0.100475945 0.098483339 0.160403311
v 0.100475945 0.106745422 0.137072667
f 25 26 41
f 25 30 26
f 25 31 30
f 25 41 31
f 26 27 41
f 26 30 27
f 27 28 48
f 27 30 28
f 27 48 41
f 28 29 48
f 28 30 29
f 29 30 48
f 30 31 32
f 30 32 48
f 31 33 34
f 31 34 32
f 31 41 33
f 32 34 47
f 32 47 48
f 33 36 34
f 33 41 42
f 33 42 36
f 34 35 47
f 34 36 38
f 34 37 35
f 34 38 40
f 34 39 37
f 34 40 39
f 35 37 46
f 35 46 47
f 36 42 43
f 36 43 44
f 36 44 38
f 37 39 45
f 37 45 46
f 38 44 40
f 39 40 45
f 40 44 45
f 41 47 42
f 41 48 47
f 42 47 43
f 43 47 44
f 44 47 45
f 45 47 46
o hull-1aca7e70d949460b
v -0.310052872 -0.167727396 0.0528793447
v -0.308782667 -0.142949849 0.0714225397
v -0.307417899 -0.142381713 0.0351736099
v -0.306958437 -0.169762507 0.0306009501
v -0.298796743 -0.15319328 0.0131610557
v -0.295296967 -0.135979578 0.0997357741
v -0.293040305 -0.211389139 0.0619980842
v -0.288891912 -0.183355406 0.0134667717
v -0.282513887 -0.222607732 0.0965056643
v -0.281351805 -0.200017929 0.0261080414
v -0.266028345 -0.141754225 0.000985035906
v -0.256515354 -0.171577156 0.00215479266
v -0.250758916 -0.200704768 0.0197541919
v -0.249056309 -0.135979578 0.132435575
v -0.246921286 -0.202197194 0.115819827
v -0.226152197 -0.140533149 0.00567732472
v -0.212747544 -0.135979578 0.136782259
v -0.204450727 -0.162978798 0.131132901
v -0.192667589 -0.175698265 0.117481388
v -0.181452006 -0.18639113 0.0227450132
v -0.181262836 -0.135979578 0.128381327
v -0.175979361 -0.161469415 0.115540676
v -0.172006607 -0.159892201 0.0835852623
v -0.172006607 -0.142983779 0.0614397898
f 49 50 51
f 49 51 52
f 49 52 55
f 49 55 57
f 49 57 50
f 50 54 51
f 50 57 54
f 51 53 52
f 51 54 59
f 51 59 53
f 52 53 56
f 52 56 55
f 53 59 56
f 54 57 62
f 54 62 65
f 54 64 59
f 54 65 69
f 54 69 64
f 55 56 58
f 55 58 61
f 55 61 57
f 56 59 60
f 56 60 61
f 56 61 58
f 57 61 68
f 57 63 62
f 57 68 63
f 59 64 60
f 60 64 68
f 60 68 61
f 62 63 66
f 62 66 65
f 63 67 66
f 63 68 67
f 64 69 72
f 64 72 68
f 65 66 69
f 66 67 70
f 66 70 69
f 67 68 70
f 68 71 70
f 68 72 71
f 69 70 71
f 69 71 72
o hull-1f9d5b9313fc0435
v -0.312208682 -0.06509763 0.0207024459
v -0.312208682 0.147822589 0.0550349876
v -0.308214694 -0.135979578 0.0452985652
v -0.306732357 -0.129790753 0.0913233012
v -0.304893196 0.100689903 0.216684908
v -0.304138333 0.13818875 0.184839606
v -0.296218932 -0.0951881632 0.214559048
v -0.295024842 0.0257227179 0.00380190834
v -0.293281764 -0.0177515429 0.00248387596
v -0.27918604 -0.135979578 0.00726705417
v -0.255578846 0.0876415223 0.219639823
v -0.25142014 0.15151149 0.15467374
v -0.24911432 -0.135979578 0.132394806
v -0.232946128 -0.108876765 0.204482496
v -0.225301251 -0.135979578 0.00643797312
v -0.196588293 -0.119516678 0.179524973
v -0.196011826 -0.13457717 0.138559774
v -0.189917892 -0.0528114289 0.212178096
v -0.176357463 0.169498757 0.00605529733
v -0.174188897 0.0274909567 0.219639823
v -0.171992883 -0.135979578 0.0565018095
v -0.171992883 -0.0625672266 0.00426958641
v -0.171992883 0.108098209 0.163262188
v -0.171992883 0.175474167 0.0494440012
f 73 74 80
f 73 75 76
f 73 76 77
f 73 77 74
f 73 80 81
f 73 81 82
f 73 82 75
f 74 77 78
f 74 78 84
f 74 84 96
f 74 91 80
f 74 96 91
f 75 82 93
f 75 85 76
f 75 93 85
f 76 79 77
f 76 85 79
f 77 79 83
f 77 83 78
f 78 83 84
f 79 85 86
f 79 86 90
f 79 90 92
f 79 92 83
f 80 91 81
f 81 87 82
f 81 91 94
f 81 94 87
f 82 87 93
f 83 92 95
f 83 95 84
f 84 95 96
f 85 88 86
f 85 89 88
f 85 93 89
f 86 88 90
f 87 94 93
f 88 89 93
f 88 92 90
f 88 93 92
f 91 96 94
f 92 93 95
f 93 94 95
f 94 96 95
o hull-20f8faa3d990c8b3
v 0.179096684 0.00778863486 0.497136235
v 0.182743207 -0.0106587205 0.447354734
v 0.197899058 0.144123837 0.480278343
v 0.198468819 0.0827462301 0.545111477
v 0.208480477 -0.00655389763 0.221389294
v 0.210987464 0.1500296 0.224526361
v 0.228959575 -0.0128003638 0.436517537
v 0.251815438 -0.0157207958 0.296425909
v 0.255413115 0.00882700831 0.470898747
v 0.255624771 0.14928326 0.275670439
v 0.267720103 0.133042455 0.457780033
v 0.268680602 0.0773109943 0.525053144
v 0.274134099 0.13167958 0.242651775
v 0.280727118 -0.00517480681 0.405495197
v 0.287255049 0.139532283 0.406762719
v 0.288134098 -0.0119404662 0.351721078
v 0.297722518 0.138315439 0.344813138
v 0.30320859 0.123843111 0.284638077
v 0.317696989 0.0744554624 0.483383715
v 0.321473718 0.0343645066 0.232163131
v 0.331843525 0.109743938 0.375455201
v 0.337899357 0.0929190442 0.323518962
v 0.345290065 0.0281018168 0.271867901
v 0.345387727 0.0713078901 0.432176292
f 97 98 103
f 97 99 102
f 97 100 99
f 97 102 98
f 97 103 105
f 97 105 108
f 97 108 100
f 98 101 104
f 98 102 101
f 98 104 103
f 99 100 108
f 99 106 102
f 99 107 111
f 99 108 107
f 99 111 106
f 101 102 116
f 101 116 119
f 101 119 104
f 102 106 109
f 102 109 116
f 103 104 112
f 103 110 105
f 103 112 110
f 104 119 112
f 105 110 115
f 105 115 108
f 106 111 113
f 106 113 114
f 106 114 109
f 107 108 115
f 107 115 111
f 109 114 116
f 110 112 120
f 110 120 115
f 111 115 120
f 111 117 113
f 111 120 117
f 112 119 120
f 113 117 114
f 114 117 118
f 114 118 119
f 114 119 116
f 117 120 118
f 118 120 119
o hull-233d9406ccabeac2
v 0.126755953 -0.053873308 0.148625627
v 0.135108337 -0.0831345767 0.136340201
v 0.147858977 -0.0530249774 0.165255874
v 0.168689802 -0.0530249774 0.170125097
v 0.190065026 -0.0530249774 0.164947912
v 0.195767015 -0.120866872 0.221239418
v 0.201626584 -0.096707873 0.221239418
v 0.204105064 -0.0530249774 0.1437231
v 0.204792753 -0.163848966 0.18295154
v 0.215680927 -0.171606898 0.141717151
v 0.218832776 -0.0866016671 0.221239418
v 0.227614969 -0.172356859 0.216611579
v 0.228116393 -0.178627133 0.172638774
v 0.236755311 -0.177373081 0.195952758
v 0.241855562 -0.0906220302 0.136207029
v 0.242715165 -0.167352945 0.147252247
v 0.254334003 -0.136960566 0.139344975
v 0.255895615 -0.163750619 0.163108423
v 0.257485867 -0.165619403 0.212150201
v 0.259649158 -0.0989946872 0.22093977
v 0.26622507 -0.158881932 0.183259502
v 0.271740764 -0.136149123 0.18731302
v 0.271970004 -0.121887326 0.210710242
v 0.273101807 -0.142210379 0.212275058
f 121 122 126
f 121 123 128
f 121 126 127
f 121 127 123
f 121 128 122
f 122 128 135
f 122 129 126
f 122 130 129
f 122 135 130
f 123 124 128
f 123 127 131
f 123 131 124
f 124 125 128
f 124 131 125
f 125 131 140
f 125 140 128
f 126 129 132
f 126 131 127
f 126 132 140
f 126 140 131
f 128 140 135
f 129 130 133
f 129 133 132
f 130 135 137
f 130 136 133
f 130 137 136
f 132 133 134
f 132 134 139
f 132 139 140
f 133 136 138
f 133 138 134
f 134 138 141
f 134 141 139
f 135 140 143
f 135 142 137
f 135 143 142
f 136 137 138
f 137 141 138
f 137 142 141
f 139 141 144
f 139 144 140
f 140 144 143
f 141 142 144
f 142 143 144
o hull-2f2534ca1044012d
v 0.0979885906 0.043201372 0.0606622994
v 0.10611707 0.0897893831 0.0594079942
v 0.107274055 0.064268969 0.0408277512
v 0.11501687 0.0315543674 0.0286154952
v 0.116233177 -0.00979324616 0.0583190806
v 0.127565578 0.0761734396 0.0235913917
v 0.130265191 0.120035239 0.0635774955
v 0.139847308 0.0318118446 0.00312280236
v 0.145928845 0.00232327031 0.00237162225
v 0.148747116 0.104223177 0.0295114312
v 0.167021379 0.0730382949 0.00260593183
v 0.183011353 0.144934684 0.0680365041
v 0.199238628 0.0662681907 -0.00228722417
v 0.236083806 0.144934684 0.050455559
v 0.247594222 0.0445644781 -0.00236303103
v 0.276162565 0.142132729 0.0593528524
v 0.30912149 0.113825522 0.0309656002
v 0.311910093 -0.00952062383 -0.00199777423
v 0.33229062 0.097377345 0.0236878954
v 0.355430126 0.0694184899 0.00664451532
v 0.37394169 0.0429893322 0.0486774966
v 0.38580811 0.0358860269 0.0175611023
v 0.387024432 -0.00217498722 0.0104694553
v 0.400997102 -0.00387129537 0.0507863723
f 145 146 147
f 145 147 148
f 145 148 149
f 145 149 156
f 145 151 146
f 145 156 151
f 146 150 147
f 146 151 150
f 147 150 152
f 147 152 148
f 148 152 153
f 148 153 149
f 149 153 162
f 149 162 168
f 149 168 156
f 150 151 154
f 150 154 155
f 150 155 152
f 151 156 154
f 152 155 157
f 152 157 153
f 153 157 162
f 154 156 158
f 154 158 155
f 155 158 157
f 156 160 158
f 156 168 160
f 157 158 161
f 157 159 162
f 157 161 164
f 157 164 159
f 158 160 161
f 159 164 162
f 160 163 161
f 160 165 163
f 160 168 165
f 161 163 164
f 162 164 167
f 162 167 168
f 163 165 166
f 163 166 164
f 164 166 167
f 165 168 166
f 166 168 167
o hull-38109988782fe04d
v 0.345917732 0.0378963463 0.354617625
v 0.345917732 0.0418423787 0.380057842
v 0.345917732 0.0539740622 0.4258219
v 0.345917732 0.0651904717 0.44944495
v 0.345917732 0.082494311 0.426144093
v 0.345917732 0.08835724 0.365365922
v 0.376523972 0.0120701082 0.351859659
v 0.389178604 0.0226734597 0.470026553
v 0.406565398 0.0202212185 0.351859659
v 0.406672239 0.0717269033 0.357001841
v 0.414640546 0.0782201588 0.386450112
v 0.41726613 0.0413070321 0.351859659
v 0.420059621 0.00785639975 0.458943158
v 0.425509185 0.0744986236 0.405046999
v 0.430210799 0.0658985078 0.430680543
v 0.430226058 0.0223021694 0.483519912
v 0.431569397 0.05146138 0.459059149
v 0.447231233 0.035409566 0.357594669
v 0.461946636 0.047100883 0.452705532
v 0.464205861 0.055890955 0.425924987
v 0.482691705 0.000145658181 0.470980227
v 0.483027577 0.0274052471 0.471830815
v 0.489927322 0.0306605082 0.383331299
v 0.501849234 0.0290544629 0.420241535
f 169 170 174
f 169 174 178
f 169 175 170
f 169 178 180
f 169 180 175
f 170 171 172
f 170 172 173
f 170 173 174
f 170 175 176
f 170 176 171
f 171 176 172
f 172 176 184
f 172 184 185
f 172 185 173
f 173 179 174
f 173 182 179
f 173 183 182
f 173 185 183
f 174 179 178
f 175 177 191
f 175 180 177
f 175 181 176
f 175 189 181
f 175 191 189
f 176 181 189
f 176 189 184
f 177 180 186
f 177 186 191
f 178 179 191
f 178 186 180
f 178 191 186
f 179 182 188
f 179 188 191
f 182 183 188
f 183 185 187
f 183 187 188
f 184 189 190
f 184 190 185
f 185 190 187
f 187 190 188
f 188 190 192
f 188 192 191
f 189 191 192
f 189 192 190
o hull-3b1c5848a0f01032
v -0.506161809 -0.0821203142 0.527234435
v -0.504353702 -0.0709849894 0.522168636
v -0.493842185 -0.0788986087 0.534014046
v -0.488433212 -0.0758814663 0.512205601
v -0.487559825 -0.0611408986 0.51340723
v -0.485000908 -0.0856999904 0.529326439
v -0.481047601 -0.0853036642 0.512843132
v -0.476358801 -0.0507726446 0.512181818
v -0.474550724 -0.0867866725 0.52700752
v -0.47093451 -0.0874003246 0.512181818
v -0.466107816 -0.0455182008 0.512181818
v -0.461081922 -0.0858406126 0.521976292
v -0.449574441 -0.0870040059 0.513519585
v -0.448884934 -0.0428590178 0.512181818
v -0.438633949 -0.0832453519 0.512181818
v -0.434558064 -0.0502356924 0.512181818
v -0.43103382 -0.0759709552 0.512181818
v -0.428811967 -0.0652191639 0.512181818
v -0.411635071 0.0104269134 0.534260392
v -0.403222829 0.00375338574 0.534260392
v -0.39468798 0.0432064533 0.533060908
v -0.383057952 0.0432064533 0.528399289
v -0.365406007 0.0432064533 0.524757683
v -0.34963882 0.0388597138 0.531684279
f 193 194 196
f 193 195 194
f 193 196 199
f 193 198 195
f 193 199 202
f 193 202 198
f 194 195 213
f 194 197 196
f 194 200 197
f 194 213 200
f 195 198 201
f 195 201 216
f 195 211 213
f 195 212 211
f 195 216 212
f 196 197 200
f 196 200 202
f 196 202 199
f 198 202 201
f 200 203 209
f 200 209 202
f 200 213 214
f 200 214 215
f 200 215 203
f 201 202 205
f 201 204 216
f 201 205 204
f 202 207 205
f 202 209 207
f 203 206 209
f 203 215 206
f 204 205 207
f 204 207 216
f 206 208 209
f 206 215 208
f 207 209 216
f 208 210 209
f 208 215 210
f 209 210 215
f 209 215 216
f 211 212 213
f 212 216 213
f 213 215 214
f 213 216 215
o hull-409f7dad57fc0645
v 0.299047709 -0.0400995649 0.136897877
v 0.304496318 -0.0972140878 0.136207029
v 0.337232709 -0.135117933 0.141617268
v 0.351405084 -0.0200059675 0.221239418
v 0.360754073 -0.075948365 0.221239418
v 0.372053266 -0.131266654 0.169800475
v 0.374211878 -0.107184775 0.207921892
v 0.376400262 -0.14239423 0.143539995
v 0.3981947 -0.108844019 0.211567566
v 0.412947685 0.0131180221 0.221239418
v 0.413811117 -0.0152565734 0.136207029
v 0.414927632 -0.121585183 0.175918207
v 0.417800814 -0.128420055 0.143856287
v 0.426658571 -0.101537257 0.203535423
v 0.437853515 -0.0102027301 0.196743503
v 0.44075647 -0.0999845713 0.139669597
v 0.44123283 -0.0799518675 0.212907642
v 0.441381723 -0.0984318852 0.163899153
v 0.441634804 -0.0384707674 0.156174988
v 0.443168163 -0.0596451536 0.142924055
v 0.444627076 -0.0130645428 0.220839903
v 0.448155284 -0.0370855257 0.186031207
v 0.450269222 -0.069402732 0.173113212
v 0.451102912 -0.0415000245 0.211883843
f 217 218 220
f 217 220 226
f 217 226 227
f 217 227 218
f 218 219 221
f 218 221 220
f 218 227 232
f 218 232 219
f 219 222 223
f 219 223 221
f 219 224 222
f 219 232 224
f 220 221 226
f 221 223 225
f 221 225 233
f 221 233 237
f 221 237 226
f 222 224 225
f 222 225 223
f 224 228 225
f 224 229 228
f 224 232 229
f 225 228 230
f 225 230 233
f 226 231 227
f 226 237 231
f 227 231 235
f 227 235 236
f 227 236 232
f 228 229 230
f 229 232 234
f 229 234 230
f 230 234 233
f 231 237 238
f 231 238 235
f 232 236 239
f 232 239 234
f 233 234 239
f 233 239 240
f 233 240 237
f 235 238 236
f 236 238 239
f 237 240 238
f 238 240 239
o hull-4ac093252c402368
v -0.227727696 0.133157864 0.624699056
v -0.227547571 0.143466473 0.624699056
v -0.226384312 0.125675887 0.624699056
v -0.225318596 0.151862755 0.625114143
v -0.224027753 0.118618891 0.624699056
v -0.222061455 0.14764531 0.629983366
v -0.219254583 0.15818572 0.62806499
v -0.216049969 0.112424701 0.624699056
v -0.204612374 0.114736252 0.624699056
v -0.200079381 0.163317502 0.648682535
v -0.196011677 0.165526032 0.6422472
v -0.194870919 0.121587209 0.624699056
v -0.193820238 0.156685472 0.655358553
v -0.192972168 0.168082267 0.64982307
v -0.186435342 0.161031723 0.660328925
v -0.182727873 0.167386875 0.654573739
v -0.181309432 0.13360858 0.624699056
v -0.180754066 0.15651162 0.624699056
v -0.178547606 0.16214563 0.659770906
v -0.174367338 0.142004848 0.624699056
v -0.174014598 0.163253114 0.654064536
v -0.172355995 0.154824644 0.62841028
v -0.17201829 0.159003466 0.639704406
v -0.151056886 0.102309249 0.640436888
f 241 242 258
f 241 243 253
f 241 246 242
f 241 253 246
f 241 258 243
f 242 244 258
f 242 246 244
f 243 245 253
f 243 258 245
f 244 246 250
f 244 247 258
f 244 250 247
f 245 248 253
f 245 258 248
f 246 253 250
f 247 250 254
f 247 251 258
f 247 254 251
f 248 249 264
f 248 255 253
f 248 258 249
f 248 264 255
f 249 252 264
f 249 258 252
f 250 253 255
f 250 255 254
f 251 254 258
f 252 257 264
f 252 258 257
f 254 255 256
f 254 256 258
f 255 259 256
f 255 264 259
f 256 259 261
f 256 261 263
f 256 263 258
f 257 258 260
f 257 260 264
f 258 262 260
f 258 263 262
f 259 264 261
f 260 262 264
f 261 264 263
f 262 263 264
o hull-4ff5d8c137bb9f39
v 0.100515485 0.0282998886 0.150466487
v 0.102211483 0.0533159003 0.187459543
v 0.105522737 0.0911738127 0.186111003
v 0.107864834 0.116446674 0.148818284
v 0.116486184 0.0634353161 0.215587214
v 0.121473238 -0.0214068145 0.147403166
v 0.137040123 0.0251664631 0.221231088
v 0.1385746 0.127781779 0.210218072
v 0.1385746 0.143928319 0.138454586
v 0.154080912 0.148705512 0.174648494
v 0.15507026 -0.0214068145 0.159764692
v 0.165710658 0.00309552276 0.221231088
v 0.194098517 0.151582107 0.216244847
v 0.195188805 -0.0214068145 0.159739718
v 0.203648642 -0.00945528597 0.221231088
v 0.22910887 0.153516948 0.144040152
v 0.237185061 -0.0214068145 0.136215359
v 0.242798045 -0.00479796482 0.221231088
v 0.246432319 0.142815366 0.221231088
v 0.26771313 0.126206502 0.13636519
v 0.272881895 0.0041057528 0.136207029
v 0.278817892 0.114648797 0.221231088
v 0.298443079 0.058058843 0.221247733
v 0.306761593 0.0273239017 0.221231088
f 265 266 268
f 265 268 273
f 265 270 266
f 265 273 270
f 266 267 268
f 266 269 267
f 266 270 271
f 266 271 269
f 267 269 272
f 267 272 268
f 268 272 274
f 268 274 273
f 269 271 277
f 269 277 272
f 270 273 281
f 270 275 279
f 270 276 271
f 270 279 276
f 270 281 275
f 271 276 287
f 271 283 277
f 271 287 283
f 272 277 274
f 273 274 280
f 273 280 284
f 273 284 281
f 274 277 280
f 275 278 279
f 275 281 278
f 276 279 287
f 277 283 280
f 278 281 279
f 279 281 282
f 279 282 287
f 280 283 284
f 281 284 285
f 281 285 288
f 281 288 282
f 282 288 287
f 283 286 284
f 283 287 286
f 284 286 287
f 284 287 288
f 284 288 285
o hull-524a10f1383805ac
v 0.136182383 0.19948189 0.0547171012
v 0.14159593 0.209162518 0.0551340096
v 0.142664924 0.199136451 0.06693919
v 0.157151282 0.212567613 0.0678882003
v 0.177928343 0.215956256 0.0680308342
v 0.182971835 0.144942969 0.0680308342
v 0.187220454 0.223103628 0.0119892042
v 0.191290885 0.212164596 0.0680308342
v 0.192332476 0.228959724 0.0206236653
v 0.21262984 0.202056259 0.0172664318
v 0.212643534 0.22601524 0.028561417
v 0.213877007 0.226722568 0.0420177765
v 0.215439394 0.144942969 0.0547335483
v 0.217042908 0.217921987 0.0565822311
v 0.21785152 0.215314716 0.0195265282
v 0.222264588 0.21935311 0.0308544394
v 0.230021715 0.144942969 0.0501201041
v 0.234475881 0.187185749 0.0680308342
v 0.243329436 0.144942969 0.0483976044
v 0.245179623 0.178936243 0.0680308342
v 0.254786968 0.170448199 0.0680308342
v 0.255554438 0.144942969 0.0485621765
v 0.266792685 0.144942969 0.0505973697
v 0.276180714 0.145197943 0.0606525876
f 289 290 295
f 289 291 290
f 289 294 291
f 289 295 294
f 290 291 292
f 290 292 297
f 290 297 295
f 291 294 292
f 292 293 297
f 292 294 293
f 293 294 309
f 293 296 302
f 293 300 297
f 293 302 300
f 293 306 296
f 293 308 306
f 293 309 308
f 294 295 301
f 294 301 311
f 294 311 312
f 294 312 309
f 295 297 303
f 295 298 301
f 295 303 298
f 296 306 302
f 297 299 303
f 297 300 299
f 298 303 311
f 298 305 301
f 298 307 305
f 298 310 307
f 298 311 310
f 299 300 304
f 299 304 303
f 300 302 309
f 300 309 304
f 301 305 311
f 302 306 308
f 302 308 309
f 303 304 312
f 303 312 311
f 304 309 312
f 305 307 311
f 307 310 311
o hull-54d11d585bb2d30b
v 0.195254341 -0.120762393 0.228449956
v 0.198251978 -0.102761433 0.221247733
v 0.198684543 -0.0653057247 0.292618573
v 0.200429991 -0.124804623 0.251568377
v 0.211380839 -0.0886135995 0.221284598
v 0.211479485 -0.0547628142 0.295334786
v 0.212488815 -0.0512879081 0.346795052
v 0.217072546 -0.0597387888 0.273887902
v 0.218651041 -0.0495149978 0.329944789
v 0.225519031 -0.0592069142 0.342530251
v 0.229063064 -0.170262069 0.224099129
v 0.2293818 -0.0765341595 0.334369361
v 0.233001724 -0.0852214321 0.22623767
v 0.233100384 -0.0669604465 0.268037617
v 0.233821332 -0.164435104 0.238651052
v 0.238708615 -0.155972406 0.248348251
v 0.248111308 -0.0849850401 0.23777844
v 0.249629095 -0.092360355 0.221247733
v 0.251010269 -0.163985968 0.226803035
v 0.261073202 -0.0975845307 0.230563924
v 0.26337266 -0.144259363 0.240580663
v 0.264586866 -0.154034019 0.224787399
v 0.271166503 -0.117547512 0.229740456
v 0.272767782 -0.134579286 0.228277892
f 313 314 323
f 313 315 314
f 313 316 315
f 313 323 316
f 314 315 317
f 314 317 330
f 314 330 323
f 315 316 319
f 315 318 320
f 315 319 318
f 315 320 317
f 316 323 327
f 316 324 319
f 316 327 324
f 317 320 325
f 317 325 330
f 318 319 321
f 318 321 320
f 319 322 321
f 319 324 322
f 320 321 326
f 320 326 325
f 321 322 332
f 321 332 326
f 322 324 336
f 322 335 332
f 322 336 335
f 323 330 334
f 323 331 327
f 323 334 331
f 324 327 328
f 324 328 333
f 324 333 336
f 325 326 330
f 326 329 330
f 326 332 329
f 327 331 328
f 328 331 333
f 329 332 330
f 330 332 335
f 330 335 336
f 330 336 334
f 331 334 333
f 333 334 336
o hull-566c8043c0b9b74f
v -0.396853119 -0.0163958725 0.23046127
v -0.396213084 0.028480906 0.230911866
v -0.387346953 0.00334761664 0.267014802
v -0.384407341 0.0547609627 0.226034343
v -0.378623009 -0.0588835552 0.229132727
v -0.37580198 0.0445165187 0.264548153
v -0.370491803 -0.0450459123 0.267116994
v -0.34673816 -0.0721478164 0.25764066
v -0.345552862 0.0841755122 0.224078685
v -0.340005606 -0.0864059478 0.220306739
v -0.329337806 0.0822642371 0.266768605
v -0.31295678 -0.0786079317 0.262522817
v -0.301885962 0.101090312 0.219661057
v -0.281143039 0.0925086811 0.267116994
v -0.271968693 -0.0777860805 0.267116994
v -0.265971035 0.0914192498 0.219665691
v -0.244327262 0.0916486084 0.267116994
v -0.243947953 -0.0941657275 0.219661057
v -0.239846781 -0.0688221976 0.267116994
v -0.21675691 -0.0510282107 0.267116994
v -0.215832368 0.0835830197 0.267112345
v -0.210142866 -0.0638337582 0.219661057
v -0.168965161 0.0426243544 0.267116994
v -0.154694006 0.0330106318 0.222336724
f 337 338 340
f 337 339 338
f 337 340 346
f 337 341 343
f 337 343 339
f 337 346 341
f 338 339 342
f 338 342 340
f 339 343 350
f 339 347 342
f 339 350 347
f 340 342 347
f 340 345 349
f 340 347 345
f 340 349 346
f 341 344 343
f 341 346 344
f 343 344 348
f 343 348 351
f 343 351 350
f 344 346 348
f 345 347 349
f 346 349 354
f 346 354 348
f 347 350 349
f 348 354 351
f 349 350 353
f 349 352 358
f 349 353 352
f 349 358 354
f 350 351 355
f 350 355 356
f 350 356 359
f 350 359 353
f 351 354 355
f 352 353 357
f 352 357 360
f 352 360 358
f 353 359 357
f 354 356 355
f 354 358 356
f 356 358 360
f 356 360 359
f 357 359 360
o hull-5936eaac73f05c48
v -0.154693976 0.0227882378 0.219726086
v -0.154693976 0.0266344287 0.223158926
v -0.154693976 0.033469025 0.226331636
v -0.154693976 0.0403866358 0.225402594
v -0.154693976 0.0457408652 0.220525056
v -0.122610115 0.0456578508 0.263549447
v -0.122089326 0.0408985354 0.262824774
v -0.121994182 0.0504448377 0.262527466
v -0.118523896 0.044758562 0.267116994
v -0.118328601 0.0505278483 0.267116994
v -0.115729637 0.0545400642 0.267116994
v -0.1141923 0.0392936505 0.267116994
v -0.110361472 0.104637392 0.219661057
v -0.107862666 -0.0263821259 0.220980301
v -0.10480801 0.11107076 0.22024636
v -0.104647771 -0.030269824 0.220241711
v -0.103551097 0.0690532029 0.266592085
v -0.103536069 -0.0246250555 0.225713819
v -0.103536069 0.0331369787 0.267116994
v -0.103536069 0.064584434 0.267116994
v -0.103536069 0.0835525095 0.252707392
v -0.103536069 0.101303101 0.235032201
v -0.103536069 0.106560484 0.228696078
v -0.103536069 0.109562717 0.224701151
f 361 362 363
f 361 363 364
f 361 364 365
f 361 365 373
f 361 373 376
f 361 374 362
f 361 376 374
f 362 367 363
f 362 374 367
f 363 366 364
f 363 367 366
f 364 366 370
f 364 368 365
f 364 370 368
f 365 368 382
f 365 382 383
f 365 383 373
f 366 367 369
f 366 369 370
f 367 372 369
f 367 374 378
f 367 378 372
f 368 370 371
f 368 371 382
f 369 372 379
f 369 379 370
f 370 379 371
f 371 377 381
f 371 379 380
f 371 380 377
f 371 381 382
f 372 378 379
f 373 375 376
f 373 383 384
f 373 384 375
f 374 376 378
f 375 384 376
f 376 384 378
f 377 380 381
f 378 380 379
f 378 381 380
f 378 382 381
f 378 383 382
f 378 384 383
o hull-624738e15bc249f5
v -0.465975434 0.00617752969 0.604947269
v -0.464179367 -0.0134094767 0.621219575
v -0.456434399 0.0214151554 0.572652161
v -0.444273531 -0.0356001928 0.635951459
v -0.440189391 0.0306021087 0.559015989
v -0.434171915 -0.0628208071 0.637242377
v -0.433348209 -0.00549478782 0.555273354
v -0.425111324 -0.0831918791 0.631774843
v -0.425088435 0.043058496 0.573574305
v -0.421347529 -0.0995982215 0.61298579
v -0.408271462 0.0431176759 0.54253757
v -0.407424867 0.00709474599 0.53427124
v -0.404358923 -0.0872453898 0.568725109
v -0.398924887 -0.00530246738 0.636168361
v -0.396545321 -0.0299489573 0.645074785
v -0.39279297 -0.107927136 0.59201622
v -0.378218263 -0.0184097867 0.636808455
v -0.371182561 -0.0840203315 0.541626334
v -0.364776105 -0.104450591 0.578716338
v -0.349103123 -0.0868311599 0.552517951
v -0.349103123 -0.0120632406 0.609818101
v -0.349103123 0.0115033016 0.602680027
v -0.349103123 0.0388570577 0.53427124
v -0.349103123 0.0432064384 0.575147271
f 385 386 398
f 385 387 397
f 385 393 387
f 385 394 386
f 385 397 394
f 385 398 393
f 386 388 398
f 386 390 388
f 386 392 390
f 386 394 392
f 387 389 391
f 387 391 397
f 387 393 389
f 388 390 399
f 388 399 398
f 389 393 395
f 389 395 396
f 389 396 391
f 390 392 399
f 391 396 402
f 391 402 397
f 392 394 400
f 392 400 403
f 392 403 399
f 393 398 408
f 393 408 395
f 394 397 400
f 395 407 396
f 395 408 407
f 396 407 402
f 397 402 400
f 398 399 401
f 398 401 406
f 398 406 408
f 399 403 401
f 400 402 403
f 401 403 405
f 401 405 406
f 402 404 403
f 402 407 404
f 403 404 405
f 404 406 405
f 404 407 406
f 406 407 408
o hull-75403c80ae60fcde
v -0.493472517 -0.0266456269 0.456515998
v -0.480370492 -0.00507581839 0.440730304
v -0.47990939 -0.0833468586 0.512173772
v -0.478971243 -0.0551370867 0.512181818
v -0.478669137 -0.0866869614 0.476508558
v -0.46854046 -0.107230581 0.47139737
v -0.459826946 0.00824434124 0.429692417
v -0.456583261 -0.0138888555 0.495217234
v -0.450668246 -0.127311423 0.465648293
v -0.44949159 -0.0874113142 0.512181818
v -0.441732138 -0.0465252586 0.512181818
v -0.431826115 -0.0723808557 0.512181818
v -0.427119523 -0.10976585 0.495766312
v -0.416831881 -0.134756237 0.446713537
v -0.411632419 -0.118196569 0.483032763
v -0.406496495 0.0108399605 0.497922212
v -0.386032492 -0.124735937 0.438824713
v -0.366951823 -0.0849967822 0.499512911
v -0.331048399 -0.0937695801 0.450960726
v -0.331048399 -0.0809323266 0.481555134
v -0.331048399 -0.0226616506 0.500966311
v -0.331048399 0.00122208265 0.499666303
v -0.331048399 0.060176868 0.48385638
v -0.331048399 0.0708008036 0.442595512
f 409 410 422
f 409 411 412
f 409 412 416
f 409 413 411
f 409 414 413
f 409 416 410
f 409 417 414
f 409 422 417
f 410 415 422
f 410 416 431
f 410 431 432
f 410 432 415
f 411 413 414
f 411 414 417
f 411 417 421
f 411 418 412
f 411 421 418
f 412 418 420
f 412 419 424
f 412 420 419
f 412 424 416
f 415 425 422
f 415 432 425
f 416 424 431
f 417 422 423
f 417 423 421
f 418 421 426
f 418 426 420
f 419 420 429
f 419 429 430
f 419 430 424
f 420 426 429
f 421 423 426
f 422 425 423
f 423 425 428
f 423 428 426
f 424 430 431
f 425 427 428
f 425 432 427
f 426 428 429
f 427 431 428
f 427 432 431
f 428 431 429
f 429 431 430
o hull-79364d9dbf97b5ee
v 0.10712681 0.0792549253 0.312306494
v 0.117839314 0.0714013726 0.221256733
v 0.120273978 0.0520120189 0.221256733
v 0.122111335 0.0893955007 0.221256733
v 0.127194911 0.103405304 0.221256733
v 0.130882606 0.0320329256 0.221256733
v 0.134388521 0.117213756 0.221256733
v 0.140471935 0.0205834266 0.221256733
v 0.14528282 0.13047561 0.221256733
v 0.15425536 0.00999695435 0.221256733
v 0.158735126 0.140112743 0.221256733
v 0.170428008 0.000144057369 0.221256733
v 0.173187286 0.147088885 0.223110527
v 0.173446983 0.00310711912 0.240204632
v 0.173446983 0.0101839453 0.264687181
v 0.173446983 0.022956755 0.288643897
v 0.173446983 0.036463134 0.301041126
v 0.173446983 0.0660793632 0.312110394
v 0.173446983 0.0815563276 0.308269143
v 0.173446983 0.0920277312 0.301691741
v 0.173446983 0.105476581 0.29039073
v 0.173446983 0.119702153 0.275480181
v 0.173446983 0.130116016 0.260721117
v 0.173446983 0.141191542 0.239750102
f 433 434 435
f 433 435 438
f 433 436 434
f 433 437 436
f 433 438 440
f 433 439 437
f 433 440 447
f 433 441 439
f 433 443 441
f 433 447 448
f 433 448 449
f 433 449 450
f 433 450 451
f 433 451 452
f 433 452 453
f 433 453 454
f 433 454 455
f 433 455 456
f 433 456 443
f 434 436 443
f 434 443 435
f 435 443 438
f 436 437 443
f 437 439 443
f 438 443 440
f 439 441 443
f 440 442 447
f 440 443 442
f 442 443 444
f 442 444 446
f 442 446 447
f 443 445 444
f 443 456 445
f 444 445 446
f 445 456 446
f 446 450 447
f 446 456 450
f 447 450 448
f 448 450 449
f 450 452 451
f 450 453 452
f 450 454 453
f 450 455 454
f 450 456 455
o hull-7cf8e6cefceef653
v -0.349091023 -0.000270600722 0.606238186
v -0.349091023 0.0431918874 0.575155616
v -0.348903984 0.0431782864 0.528752327
v -0.347376734 -0.0957792476 0.572303236
v -0.323096365 0.00428649969 0.631365955
v -0.3207587 0.0412466191 0.625014186
v -0.303584784 -0.0896577686 0.559879005
v -0.287626445 -0.0330817215 0.626484513
v -0.284821242 0.00526593532 0.512181818
v -0.28298232 0.031166587 0.640628994
v -0.27428624 0.0415730923 0.512181818
v -0.250504553 -0.0513509288 0.512181818
v -0.198078886 -0.0433385931 0.512181818
v -0.167128414 0.0431918874 0.641158283
v -0.147336334 -0.0282389503 0.644275367
v -0.123835161 -0.00437879283 0.662389696
v -0.122307889 0.0431918874 0.598886609
v -0.10666123 -0.0161320288 0.512181818
v -0.0861834288 0.0431918874 0.512181818
v -0.0853418708 0.0431918874 0.551880479
v -0.0773315281 -0.00629685447 0.527384937
v -0.0595342219 0.018284278 0.512181818
v -0.0311707444 0.0223244503 0.605973542
v -0.030672051 0.0207192637 0.547381282
f 457 458 459
f 457 459 460
f 457 460 461
f 457 461 462
f 457 462 458
f 458 462 470
f 458 470 475
f 458 475 459
f 459 465 468
f 459 467 465
f 459 468 460
f 459 475 467
f 460 463 471
f 460 464 461
f 460 468 463
f 460 471 464
f 461 464 472
f 461 466 462
f 461 472 466
f 462 466 470
f 463 468 469
f 463 469 474
f 463 474 477
f 463 477 471
f 464 471 472
f 465 467 475
f 465 469 468
f 465 474 469
f 465 475 478
f 465 478 474
f 466 472 470
f 470 472 479
f 470 473 475
f 470 479 473
f 471 477 479
f 471 479 472
f 473 476 475
f 473 479 476
f 474 478 477
f 475 476 479
f 475 479 480
f 475 480 478
f 477 478 480
f 477 480 479
o hull-80b559175dcc2d47
v -0.171974376 -0.157581627 0.0841491744
v -0.171974376 -0.116332121 0.17160885
v -0.171974376 -0.0451759212 0.204711959
v -0.171974376 0.0270683989 0.219618902
v -0.171974376 0.107259259 0.164081573
v -0.171789229 -0.0625857785 0.00425893487
v -0.166178972 0.173964068 0.0283166673
v -0.115946062 0.169051066 0.0125030708
v -0.0993930772 0.179206833 0.0741549879
v -0.0970045701 0.119261511 0.219661072
v -0.0867098719 0.155334219 0.178440332
v -0.0849508867 -0.13515982 0.00522882584
v -0.0824142471 -0.0404607505 0.219639972
v -0.0552703254 0.043653924 0.0175423473
v -0.0537520424 0.141089782 0.219639972
v -0.0384766459 -0.120684586 0.015982056
v -0.038087815 -0.122992709 0.0937849358
v -0.0203313231 0.0457971841 0.0545250662
v -0.00833318941 -0.0415818393 0.2135254
v 0.00818275195 0.0577994362 0.0985922366
v 0.0107193999 0.134989738 0.206019223
v 0.0171813536 -0.0226881877 0.159168839
v 0.0171813536 0.00586662069 0.114005223
v 0.0171813536 0.102214359 0.147129416
f 481 482 485
f 481 485 486
f 481 486 492
f 481 492 497
f 481 497 482
f 482 483 485
f 482 493 483
f 482 497 499
f 482 499 493
f 483 484 485
f 483 493 484
f 484 490 485
f 484 493 490
f 485 487 486
f 485 490 491
f 485 491 487
f 486 487 488
f 486 488 492
f 487 489 488
f 487 491 489
f 488 489 501
f 488 494 492
f 488 498 494
f 488 500 498
f 488 501 504
f 488 504 500
f 489 491 501
f 490 493 495
f 490 495 491
f 491 495 501
f 492 494 496
f 492 496 497
f 493 499 495
f 494 498 496
f 495 499 501
f 496 498 500
f 496 500 503
f 496 502 497
f 496 503 502
f 497 502 499
f 499 502 501
f 500 504 503
f 501 502 504
f 502 503 504
o hull-86acd53e2d1c6a7d
v -0.327605903 0.0668641999 0.433059007
v -0.285197496 0.0949140415 0.4333857
v -0.274762303 0.0246421378 0.398618579
v -0.272289515 0.0532811955 0.398618579
v -0.267566472 0.00481032766 0.398618579
v -0.261903763 0.0765087605 0.398618579
v -0.245509163 -0.0166340824 0.398618579
v -0.2436793 0.0950690955 0.398618579
v -0.213165045 0.112264939 0.398618579
v -0.210444957 -0.0281548258 0.398618579
v -0.200702161 -0.0164014958 0.4333857
v -0.182947516 -0.0268368386 0.398618579
v -0.178397566 0.121382296 0.398618579
v -0.172537059 -0.0188358892 0.4333857
v -0.169940621 0.130251572 0.4333857
v -0.157205731 -0.0170682427 0.41120702
v -0.142616257 -0.0087261647 0.432762921
v -0.14142932 0.120932631 0.405734688
v -0.137744859 0.125801429 0.430363685
v -0.127383843 0.00245345547 0.404346168
v -0.121943712 0.0036008805 0.43119064
v -0.103026845 0.02785182 0.42469734
v -0.0829477608 0.085998252 0.398618579
v -0.07498537 0.0900762603 0.421811402
f 505 506 512
f 505 507 509
f 505 508 507
f 505 509 511
f 505 510 508
f 505 511 515
f 505 512 510
f 505 515 506
f 506 513 512
f 506 515 519
f 506 519 513
f 507 508 517
f 507 517 509
f 508 510 517
f 509 517 511
f 510 512 517
f 511 514 515
f 511 517 514
f 512 513 517
f 513 519 517
f 514 516 518
f 514 517 516
f 514 518 515
f 515 518 519
f 516 517 527
f 516 520 518
f 516 524 520
f 516 527 524
f 517 519 522
f 517 522 527
f 518 520 521
f 518 521 519
f 519 521 525
f 519 523 522
f 519 525 523
f 520 524 525
f 520 525 521
f 522 523 528
f 522 528 527
f 523 525 528
f 524 526 525
f 524 527 526
f 525 526 528
f 526 527 528
o hull-8b3464bed1ec4713
v -0.14633061 0.102301858 0.649602234
v -0.144268349 0.102298506 0.630732656
v -0.131580994 0.102295153 0.660208642
v -0.123451523 0.102295153 0.626383901
v -0.112318322 0.102295153 0.667941213
v -0.105877511 0.102627054 0.628982067
v -0.086032033 0.102295153 0.634722948
v -0.0855388865 0.120087355 0.656225204
v -0.0809062794 0.102295153 0.677444935
v -0.0794118941 0.114568986 0.642234921
v -0.0615091175 0.104873292 0.645577431
v -0.0581317991 0.102295153 0.68271023
v -0.0508840121 0.123734973 0.657493293
v -0.0461617447 0.110348076 0.653103232
v -0.0359102376 0.132465124 0.680628896
v -0.0332801156 0.103401504 0.684060991
v -0.0320696607 0.111256629 0.663013577
v -0.0185006112 0.130741879 0.673220277
v -0.0178281367 0.112728417 0.69503957
v -0.0178281367 0.115273029 0.696783185
v -0.0124632809 0.113006681 0.678616524
v -0.00987799 0.111843333 0.689409018
v -0.00904113241 0.136545226 0.692730844
v 0.00633612694 0.127013803 0.695990622
f 529 530 531
f 529 531 543
f 529 536 530
f 529 543 536
f 530 532 531
f 530 536 538
f 530 538 532
f 531 532 533
f 531 533 551
f 531 551 543
f 532 534 535
f 532 535 540
f 532 537 533
f 532 538 534
f 532 540 537
f 533 537 548
f 533 548 551
f 534 538 535
f 535 538 542
f 535 539 544
f 535 542 539
f 535 544 540
f 536 541 538
f 536 543 541
f 537 540 548
f 538 541 546
f 538 546 542
f 539 542 545
f 539 545 549
f 539 549 544
f 540 544 547
f 540 547 548
f 541 543 546
f 542 546 545
f 543 551 546
f 544 549 550
f 544 550 547
f 545 546 549
f 546 551 552
f 546 552 549
f 547 550 552
f 547 552 548
f 548 552 551
f 549 552 550
o hull-904a230161b9c85b
v 0.1119719 -0.0343095548 0.137453437
v 0.114783369 -0.0236217231 0.142525822
v 0.116426431 -0.0491023734 0.137096852
v 0.119055331 -0.0401221253 0.145138666
v 0.123710692 -0.0527186058 0.146258458
v 0.127489746 -0.0221616179 0.151907399
v 0.128767684 -0.0444684066 0.153890356
v 0.137658492 -0.0260407906 0.156903133
v 0.143080592 -0.0518462546 0.162865341
v 0.143628299 -0.04149561 0.162175462
v 0.148466215 -0.02140682 0.159066051
v 0.159219146 -0.0530062988 0.169147506
v 0.160533607 -0.02140682 0.161192313
v 0.173130438 -0.02140682 0.162678719
v 0.174244076 -0.0530062988 0.170253947
v 0.185599476 -0.0530062988 0.167914391
v 0.188027561 -0.02140682 0.161895514
v 0.19454506 -0.0530062988 0.161958843
v 0.20215793 -0.0530062988 0.151224196
v 0.202340499 -0.02140682 0.157556325
v 0.20608303 -0.0530062988 0.136207014
v 0.237209991 -0.02140682 0.136213675
v 0.298459798 -0.0529320538 0.136207014
v 0.298459798 -0.0358717404 0.137293473
f 553 554 574
f 553 555 557
f 553 556 554
f 553 557 556
f 553 574 555
f 554 556 559
f 554 558 574
f 554 559 558
f 555 573 557
f 555 574 573
f 556 557 559
f 557 561 559
f 557 564 561
f 557 573 564
f 558 559 561
f 558 560 563
f 558 561 562
f 558 562 560
f 558 563 574
f 560 562 563
f 561 564 562
f 562 564 563
f 563 564 565
f 563 565 574
f 564 566 565
f 564 567 566
f 564 573 567
f 565 566 574
f 566 567 569
f 566 569 574
f 567 568 569
f 567 573 568
f 568 570 575
f 568 573 570
f 568 575 576
f 568 576 569
f 569 572 574
f 569 576 572
f 570 571 575
f 570 573 571
f 571 573 575
f 572 576 574
f 573 574 575
f 574 576 575
o hull-90b43f3b311e5c2f
v 0.0839147419 -0.0542754158 0.0680365339
v 0.104571894 -0.0187962092 0.124070182
v 0.10776595 -0.0125934426 0.0806404501
v 0.118389629 -0.0543058924 0.136053562
v 0.135956883 -0.084572956 0.136200354
v 0.179493159 -0.141236037 0.0680565685
v 0.197060421 -0.159112811 0.107196033
v 0.208100706 -0.168287426 0.133464709
v 0.244242057 -0.0125934426 0.136200354
v 0.281459659 -0.0125934426 0.131896749
v 0.33912611 -0.152422354 0.0680365339
v 0.385023177 -0.0125934426 0.0959065557
v 0.386550754 -0.143125847 0.0781316608
v 0.400194913 -0.0125934426 0.0735278055
v 0.404847115 -0.139666304 0.119232789
v 0.41283223 -0.113026425 0.0736012086
v 0.414359808 -0.064928323 0.0710257217
v 0.415505528 -0.0329391249 0.0860716552
v 0.419185609 -0.020274505 0.124804124
v 0.42026189 -0.123648845 0.103746466
v 0.422935158 -0.087529555 0.0840966702
v 0.428976059 -0.120097876 0.135306269
v 0.435780793 -0.0827746019 0.116070144
v 0.438558191 -0.0499167144 0.133738279
f 577 578 579
f 577 579 590
f 577 580 578
f 577 581 580
f 577 582 583
f 577 583 584
f 577 584 581
f 577 587 582
f 577 590 593
f 577 593 587
f 578 580 585
f 578 585 579
f 579 585 590
f 580 581 585
f 581 584 598
f 581 598 585
f 582 587 583
f 583 587 584
f 584 587 591
f 584 591 598
f 585 586 590
f 585 595 586
f 585 598 600
f 585 600 595
f 586 588 590
f 586 595 588
f 587 589 591
f 587 592 589
f 587 593 592
f 588 595 590
f 589 592 596
f 589 596 591
f 590 594 593
f 590 595 594
f 591 596 598
f 592 593 597
f 592 597 599
f 592 599 596
f 593 594 600
f 593 599 597
f 593 600 599
f 594 595 600
f 596 599 598
f 598 599 600
o hull-96084e99a137daaf
v -0.0609830879 0.00525470683 0.503899992
v -0.0609830879 0.00596951973 0.492016435
v -0.0609830879 0.0113455197 0.482233852
v -0.0609830879 0.0245546885 0.478643209
v -0.0609830879 0.0330579989 0.487869948
v -0.0609830879 0.0357534476 0.500998557
v -0.0588632077 0.0701092109 0.398615181
v -0.0586030073 0.00911172386 0.511603773
v -0.0582356639 0.0331175663 0.511192441
v -0.0523045957 0.0215465128 0.512181818
v -0.0121876197 0.00529938145 0.398615181
v -0.00736623537 0.125388175 0.398615181
v -0.000141811688 0.131866187 0.398615181
v 0.00130460388 -0.00525901979 0.398615181
v 0.00769484928 0.1375698 0.398615181
v 0.0138937719 0.0870115906 0.493050247
v 0.0153248813 0.141754448 0.399826884
v 0.0154014127 0.136854991 0.412733197
v 0.0157457944 -0.0103818569 0.4015944
v 0.0166182369 0.132610783 0.423749685
v 0.0171998646 -0.000121297096 0.425961882
v 0.0171998646 0.00534405606 0.433721244
v 0.0171998646 0.0159620289 0.444815546
v 0.0171998646 0.0809058771 0.498775274
f 601 602 619
f 601 603 602
f 601 604 603
f 601 605 604
f 601 606 605
f 601 608 609
f 601 609 606
f 601 619 608
f 602 603 611
f 602 611 614
f 602 614 619
f 603 604 607
f 603 607 611
f 604 605 607
f 605 606 607
f 606 609 613
f 606 612 607
f 606 613 612
f 607 612 613
f 607 613 611
f 608 610 609
f 608 619 621
f 608 621 622
f 608 622 623
f 608 623 624
f 608 624 610
f 609 610 624
f 609 616 620
f 609 620 613
f 609 624 616
f 611 613 614
f 613 615 614
f 613 618 615
f 613 620 618
f 614 615 617
f 614 617 619
f 615 618 617
f 616 624 620
f 617 618 620
f 617 620 621
f 617 621 619
f 620 624 621
f 621 624 622
f 622 624 623
o hull-96fadb061c27adac
v 0.0178957414 0.000818664383 0.115661837
v 0.0180873405 0.0916094482 0.136201367
v 0.0187228639 0.0101787411 0.111583091
v 0.0187363569 0.0509479456 0.110583946
v 0.0188550949 0.0730165765 0.121049821
v 0.0189360529 0.0613948107 0.114217438
v 0.019079078 -0.00551603269 0.127330944
v 0.019127652 0.0203710422 0.10936483
v 0.0192126613 0.0407948047 0.109521195
v 0.0194339454 0.0305633433 0.109128945
v 0.0195243489 -0.0084141288 0.136201367
v 0.0238542613 0.0801639184 0.136201367
v 0.0243373103 0.00740792369 0.126575619
v 0.0245127212 0.0662412941 0.12705797
v 0.0247960724 0.0165623911 0.121571921
v 0.0251387972 0.0527592562 0.122351103
v 0.0253668278 0.0409416705 0.120511822
v 0.0255017597 0.0292415768 0.120535664
v 0.0267026387 0.00727084978 0.136201367
v 0.0288750138 0.0661727563 0.136201367
v 0.0293769557 0.0177372973 0.136201367
v 0.0301609021 0.0458175279 0.1315687
v 0.0310136601 0.0559315011 0.136201367
v 0.0316788666 0.0317578316 0.136201367
f 625 626 628
f 625 627 639
f 625 628 632
f 625 631 635
f 625 632 627
f 625 635 626
f 625 637 631
f 625 639 637
f 626 629 630
f 626 630 628
f 626 635 643
f 626 636 629
f 626 643 645
f 626 644 636
f 626 645 648
f 626 647 644
f 626 648 647
f 627 632 639
f 628 630 640
f 628 633 632
f 628 640 641
f 628 641 633
f 629 636 638
f 629 638 630
f 630 638 640
f 631 637 643
f 631 643 635
f 632 633 634
f 632 634 642
f 632 642 639
f 633 641 634
f 634 641 642
f 636 644 638
f 637 639 645
f 637 645 643
f 638 644 640
f 639 642 648
f 639 648 645
f 640 644 647
f 640 646 641
f 640 647 646
f 641 646 642
f 642 646 648
f 646 647 648
o hull-a4e6ae89ad41e435
v -0.420795828 0.11618492 0.0377825163
v -0.411251843 0.0781813189 0.0277413186
v -0.398530036 -0.0125696659 0.0918991119
v -0.398062408 0.164471522 0.0336328298
v -0.39801988 0.0101108402 0.0918991119
v -0.397265285 0.120703645 0.0787584782
v -0.390325189 -0.0422310159 0.0867931321
v -0.383937687 0.0484330729 0.0918991119
v -0.374871939 0.172060654 0.0579930022
v -0.3742024 -0.0677212402 0.0825495198
v -0.372268081 0.172842741 0.0358016118
v -0.366241992 -0.051963646 0.052400317
v -0.350321114 -0.0707916543 0.0495911837
v -0.332285285 0.160705909 0.0671120435
v -0.331381917 -0.0547154322 0.0229427237
v -0.32144466 -0.0745862126 0.0314128548
v -0.317150921 -0.0331066735 0.0086152209
v -0.314036876 -0.00955718383 0.00467899861
v -0.313856184 -0.055874072 0.014959299
v -0.312910318 0.133419797 0.0875445232
v -0.312336385 0.0178158395 0.00573777594
v -0.312219501 -0.123075575 0.0827117562
v -0.312219501 0.142631039 0.0474565737
v -0.312219501 0.152740225 0.0637820661
f 649 650 651
f 649 651 653
f 649 652 650
f 649 653 654
f 649 654 652
f 650 652 669
f 650 655 651
f 650 660 655
f 650 663 660
f 650 665 663
f 650 666 665
f 650 669 666
f 651 655 670
f 651 656 653
f 651 670 656
f 652 654 657
f 652 657 659
f 652 659 669
f 653 656 654
f 654 656 668
f 654 668 657
f 655 658 670
f 655 660 658
f 656 670 668
f 657 662 659
f 657 668 662
f 658 660 661
f 658 661 670
f 659 662 672
f 659 671 669
f 659 672 671
f 660 663 661
f 661 663 664
f 661 664 670
f 662 668 672
f 663 665 667
f 663 667 664
f 664 667 670
f 665 666 667
f 666 669 667
f 667 669 670
f 668 670 672
f 669 671 670
f 670 671 672
o hull-a7b36789e5a38548
v 0.0458100922 -0.0830148309 0.0218594875
v 0.0481426865 -0.144238919 0.0232236777
v 0.0633584186 -0.0339626707 0.0251637027
v 0.063430205 -0.0895745531 0.0625249073
v 0.0762774423 -0.0476797856 0.0594743341
v 0.0764927641 -0.148539171 0.0491845645
v 0.116254635 -0.0098083131 0.0583363511
v 0.152679086 -0.0155808656 0.00448823674
v 0.179557845 -0.141279757 0.0680297092
v 0.190897867 -0.0510762632 -0.0018323221
v 0.206616014 -0.158728614 0.0120907156
v 0.236688614 -0.0840206519 -0.000879425206
v 0.274584413 -0.102446191 -0.000399577926
v 0.310075849 -0.10732954 0.00130738213
v 0.315386981 -0.0149394739 -0.00199686387
v 0.331141025 -0.152620792 0.0680297092
v 0.336057425 -0.0413824506 -0.00131132419
v 0.345854342 -0.116673499 0.0157651342
v 0.347289801 -0.0772568509 0.00214374647
v 0.3642281 -0.144778267 0.0555119812
v 0.384790838 -0.0098083131 0.012275802
v 0.389097184 -0.117839679 0.0478957854
v 0.403021008 -0.0098083131 0.0506515987
v 0.412423193 -0.0669799522 0.0680297092
f 673 674 676
f 673 675 680
f 673 676 675
f 673 680 682
f 673 682 674
f 674 678 676
f 674 682 683
f 674 683 678
f 675 676 677
f 675 677 679
f 675 679 680
f 676 678 681
f 676 679 677
f 676 681 696
f 676 696 679
f 678 683 688
f 678 688 681
f 679 693 680
f 679 695 693
f 679 696 695
f 680 687 682
f 680 693 687
f 681 688 696
f 682 684 683
f 682 685 684
f 682 687 685
f 683 684 685
f 683 685 686
f 683 686 690
f 683 690 692
f 683 692 688
f 685 687 689
f 685 689 686
f 686 689 691
f 686 691 690
f 687 693 689
f 688 692 696
f 689 693 691
f 690 691 694
f 690 694 692
f 691 693 694
f 692 694 696
f 693 695 696
f 693 696 694
o hull-b0686637e8d6c349
v -0.425350159 0.0439521074 0.575269938
v -0.408007443 0.0521005914 0.550635934
v -0.379886001 0.0537456609 0.531331837
v -0.329377949 0.07284078 0.518921196
v -0.328065157 0.0590037405 0.618712485
v -0.316491842 0.0972324163 0.53385359
v -0.315731794 0.0942882001 0.598108888
v -0.277384371 0.0953182951 0.62195003
v -0.273238689 0.0432141311 0.512181818
v -0.270129472 0.120094277 0.546352267
v -0.26111263 0.119471617 0.594948471
v -0.25662148 0.104412295 0.512181818
v -0.23302573 0.121739358 0.619934797
v -0.1948165 0.121739358 0.624680996
v -0.150077835 0.0432371944 0.624680996
v -0.14033553 0.121739358 0.587019801
v -0.122647338 0.0432141311 0.599199116
v -0.122370958 0.121739358 0.558894992
v -0.113734148 0.0864010826 0.624680996
v -0.111315839 0.121739358 0.527235329
v -0.0865800306 0.0940345228 0.57348597
v -0.086165458 0.0432141311 0.512181818
v -0.085336335 0.0432141311 0.551869273
v -0.0724502057 0.0994847715 0.527466595
f 697 698 699
f 697 699 705
f 697 701 704
f 697 702 698
f 697 703 706
f 697 704 703
f 697 705 711
f 697 706 702
f 697 711 701
f 698 702 699
f 699 700 705
f 699 702 700
f 700 702 708
f 700 708 705
f 701 711 704
f 702 706 708
f 703 704 709
f 703 707 706
f 703 709 707
f 704 710 709
f 704 711 710
f 705 708 718
f 705 713 711
f 705 718 719
f 705 719 713
f 706 707 709
f 706 709 716
f 706 716 708
f 708 716 718
f 709 710 716
f 710 711 715
f 710 712 716
f 710 715 712
f 711 713 715
f 712 714 716
f 712 715 717
f 712 717 714
f 713 719 715
f 714 717 720
f 714 720 716
f 715 719 717
f 716 720 718
f 717 719 720
f 718 720 719
o hull-b5e5d710daad8a82
v 0.0867352262 0.0536822863 0.10714265
v 0.0890286267 0.0533730723 0.132817522
v 0.0900115073 0.0780439228 0.0960800499
v 0.0902497917 0.0507447533 0.0824085921
v 0.09242405 0.0871657357 0.125337899
v 0.093645215 0.0730523244 0.0728939474
v 0.102580532 -0.0125557519 0.0960666984
v 0.104635648 -0.0125557519 0.125618145
v 0.108745903 0.120759621 0.136200354
v 0.112558305 -0.0125557519 0.0689639747
v 0.125246465 0.170145512 0.10627526
v 0.147971958 0.147374094 0.136200354
v 0.154047981 0.209481925 0.0685369596
v 0.162715241 0.182226941 0.122582264
v 0.186006665 0.213059977 0.0739681646
v 0.21388486 0.155192792 0.136200354
v 0.234525457 0.18717435 0.0680365339
v 0.244175598 -0.0125557519 0.136200354
v 0.252396107 0.142890498 0.136200354
v 0.252574801 0.171227738 0.0751491562
v 0.275896013 0.112344585 0.136200354
v 0.276372552 -0.00559844403 0.134045213
v 0.287422538 0.134254605 0.0680565685
v 0.391012728 -0.00511253485 0.0834828168
f 721 722 725
f 721 723 724
f 721 724 727
f 721 725 723
f 721 727 728
f 721 728 722
f 722 728 738
f 722 729 725
f 722 738 729
f 723 725 731
f 723 726 724
f 723 731 726
f 724 726 730
f 724 730 727
f 725 729 731
f 726 731 733
f 726 733 730
f 727 730 728
f 728 730 738
f 729 732 734
f 729 734 731
f 729 736 732
f 729 738 736
f 730 733 737
f 730 737 743
f 730 743 744
f 730 744 738
f 731 734 733
f 732 736 734
f 733 734 735
f 733 735 737
f 734 736 735
f 735 736 739
f 735 739 737
f 736 738 741
f 736 741 739
f 737 739 740
f 737 740 743
f 738 742 741
f 738 744 742
f 739 741 744
f 739 743 740
f 739 744 743
f 741 742 744
o hull-bb12fa21c2c201c4
v -0.320746243 0.0441317894 0.62605077
v -0.296508342 0.043212235 0.635034084
v -0.275833189 0.043212235 0.640298009
v -0.271400779 0.0926658437 0.62470144
v -0.21125488 0.0999702364 0.62470144
v -0.175795704 0.043212235 0.647816658
v -0.173383147 0.055924084 0.680589855
v -0.168501899 0.0501060113 0.665321767
v -0.162638783 0.0633962005 0.696168661
v -0.153970376 0.0432180166 0.62937063
v -0.150127083 0.102289371 0.640644193
v -0.148163378 0.0823598728 0.715386927
v -0.138653353 0.102289371 0.627151489
v -0.137306809 0.102289371 0.65694201
v -0.120531037 0.100803047 0.625447094
v -0.113938548 0.0790922716 0.624710321
v -0.112367578 0.102289371 0.667949319
v -0.090149492 0.101080649 0.633054554
v -0.0809480622 0.102289371 0.677438617
v -0.0726723894 0.0948114768 0.641265571
v -0.0581408665 0.102289371 0.682711422
v -0.0536523685 0.0906994939 0.663430989
v -0.0388683602 0.100884013 0.661895275
v -0.034183491 0.102185272 0.682480633
f 745 746 756
f 745 748 760
f 745 754 746
f 745 756 748
f 745 760 754
f 746 747 753
f 746 750 747
f 746 753 756
f 746 754 750
f 747 750 751
f 747 751 753
f 748 749 760
f 748 756 758
f 748 758 749
f 749 755 757
f 749 757 759
f 749 758 755
f 749 759 760
f 750 752 751
f 750 754 752
f 751 752 753
f 752 754 768
f 752 768 753
f 753 768 756
f 754 760 764
f 754 764 767
f 754 766 768
f 754 767 766
f 755 758 757
f 756 761 758
f 756 763 761
f 756 765 763
f 756 768 765
f 757 758 765
f 757 762 759
f 757 765 768
f 757 768 762
f 758 761 763
f 758 763 765
f 759 762 760
f 760 762 764
f 762 767 764
f 762 768 767
f 766 767 768
o hull-be001b7509023336
v -0.410514772 -0.0205876231 0.156013593
v -0.410149127 0.0134291807 0.160470426
v -0.406444371 -0.00336034037 0.201593101
v -0.403923213 0.00294860569 0.10758771
v -0.402662635 -0.0355745889 0.116002001
v -0.399015605 0.0319697559 0.211443067
v -0.397264272 0.0466477089 0.179059267
v -0.395022154 -0.0592138208 0.156887487
v -0.393001378 -0.0472912043 0.208247125
v -0.392270058 0.0527764 0.14312999
v -0.389873981 0.0450769141 0.104204498
v -0.389219642 -0.0465444289 0.0919201374
v -0.379616141 -0.0719347149 0.196337283
v -0.377162337 -0.0734282658 0.10434185
v -0.369569957 -0.0845526084 0.170969546
v -0.369550705 0.0701839402 0.219457865
v -0.360322475 -0.08009772 0.215962306
v -0.346128941 -0.0947241709 0.184464872
v -0.323371083 0.0972222835 0.217847407
v -0.320493877 0.13015756 0.186736986
v -0.319493145 -0.0945181623 0.208421901
v -0.318155587 0.140020117 0.155052304
v -0.313565493 0.125342146 0.0919201374
v -0.312218338 -0.123050049 0.101070985
f 769 770 772
f 769 771 770
f 769 772 773
f 769 773 776
f 769 776 777
f 769 777 771
f 770 771 774
f 770 774 775
f 770 775 778
f 770 778 779
f 770 779 772
f 771 777 774
f 772 779 780
f 772 780 773
f 773 780 782
f 773 782 776
f 774 777 785
f 774 784 775
f 774 785 784
f 775 784 790
f 775 790 778
f 776 781 777
f 776 782 783
f 776 783 781
f 777 781 785
f 778 790 779
f 779 790 791
f 779 791 780
f 780 791 792
f 780 792 782
f 781 783 785
f 782 792 783
f 783 786 785
f 783 792 786
f 784 785 787
f 784 787 788
f 784 788 790
f 785 786 789
f 785 789 787
f 786 792 789
f 787 789 788
f 788 789 790
f 789 791 790
f 789 792 791
o hull-d083356669098c73
v -0.331032455 -0.0106798466 0.500312686
v -0.329156816 0.0648939312 0.437172443
v -0.328919053 -0.0872949436 0.466571569
v -0.311298251 0.0749947354 0.490772605
v -0.293888807 -0.0803701803 0.445571095
v -0.291431963 0.0943372473 0.438013077
v -0.285012394 0.00496598147 0.512151003
v -0.273599833 0.09985625 0.501076162
v -0.250167131 -0.0538685843 0.510670245
v -0.248582035 -0.072586298 0.461735964
v -0.203380927 -0.0153918192 0.43338573
v -0.198070914 -0.043325223 0.512174129
v -0.171600133 0.164938733 0.508055747
v -0.171151027 0.132501617 0.435560584
v -0.165154144 0.160747424 0.470628202
v -0.163014293 -0.0257789828 0.438352406
v -0.133188412 -0.00328647764 0.43338573
v -0.128803045 0.123754539 0.43338573
v -0.112582415 0.178658128 0.502209902
v -0.104736283 0.0220175926 0.43338573
v -0.103573889 -0.0154699171 0.507970929
v -0.0746726468 0.0925409794 0.43338573
v -0.06796249 0.100246742 0.508186877
v -0.0611466654 0.0210804064 0.496857584
f 793 794 795
f 793 795 801
f 793 796 794
f 793 799 800
f 793 800 796
f 793 801 799
f 794 796 798
f 794 797 795
f 794 798 806
f 794 803 797
f 794 806 810
f 794 810 803
f 795 797 802
f 795 802 804
f 795 804 801
f 796 800 798
f 797 803 809
f 797 808 802
f 797 809 808
f 798 800 805
f 798 805 807
f 798 807 806
f 799 801 804
f 799 804 805
f 799 805 800
f 802 808 813
f 802 813 804
f 803 810 814
f 803 814 809
f 804 813 815
f 804 815 805
f 805 811 807
f 805 815 811
f 806 807 811
f 806 811 810
f 808 809 813
f 809 812 816
f 809 814 812
f 809 816 813
f 810 811 814
f 811 815 814
f 812 814 816
f 813 816 815
f 814 815 816
o hull-e4b391c845dd3d73
v 0.345902473 0.0104603022 0.268773198
v 0.345902473 0.0375419557 0.351846874
v 0.345902473 0.0463434905 0.27841121
v 0.345902473 0.0698617697 0.311134487
v 0.345902473 0.0865205526 0.348229408
v 0.35087961 -0.020719232 0.221490592
v 0.359826386 -0.0741164088 0.221260503
v 0.376561254 0.0120460056 0.351846874
v 0.376692235 -0.0954966545 0.222449288
v 0.394212931 0.0637327656 0.314854205
v 0.397306025 0.0459158868 0.276736706
v 0.398303479 0.0152174085 0.221260503
v 0.400036395 0.0710555017 0.341058403
v 0.402666003 0.051154051 0.292817116
v 0.406544954 0.0201883186 0.351834089
v 0.406544954 0.0282949954 0.244601414
v 0.408177137 -0.0740986019 0.255658299
v 0.412831873 -0.0941604003 0.227383345
v 0.41590479 0.0512253158 0.351846874
v 0.429707795 -0.0470525771 0.271099597
v 0.431732893 -0.0756842941 0.237622157
v 0.436055154 -0.0152138174 0.285658926
v 0.442271531 -0.00653699785 0.245828539
v 0.448830456 -0.0449858196 0.236228853
f 817 818 821
f 817 819 822
f 817 821 819
f 817 822 823
f 817 823 818
f 818 823 825
f 818 824 835
f 818 825 824
f 818 835 821
f 819 820 828
f 819 821 820
f 819 828 822
f 820 821 826
f 820 826 827
f 820 827 832
f 820 832 828
f 821 829 826
f 821 835 829
f 822 828 823
f 823 828 825
f 824 825 833
f 824 831 835
f 824 833 831
f 825 828 834
f 825 834 833
f 826 829 830
f 826 830 827
f 827 830 832
f 828 832 839
f 828 839 840
f 828 840 834
f 829 835 839
f 829 839 830
f 830 839 832
f 831 833 836
f 831 836 838
f 831 838 835
f 833 834 837
f 833 837 836
f 834 840 837
f 835 838 840
f 835 840 839
f 836 837 840
f 836 840 838
o hull-f238a0fd290b15fd
v -0.10353107 0.0497307032 0.398615181
v -0.10353107 0.0963951126 0.398615181
v -0.0945849791 0.120439082 0.219678581
v -0.0841616541 -0.0400295556 0.219678581
v -0.0707956851 0.136156395 0.220326692
v -0.0516980775 -0.0464061834 0.219661057
v -0.0451746359 0.143566549 0.219678581
v -0.0404829569 0.143703043 0.258075923
v -0.0305559803 -0.048122216 0.219678581
v -0.0152991638 0.14255251 0.334240049
v -0.0151218949 0.14703761 0.303690314
v -0.0131365014 0.147135109 0.23603949
v 0.00564202992 0.148773134 0.335956722
v 0.00722561777 -0.00898494571 0.396215349
v 0.0081119556 0.151093692 0.305599689
v 0.010676425 -0.0374165028 0.226054773
v 0.0116927577 -0.0197101608 0.366296232
v 0.013323619 -0.0350959562 0.275768161
v 0.0142454104 -0.0313128866 0.306090146
v 0.0152026545 0.142143011 0.227701381
v 0.016077172 0.148851141 0.263716429
v 0.0171998646 -0.026164785 0.338917077
v 0.0171998646 0.14389804 0.395532191
v 0.0171998646 0.148090631 0.366331279
f 841 842 843
f 841 843 844
f 841 844 854
f 841 854 842
f 842 845 843
f 842 848 845
f 842 850 848
f 842 854 863
f 842 863 850
f 843 845 847
f 843 846 844
f 843 847 846
f 844 846 857
f 844 857 854
f 845 848 847
f 846 847 849
f 846 849 862
f 846 862 857
f 847 848 855
f 847 852 860
f 847 855 852
f 847 860 849
f 848 850 851
f 848 851 855
f 849 856 858
f 849 858 859
f 849 859 862
f 849 860 856
f 850 863 851
f 851 853 855
f 851 863 864
f 851 864 853
f 852 855 861
f 852 861 860
f 853 864 855
f 854 857 862
f 854 862 863
f 855 864 861
f 856 860 862
f 856 862 858
f 858 862 859
f 860 861 862
f 861 864 862
f 862 864 863
o hull-f4a9bd7255fe3381
v -0.263381541 0.122338831 0.54493171
v -0.254199475 0.124197468 0.597360075
v -0.243144244 0.121754684 0.613096297
v -0.240481436 0.121754684 0.512181818
v -0.231170803 0.145666674 0.617534161
v -0.229591474 0.12385609 0.622412503
v -0.219307542 0.159102008 0.623623848
v -0.194056809 0.122293316 0.624680996
v -0.185848013 0.159390286 0.516124189
v -0.17780453 0.137814865 0.624680996
v -0.176923037 0.154800579 0.624680996
v -0.167520583 0.169548318 0.516928017
v -0.161240041 0.17851533 0.56588763
v -0.150882632 0.121754684 0.598086894
v -0.143922627 0.184394702 0.569774866
v -0.134042695 0.176178738 0.513040781
v -0.133546859 0.121754684 0.579157174
v -0.122344717 0.121754684 0.558894992
v -0.113952287 0.121754684 0.539689958
v -0.111601681 0.166043475 0.512181818
v -0.11011418 0.121754684 0.521376908
v -0.0930722281 0.192580312 0.610960007
v -0.0869385973 0.199256256 0.548675776
v -0.0757915378 0.189113379 0.553289831
f 865 866 871
f 865 867 866
f 865 868 867
f 865 871 876
f 865 873 868
f 865 876 873
f 866 867 869
f 866 869 871
f 867 868 878
f 867 870 869
f 867 872 870
f 867 878 872
f 868 873 880
f 868 880 884
f 868 881 878
f 868 882 881
f 868 883 882
f 868 884 885
f 868 885 883
f 869 870 871
f 870 872 871
f 871 872 875
f 871 875 886
f 871 877 876
f 871 879 877
f 871 886 879
f 872 874 875
f 872 878 886
f 872 886 874
f 873 876 880
f 874 886 875
f 876 877 887
f 876 887 880
f 877 879 887
f 878 881 886
f 879 886 887
f 880 887 884
f 881 882 886
f 882 883 886
f 883 885 888
f 883 888 886
f 884 887 888
f 884 888 885
f 886 888 887
o hull-f92e954e70f9ca19
v 0.0171998646 -0.0342590883 0.273156554
v 0.0187130254 -0.0285274275 0.322942227
v 0.0222466495 0.151546866 0.317372859
v 0.0241009258 -0.0189746581 0.376204908
v 0.0248093996 0.081839487 0.504238427
v 0.0250630509 0.148059651 0.268171817
v 0.025220491 0.135539025 0.224509344
v 0.0254828874 -0.0274144802 0.22386317
v 0.0404570512 0.151342824 0.384328157
v 0.0423638076 -0.00626855204 0.425867498
v 0.0460548699 0.142439276 0.435806185
v 0.0526847877 0.1053968 0.221278504
v 0.058719933 0.015248361 0.221247733
v 0.0614401214 0.0206090398 0.481653333
v 0.0677814037 0.0574660264 0.221247733
v 0.0856856704 0.0810789764 0.535592914
v 0.0893067643 0.140918255 0.474053174
v 0.0962865427 0.155238137 0.431098402
v 0.0991991609 0.0090158768 0.483991832
v 0.105540432 -0.0122969979 0.429652214
v 0.10654629 0.144869208 0.372389436
v 0.106555037 -0.00689921621 0.388728261
v 0.106555037 0.0482471436 0.324849963
v 0.106555037 0.108049311 0.324419171
f 889 890 893
f 889 891 895
f 889 893 891
f 889 895 896
f 889 896 908
f 889 908 890
f 890 892 893
f 890 908 892
f 891 893 899
f 891 894 895
f 891 897 906
f 891 899 897
f 891 906 894
f 892 898 893
f 892 908 898
f 893 898 902
f 893 902 904
f 893 904 905
f 893 905 899
f 894 906 909
f 894 909 895
f 895 900 896
f 895 909 900
f 896 900 901
f 896 901 910
f 896 910 908
f 897 899 906
f 898 907 902
f 898 908 907
f 899 905 906
f 900 903 901
f 900 909 912
f 900 912 903
f 901 903 911
f 901 911 910
f 902 907 904
f 903 912 911
f 904 906 905
f 904 907 909
f 904 909 906
f 907 908 909
f 908 910 909
f 909 910 912
f 910 911 912
o hull-ff89152bd0f903c3
v 0.106555037 -0.00413991231 0.379815876
v 0.106555037 0.0425050221 0.32706061
v 0.106555037 0.11559964 0.329376042
v 0.106555037 0.138773978 0.359113276
v 0.106555037 0.153076872 0.398293823
v 0.106738396 0.0856277198 0.541804492
v 0.107157491 0.085989818 0.314575493
v 0.108034976 -0.0121390112 0.419813603
v 0.113640405 0.0204828177 0.502487719
v 0.113843411 -0.00603270251 0.462058663
v 0.116364539 0.155677408 0.447871059
v 0.119245835 0.14288874 0.485598773
v 0.140233457 0.0888866112 0.546344519
v 0.158876747 0.00372751104 0.491432726
v 0.159256533 0.143695235 0.490116119
v 0.160160229 0.15600659 0.458086133
v 0.168116525 -0.00924221985 0.460288048
v 0.173453465 -0.00655939803 0.417611688
v 0.173453465 0.0232314784 0.370713085
v 0.173453465 0.0619266927 0.350623429
v 0.173453465 0.0853808299 0.546480715
v 0.173453465 0.109806061 0.364107341
v 0.173453465 0.140090704 0.394684494
v 0.173453465 0.152286857 0.423332125
f 913 914 931
f 913 915 914
f 913 916 915
f 913 917 916
f 913 918 917
f 913 920 918
f 913 930 920
f 913 931 930
f 914 915 919
f 914 919 932
f 914 932 931
f 915 916 935
f 915 934 919
f 915 935 934
f 916 917 936
f 916 936 935
f 917 918 923
f 917 923 928
f 917 928 936
f 918 920 921
f 918 921 925
f 918 924 923
f 918 925 924
f 919 934 932
f 920 922 921
f 920 929 922
f 920 930 929
f 921 922 926
f 921 926 933
f 921 933 925
f 922 929 926
f 923 924 928
f 924 925 927
f 924 927 928
f 925 933 927
f 926 929 933
f 927 933 936
f 927 936 928
f 929 930 933
f 930 931 932
f 930 932 934
f 930 934 935
f 930 935 936
f 930 936 933
