# Deterministic AVBD convex-compound debug mesh
o hull-08c681ce718b1cd3
v -1.5 -0.50000006 -1.5
v -1.5 -0.50000006 1.5
v -1.5 0.50000006 -1.5
v -1.5 0.50000006 1.5
v -0.50007391 -0.50000006 1.5
v -0.50007391 0.50000006 1.5
v -0.497620702 -0.50000006 -1.5
v -0.497620702 -0.50000006 -0.499804199
v -0.497620702 0.50000006 -1.5
v -0.497620702 0.50000006 -0.499804199
f 1 2 4
f 1 3 9
f 1 4 3
f 1 7 8
f 1 8 2
f 1 9 7
f 2 5 6
f 2 6 4
f 2 8 5
f 3 4 10
f 3 10 9
f 4 6 10
f 5 8 10
f 5 10 6
f 7 9 10
f 7 10 8
o hull-aec92d81d5e41523
v 0.49930644 -0.50000006 -1.5
v 0.49930644 -0.50000006 -0.499804199
v 0.49930644 0.50000006 -1.5
v 0.49930644 0.50000006 -0.499804199
v 0.500090063 -0.50000006 1.5
v 0.500090063 0.50000006 1.5
v 1.5 -0.50000006 -1.5
v 1.5 -0.50000006 1.5
v 1.5 0.50000006 -1.5
v 1.5 0.50000006 1.5
f 11 12 14
f 11 13 19
f 11 14 13
f 11 17 18
f 11 18 12
f 11 19 17
f 12 15 16
f 12 16 14
f 12 18 15
f 13 14 20
f 13 20 19
f 14 16 20
f 15 18 20
f 15 20 16
f 17 19 20
f 17 20 18
o hull-c68b1e5f3cecb54a
v -0.497522593 -0.50000006 -1.5
v -0.497522593 -0.50000006 -0.50000006
v -0.497522593 0.50000006 -1.5
v -0.497522593 0.50000006 -0.50000006
v 0.49930644 -0.50000006 -1.5
v 0.49930644 -0.50000006 -0.50000006
v 0.49930644 0.50000006 -1.5
v 0.49930644 0.50000006 -0.50000006
f 21 22 24
f 21 23 27
f 21 24 23
f 21 25 26
f 21 26 22
f 21 27 25
f 22 26 28
f 22 28 24
f 23 24 28
f 23 28 27
f 25 27 28
f 25 28 26
