# Deterministic AVBD convex-compound debug mesh
o hull-0bf640e74b2936b7
v -0.103233472 0.130708858 0.742831111
v -0.103156611 0.126658171 0.724897265
v -0.0983371884 0.152813718 0.748598158
v -0.0930950269 0.116794303 0.702239215
v -0.0859619901 0.116305552 0.742233932
v -0.085708335 0.110425733 0.728115022
v -0.0844554454 0.142135262 0.751949608
v -0.0786521658 0.108663261 0.67963469
v -0.0657465979 0.126465619 0.745380402
v -0.0637173727 0.0807674751 0.660889626
v -0.061203897 0.147881776 0.729853153
v -0.0589901954 0.112751 0.660889626
v -0.0570455231 0.151651084 0.711714208
v -0.0509809069 0.132937863 0.729763985
v -0.0463382825 0.13273792 0.660889626
v -0.0451315083 0.139173135 0.715502441
v -0.0423874408 0.121081971 0.720342457
v -0.0415573008 0.0771684945 0.697096169
v -0.0367148332 0.13026455 0.705519378
v -0.0247085802 0.0771684945 0.660889626
v -0.0247085802 0.0779386461 0.700126708
v -0.0247085802 0.0945783705 0.698317289
v -0.0247085802 0.110085092 0.692193747
v -0.0247085802 0.134270817 0.666469455
f 1 2 6
f 1 3 2
f 1 5 7
f 1 6 5
f 1 7 3
f 2 3 15
f 2 4 10
f 2 10 6
f 2 15 4
f 3 7 11
f 3 11 13
f 3 13 15
f 4 8 10
f 4 15 8
f 5 6 18
f 5 9 7
f 5 18 21
f 5 21 9
f 6 10 18
f 7 9 11
f 8 12 10
f 8 15 12
f 9 14 11
f 9 17 14
f 9 21 17
f 10 12 20
f 10 20 18
f 11 14 16
f 11 16 13
f 12 15 20
f 13 16 24
f 13 24 15
f 14 17 19
f 14 19 16
f 15 24 20
f 16 19 24
f 17 21 22
f 17 22 23
f 17 23 19
f 18 20 21
f 19 23 24
f 20 24 21
f 21 23 22
f 21 24 23
o hull-20c8ffe5b24e47d1
v 0.236485422 0.0121601643 0.535962939
v 0.236485422 0.0786859319 0.645583808
v 0.236493036 0.0143499151 0.596283138
v 0.240632847 0.0739382431 0.518993735
v 0.241020963 0.0377395414 0.627064943
v 0.241979823 0.111532182 0.544074535
v 0.251088917 0.144165277 0.714417279
v 0.256096274 0.191467762 0.710897148
v 0.257960737 0.0458203033 0.526282668
v 0.2710042 0.0120051345 0.587023675
v 0.271095514 0.110912077 0.689087749
v 0.273104548 0.0845575631 0.537187338
v 0.273964465 0.209974051 0.680172682
v 0.274847239 0.168601334 0.70265168
v 0.286285013 0.105486147 0.558250606
v 0.288431019 0.0299882162 0.619316876
v 0.290615082 0.0438824706 0.551210403
v 0.29239583 0.186739445 0.676595211
v 0.292738259 0.133158386 0.68028748
v 0.29990685 0.201873928 0.638409674
v 0.306108952 0.0676790476 0.569901407
v 0.306283981 0.0427197702 0.592093408
v 0.308985531 0.151548415 0.656526744
v 0.314228803 0.161915809 0.626089275
f 25 26 28
f 25 27 26
f 25 28 33
f 25 33 41
f 25 34 27
f 25 41 34
f 26 27 29
f 26 29 31
f 26 30 28
f 26 31 32
f 26 32 30
f 27 34 40
f 27 40 29
f 28 30 36
f 28 36 33
f 29 35 31
f 29 40 35
f 30 32 37
f 30 37 44
f 30 39 36
f 30 44 39
f 31 35 43
f 31 38 32
f 31 43 38
f 32 38 42
f 32 42 37
f 33 36 41
f 34 41 46
f 34 46 40
f 35 40 43
f 36 39 45
f 36 45 41
f 37 42 44
f 38 43 47
f 38 47 42
f 39 44 48
f 39 48 45
f 40 46 43
f 41 45 46
f 42 47 44
f 43 46 47
f 44 47 48
f 45 48 46
f 46 48 47
o hull-2f61366868fabd97
v -0.272670925 -0.0230232347 0.0160206445
v -0.255228102 0.0243255366 0.0116644343
v -0.243558258 -0.0616743118 0.0187716559
v -0.238775805 0.00628943788 0.0331798419
v -0.233173043 -0.0447594598 0.046215307
v -0.211210877 -0.0232955366 0.0495585725
v -0.20700106 0.0396706425 0.01309253
v -0.203688934 -0.060553059 0.0593503825
v -0.193752587 -0.0918038934 0.056704551
v -0.183661431 -0.0443910472 0.0598430224
v -0.180751696 -0.0069413106 0.0429882705
v -0.17214638 0.00164426025 0.0218492541
v -0.165351868 -0.0231673941 0.00329517177
v -0.164485142 -0.111457795 0.0598430224
v -0.162504062 -0.120828241 0.0327425748
v -0.158897877 -0.123278968 0.00884700101
v -0.151670009 -0.0453841574 0.0598430224
v -0.136347547 -0.109471582 0.0598430224
v -0.131518662 -0.123967744 0.00984335318
v -0.130868614 -0.0609695278 0.0512911119
v -0.128655389 -0.122365952 0.032570973
v -0.127200529 -0.0869825184 0.00415313384
v -0.123130016 -0.0801749304 0.0598430224
v -0.114571102 -0.104281805 0.00966068171
f 49 50 61
f 49 51 57
f 49 52 50
f 49 53 52
f 49 57 53
f 49 61 64
f 49 64 51
f 50 52 55
f 50 55 61
f 51 63 57
f 51 64 63
f 52 53 54
f 52 54 59
f 52 59 55
f 53 56 54
f 53 57 56
f 54 56 58
f 54 58 59
f 55 59 65
f 55 60 61
f 55 65 60
f 56 57 62
f 56 62 58
f 57 63 62
f 58 62 65
f 58 65 59
f 60 65 68
f 60 68 72
f 60 72 61
f 61 70 64
f 61 72 70
f 62 63 69
f 62 66 71
f 62 69 66
f 62 71 65
f 63 64 69
f 64 67 69
f 64 70 67
f 65 71 68
f 66 69 71
f 67 70 72
f 67 72 69
f 68 71 72
f 69 72 71
o hull-2f83d59c7e7f57fc
v 0.0453623831 0.0768241957 0.587302148
v 0.0453623831 0.135688901 0.586066961
v 0.0453623831 0.142245546 0.629770041
v 0.0463169366 0.112981215 0.717728853
v 0.046474088 0.128381059 0.709765077
v 0.0470503122 0.0962898135 0.712105453
v 0.0489244945 0.07850454 0.688978076
v 0.0537554547 0.0898386091 0.711114049
v 0.0555888973 0.121527903 0.727236569
v 0.0559905097 0.144136742 0.69817704
v 0.0581731722 0.117738888 0.592161655
v 0.0641274825 0.141046241 0.718086421
v 0.0658677965 0.0768241957 0.644543588
v 0.0666128099 0.10503418 0.731234729
v 0.0737835988 0.0768241957 0.614151359
v 0.0755239055 0.128170192 0.742985308
v 0.0770430416 0.095057562 0.719370365
v 0.0795749277 0.141955599 0.735054076
v 0.085796982 0.115050338 0.745569468
v 0.0907851011 0.104941927 0.732339859
v 0.0937418789 0.141830385 0.744643092
v 0.098532103 0.105165973 0.712885618
v 0.103217565 0.130002096 0.752102971
v 0.104823999 0.116928376 0.740449905
f 73 74 83
f 73 75 74
f 73 76 75
f 73 78 76
f 73 79 78
f 73 83 87
f 73 85 79
f 73 87 85
f 74 75 93
f 74 93 83
f 75 76 77
f 75 77 82
f 75 82 93
f 76 78 86
f 76 81 77
f 76 86 81
f 77 81 84
f 77 84 82
f 78 79 80
f 78 80 86
f 79 85 89
f 79 89 80
f 80 89 91
f 80 91 86
f 81 86 88
f 81 88 90
f 81 90 84
f 82 84 90
f 82 90 93
f 83 93 95
f 83 95 96
f 83 96 87
f 85 87 94
f 85 94 89
f 86 91 88
f 87 96 94
f 88 91 95
f 88 93 90
f 88 95 93
f 89 92 91
f 89 94 92
f 91 92 96
f 91 96 95
f 92 94 96
o hull-3f01ce8a7caccf6a
v -0.313347489 0.18420139 0.593172133
v -0.312981069 0.199465781 0.611602008
v -0.312944412 0.202540055 0.573491037
v -0.311558038 0.225763336 0.578670919
v -0.308852404 0.226352483 0.606997669
v -0.305536032 0.177806422 0.630607426
v -0.305407792 0.193606392 0.642506182
v -0.302744925 0.214323089 0.560979247
v -0.299025446 0.217975825 0.643344462
v -0.296313733 0.265182912 0.568673968
v -0.293443203 0.183215901 0.567135036
v -0.29335773 0.256099254 0.614629865
v -0.293162286 0.180109471 0.655593514
v -0.287989229 0.196809232 0.665365219
v -0.28307271 0.247572646 0.647548437
v -0.27972582 0.276451766 0.613316119
v -0.275700986 0.181887627 0.66477716
v -0.265287727 0.177420795 0.57239002
v -0.263632596 0.286852956 0.608424008
v -0.261531621 0.266586155 0.648311615
v -0.258007586 0.177742153 0.651965082
v -0.25616312 0.219154119 0.688787282
v -0.255601257 0.177420795 0.595399201
v -0.250959545 0.177420795 0.626090705
f 97 98 99
f 97 99 107
f 97 102 98
f 97 107 102
f 98 100 99
f 98 101 100
f 98 102 103
f 98 103 101
f 99 100 104
f 99 104 107
f 100 101 106
f 100 106 104
f 101 103 105
f 101 105 108
f 101 108 106
f 102 107 114
f 102 109 103
f 102 114 120
f 102 117 109
f 102 120 117
f 103 109 110
f 103 110 105
f 104 106 114
f 104 114 107
f 105 110 111
f 105 111 108
f 106 108 112
f 106 112 115
f 106 115 114
f 108 111 112
f 109 113 110
f 109 117 113
f 110 113 118
f 110 118 111
f 111 116 112
f 111 118 116
f 112 116 115
f 113 117 118
f 114 115 119
f 114 119 120
f 115 116 118
f 115 118 120
f 115 120 119
f 117 120 118
o hull-4133684e98a840f7
v 0.0632120594 -0.072542578 0.129193321
v 0.0682035461 -0.113840088 0.104174703
v 0.075010106 -0.119895935 0.0710020587
v 0.0787880197 -0.119741738 0.143964931
v 0.0803920478 -0.0916213021 0.176387504
v 0.0808352605 -0.0828599483 0.0741112381
v 0.0862594098 -0.0478005186 0.111893207
v 0.0875257477 -0.036712151 0.190554246
v 0.0941423699 -0.140026018 0.114288621
v 0.10805098 -0.0106804203 0.190554246
v 0.11016155 -0.147245392 0.0723812282
v 0.113580659 -0.112956956 0.180815369
v 0.117928416 -0.143586636 0.11949075
v 0.12341588 -0.0188389923 0.140686408
v 0.127542034 -0.130115181 0.153256193
v 0.134971216 -0.077182591 0.0669613406
v 0.135657147 -0.0354645327 0.114760451
v 0.141492859 -0.120246395 0.0696471035
v 0.152636632 -0.0809675008 0.189102501
v 0.157290414 -0.110083222 0.117591366
v 0.158894449 -0.049917262 0.125842184
v 0.159854755 -0.00403580768 0.187432975
v 0.163622111 -0.100256488 0.151768148
v 0.171009079 -0.0489780419 0.159510836
f 121 122 124
f 121 123 122
f 121 124 125
f 121 125 128
f 121 126 123
f 121 127 126
f 121 128 130
f 121 130 127
f 122 123 129
f 122 129 124
f 123 126 136
f 123 131 129
f 123 136 138
f 123 138 131
f 124 129 132
f 124 132 125
f 125 132 128
f 126 127 136
f 127 130 134
f 127 134 137
f 127 137 136
f 128 132 139
f 128 139 130
f 129 131 133
f 129 133 135
f 129 135 132
f 130 139 142
f 130 142 134
f 131 138 140
f 131 140 133
f 132 135 139
f 133 140 143
f 133 143 135
f 134 142 137
f 135 143 139
f 136 137 141
f 136 141 138
f 137 142 141
f 138 141 144
f 138 144 140
f 139 143 144
f 139 144 142
f 140 144 143
f 141 142 144
o hull-4f630fc8bbb9af05
v -0.315060198 0.110332407 0.577492833
v -0.308457285 0.177420765 0.588256001
v -0.301695257 0.177420765 0.639167666
v -0.300358772 0.0960796326 0.618958652
v -0.29967463 0.0736857355 0.569514036
v -0.287677974 0.135968745 0.543706357
v -0.27305612 0.176627681 0.565412343
v -0.269571692 0.177420765 0.655873775
v -0.262571007 0.108629532 0.638838351
v -0.257479608 0.154467031 0.541685462
v -0.256031752 0.113714822 0.527494252
v -0.253263295 0.177420765 0.610695422
v -0.243303239 0.0111228023 0.54439497
v -0.232595384 0.0322337113 0.515832961
v -0.223462671 0.15351063 0.621069372
v -0.186613649 -0.0410829633 0.529604971
v -0.185977221 -0.0443487316 0.566250622
v -0.166979939 -0.0164030213 0.502959073
v -0.166534424 -0.0193422232 0.596324623
v -0.158133611 0.0301809385 0.507449925
v -0.155412897 -0.0525365062 0.518766999
v -0.15251717 -0.0608875528 0.56620574
v -0.15251717 0.0343098119 0.590920568
v -0.15251717 0.0564004555 0.544260263
f 145 146 150
f 145 147 146
f 145 148 147
f 145 149 148
f 145 150 149
f 146 147 156
f 146 151 150
f 146 156 151
f 147 148 152
f 147 152 156
f 148 149 161
f 148 153 152
f 148 161 163
f 148 163 153
f 149 150 158
f 149 157 161
f 149 158 157
f 150 151 154
f 150 154 155
f 150 155 158
f 151 156 154
f 152 153 163
f 152 159 156
f 152 163 167
f 152 167 159
f 154 156 159
f 154 159 168
f 154 164 155
f 154 168 164
f 155 162 158
f 155 164 162
f 157 158 160
f 157 160 161
f 158 162 160
f 159 167 168
f 160 162 165
f 160 165 166
f 160 166 161
f 161 166 163
f 162 164 165
f 163 166 167
f 164 168 165
f 165 168 166
f 166 168 167
o hull-604eec4b3489f412
v -0.0882829279 0.0771935731 0.600994051
v -0.075736098 0.0874349326 0.637194395
v -0.0711700469 0.11125093 0.621969104
v -0.0652825907 0.0815896317 0.65914923
v -0.0560981557 0.121894859 0.654882073
v -0.0366826244 0.0771935731 0.555086136
v -0.035348136 0.201249316 0.569808662
v -0.0251301229 0.141169876 0.65863353
v -0.0219378136 0.204437658 0.551656902
v -0.0139570367 0.154197007 0.529186428
v -0.00121395884 0.0771935731 0.540234745
v 0.000395279698 0.135421187 0.660876751
v 0.00668831775 0.241667256 0.571059167
v 0.0158465877 0.150734916 0.532164454
v 0.0166184977 0.202682465 0.544746876
v 0.0256982706 0.217561424 0.557754755
v 0.029505495 0.0771935731 0.55837357
v 0.0357592814 0.133698195 0.658324182
v 0.0390431732 0.193600506 0.566882193
v 0.0423009023 0.0771935731 0.578910291
v 0.0433344804 0.165130794 0.56997627
v 0.044341892 0.148689866 0.62810564
v 0.0453492962 0.0771935731 0.660876751
v 0.0453492962 0.129962355 0.585717201
f 169 170 171
f 169 171 175
f 169 172 170
f 169 174 179
f 169 175 177
f 169 177 178
f 169 178 174
f 169 179 185
f 169 185 188
f 169 188 191
f 169 191 172
f 170 172 173
f 170 173 171
f 171 173 175
f 172 176 173
f 172 180 176
f 172 191 180
f 173 176 181
f 173 181 175
f 174 178 179
f 175 181 177
f 176 180 181
f 177 181 183
f 177 183 178
f 178 182 179
f 178 183 182
f 179 182 185
f 180 186 181
f 180 191 186
f 181 184 183
f 181 186 190
f 181 187 184
f 181 190 187
f 182 183 184
f 182 184 187
f 182 187 189
f 182 189 185
f 185 189 188
f 186 191 190
f 187 190 189
f 188 189 192
f 188 192 191
f 189 190 192
f 190 191 192
o hull-61616a7b76ec0cee
v -0.152517155 -0.0344032794 0.510454118
v -0.152517155 0.0429846868 0.526150823
v -0.144812882 0.013496073 0.607800186
v -0.136038065 -0.088614136 0.605162084
v -0.120247178 -0.118050367 0.493992358
v -0.0989887491 -0.0081620831 0.443973899
v -0.0974784866 -0.083481133 0.441731513
v -0.0838096291 0.0771349072 0.617798567
v -0.077214174 -0.121585861 0.671932459
v -0.0733907148 -0.176137179 0.581287205
v -0.0677319989 0.0624167882 0.479298115
v -0.0456515327 -0.18498899 0.515334606
v -0.045460362 -0.0666679069 0.711213827
v -0.0452118367 -0.161707133 0.441784263
v -0.0364561193 0.0542720631 0.704117358
v -0.0103992596 -0.161785707 0.663385034
v 0.00848861784 0.0771349072 0.558230162
v 0.0212971978 0.0553196184 0.45513308
v 0.0222912952 -0.10461551 0.706254184
v 0.0229604021 -0.190357715 0.536070108
v 0.0313528888 0.053617347 0.703062117
v 0.0348704681 -0.166237801 0.441731513
v 0.0382924601 -0.0340104476 0.710633457
v 0.0427659079 -0.174330145 0.637030363
f 193 194 198
f 193 195 194
f 193 196 195
f 193 197 196
f 193 198 199
f 193 199 197
f 194 195 200
f 194 200 203
f 194 203 198
f 195 196 201
f 195 201 205
f 195 205 207
f 195 207 200
f 196 197 202
f 196 202 201
f 197 199 206
f 197 204 202
f 197 206 204
f 198 203 210
f 198 210 214
f 198 214 199
f 199 214 206
f 200 207 213
f 200 209 203
f 200 213 209
f 201 202 208
f 201 208 211
f 201 211 205
f 202 204 212
f 202 212 216
f 202 216 208
f 203 209 210
f 204 206 214
f 204 214 212
f 205 211 215
f 205 215 207
f 207 215 213
f 208 216 211
f 209 213 210
f 210 213 215
f 210 215 214
f 211 216 215
f 212 214 216
f 214 215 216
o hull-628c942c88fca5c1
v 0.135841876 -0.0843869671 0.565000594
v 0.135841876 -0.0801178589 0.530722201
v 0.135841876 -0.0762222856 0.587434947
v 0.135841876 -0.0444306619 0.607462347
v 0.135841876 -0.017495174 0.605469704
v 0.135841876 0.0130690709 0.587356567
v 0.135841876 0.029345097 0.558865845
v 0.143095642 0.0329204872 0.532155156
v 0.143126816 -0.0605332553 0.50893718
v 0.143324271 -0.0308228359 0.496074349
v 0.150972947 0.00886665285 0.497216225
v 0.159780324 -0.0138130561 0.49309656
v 0.162970737 -0.0709392428 0.537685335
v 0.163360462 0.0300121456 0.503250241
v 0.167169183 -0.0584387146 0.512978494
v 0.177712098 -0.0487798303 0.578938067
v 0.177987471 -0.0600129552 0.557970285
v 0.182975739 -0.025112886 0.500876904
v 0.183344662 -0.0196830984 0.587524474
v 0.185230851 -0.0497270375 0.524150848
v 0.185589388 0.00964043196 0.497540861
v 0.187532723 0.0396977179 0.506116092
v 0.188925281 0.0344547033 0.575512469
v 0.188925281 0.0519047379 0.541267693
f 217 218 229
f 217 219 220
f 217 220 218
f 217 229 233
f 217 233 219
f 218 220 223
f 218 223 226
f 218 225 231
f 218 226 225
f 218 231 229
f 219 232 220
f 219 233 232
f 220 221 222
f 220 222 223
f 220 232 235
f 220 235 221
f 221 235 239
f 221 239 222
f 222 239 223
f 223 224 226
f 223 239 240
f 223 240 224
f 224 227 226
f 224 230 227
f 224 238 230
f 224 240 238
f 225 226 234
f 225 234 231
f 226 227 228
f 226 228 234
f 227 230 237
f 227 237 228
f 228 237 234
f 229 231 236
f 229 236 233
f 230 238 237
f 231 234 236
f 232 233 236
f 232 236 235
f 234 237 236
f 235 236 239
f 236 237 238
f 236 238 240
f 236 240 239
o hull-65f38935c260ada2
v -0.0335496515 -0.131459624 0.31432417
v -0.0335496515 -0.0768632442 0.28969875
v -0.0335496515 -0.0526112728 0.293150187
v -0.0335496515 -0.0134667121 0.310872763
v -0.03050288 0.0103437845 0.336304247
v -0.0275427196 -0.146146193 0.338143468
v -0.0228961371 -0.283358186 0.225154996
v -0.0188558511 -0.269760579 0.254367143
v -0.0101129385 0.0173191652 0.335668445
v -0.00881372858 -0.275146663 0.234192267
v -0.00736676669 -0.000604922709 0.306774199
v -0.00553258974 -0.150472686 0.341129422
v 0.000759657996 -0.247156814 0.251437992
v 0.00353639899 -0.181935504 0.248463422
v 0.00604310865 -0.226171792 0.255695492
v 0.00651693763 -0.206776112 0.251392573
v 0.0110972859 0.00866615493 0.332591712
v 0.0139657352 -0.144910038 0.341129422
v 0.0143121919 -0.183289379 0.267094254
v 0.0185002312 -0.138847053 0.311826438
v 0.0185002312 -0.0822492987 0.289051622
v 0.0185002312 -0.0557899289 0.286508471
v 0.0185002312 -0.034657754 0.293059349
v 0.0185002312 -0.0158507004 0.307852745
f 241 242 247
f 241 244 242
f 241 245 244
f 241 246 245
f 241 247 246
f 242 243 247
f 242 244 243
f 243 244 251
f 243 251 263
f 243 254 247
f 243 263 254
f 244 245 251
f 245 246 252
f 245 249 251
f 245 252 258
f 245 258 249
f 246 247 248
f 246 248 252
f 247 250 248
f 247 254 250
f 248 250 253
f 248 253 258
f 248 258 252
f 249 257 251
f 249 258 257
f 250 254 256
f 250 255 253
f 250 256 255
f 251 257 264
f 251 264 263
f 253 255 258
f 254 259 256
f 254 262 259
f 254 263 262
f 255 256 259
f 255 259 258
f 257 258 264
f 258 259 260
f 258 260 264
f 259 261 260
f 259 262 261
f 260 261 262
f 260 262 263
f 260 263 264
o hull-69b9f46d0d44a1af
v -0.201531053 0.00531515246 0.221103877
v -0.201060966 -0.05307981 0.205922976
v -0.199170366 -0.028505208 0.283699095
v -0.198444799 -0.0607240461 0.266854525
v -0.187397629 -0.0521242805 0.311472952
v -0.181582779 -0.0903589204 0.286541164
v -0.176912501 0.00180257054 0.286171466
v -0.174970821 -0.0817995295 0.328525484
v -0.172170699 -0.0797538832 0.205622599
v -0.163014114 -0.109092675 0.313737392
v -0.157178819 -0.112013087 0.277367949
v -0.14790982 -0.00483230222 0.205622599
v -0.133735508 -0.124690682 0.308492243
v -0.133132562 -0.071207948 0.205668807
v -0.130904734 0.00535552762 0.241298854
v -0.123505875 -0.0348305441 0.205622599
v -0.117915869 0.00761649711 0.288874924
v -0.112775497 -0.109267622 0.252205074
v -0.10075748 -0.0594051443 0.441677481
v -0.0993267596 -0.129845172 0.310687333
v -0.0991428122 -0.0644384995 0.222536474
v -0.0982639343 -0.00293470384 0.259830177
v -0.0975894555 -0.0148586314 0.441677481
v -0.097139813 -0.10311725 0.439967602
f 265 266 267
f 265 267 271
f 265 271 281
f 265 276 266
f 265 279 276
f 265 281 279
f 266 268 267
f 266 270 268
f 266 273 275
f 266 275 270
f 266 276 273
f 267 268 269
f 267 269 287
f 267 287 271
f 268 270 272
f 268 272 269
f 269 272 283
f 269 283 287
f 270 274 272
f 270 275 274
f 271 287 281
f 272 274 288
f 272 288 283
f 273 276 280
f 273 278 282
f 273 280 278
f 273 282 275
f 274 275 277
f 274 277 288
f 275 282 284
f 275 284 277
f 276 279 286
f 276 286 280
f 277 284 288
f 278 280 285
f 278 285 282
f 279 281 286
f 280 286 285
f 281 287 286
f 282 285 284
f 283 288 287
f 284 285 288
f 285 286 288
f 286 287 288
o hull-83d231f885e44cc4
v 0.0185002312 -0.138681859 0.309582591
v 0.0185002312 -0.0822236314 0.289046735
v 0.0185002312 -0.030534992 0.298795909
v 0.0185002312 0.0127486112 0.354145557
v 0.0259068646 -0.145952761 0.356731057
v 0.0788986608 -0.00737064984 0.3587237
v 0.0824874341 -0.118329562 0.358806044
v 0.086045675 -0.0790853351 0.190566912
v 0.0875270069 -0.0367183648 0.190566912
v 0.107089691 -0.00566167524 0.199476197
v 0.111457303 0.0106512392 0.243018121
v 0.121704422 -0.119215116 0.307672292
v 0.122132026 -0.100059092 0.190566912
v 0.124438003 -0.0263557769 0.341679126
v 0.130042613 -0.0632229671 0.350324929
v 0.13419643 0.00372213498 0.289968967
v 0.145069689 -0.100649461 0.287498742
v 0.146474659 0.00639434671 0.251878023
v 0.155362606 -0.0728242844 0.190566912
v 0.156507969 -0.0709288791 0.316795647
v 0.156660676 -8.42168301e-05 0.19427225
v 0.158737585 -0.0226737186 0.296967953
v 0.167976797 -0.0694218799 0.268198013
v 0.174512953 -0.0361124538 0.250148863
f 289 290 296
f 289 292 290
f 289 293 292
f 289 296 301
f 289 301 293
f 290 291 297
f 290 292 291
f 290 297 296
f 291 292 298
f 291 298 297
f 292 293 294
f 292 294 304
f 292 299 298
f 292 304 306
f 292 306 299
f 293 295 294
f 293 300 295
f 293 301 300
f 294 295 303
f 294 302 304
f 294 303 302
f 295 300 308
f 295 308 303
f 296 297 301
f 297 298 309
f 297 307 301
f 297 309 307
f 298 299 309
f 299 306 309
f 300 301 305
f 300 305 308
f 301 307 305
f 302 303 310
f 302 310 304
f 303 308 310
f 304 310 306
f 305 307 311
f 305 311 308
f 306 310 312
f 306 312 309
f 307 309 312
f 307 312 311
f 308 311 312
f 308 312 310
o hull-956c56e088525f45
v -0.0335496515 -0.153838903 0.371669799
v -0.0315626226 0.0410318673 0.425939769
v -0.0312314518 0.0116118165 0.342930526
v -0.030941043 -0.157564044 0.384917438
v -0.0277312323 -0.168252617 0.441667646
v -0.0275427196 -0.147510424 0.342359692
v -0.0225853436 0.0438680351 0.440939307
v -0.0187233817 0.0453919545 0.426254719
v -0.0182342697 0.0192102306 0.345253289
v -0.0115395207 -0.165924415 0.417800277
v -0.00615417212 -0.150537089 0.341129422
v -0.0048549627 0.0199721903 0.345755249
v -0.00012686073 0.046175085 0.424847305
v 0.00162579748 0.0479318164 0.438262224
v 0.00227285479 0.0287135374 0.370478898
v 0.00491203228 -0.152230322 0.353569984
v 0.00905421562 -0.164739147 0.413499206
v 0.0102973804 0.0151252896 0.344830096
v 0.0152700394 -0.146960124 0.345676512
v 0.0174914319 0.0222580619 0.366866797
v 0.0178124122 0.0437410437 0.432986796
v 0.0183371902 -0.165839747 0.428577483
v 0.0185002312 -0.160844699 0.441677481
v 0.0185002312 -0.155701473 0.375941336
f 313 314 315
f 313 315 318
f 313 316 317
f 313 317 314
f 313 318 316
f 314 317 319
f 314 319 320
f 314 320 321
f 314 321 315
f 315 321 324
f 315 323 318
f 315 324 330
f 315 330 323
f 316 318 323
f 316 322 317
f 316 323 322
f 317 322 334
f 317 334 335
f 317 335 319
f 319 326 320
f 319 335 326
f 320 325 321
f 320 326 325
f 321 325 327
f 321 327 324
f 322 323 329
f 322 329 334
f 323 328 329
f 323 330 331
f 323 331 328
f 324 327 330
f 325 326 333
f 325 333 327
f 326 335 333
f 327 332 330
f 327 333 332
f 328 331 336
f 328 336 329
f 329 336 334
f 330 332 331
f 331 332 336
f 332 333 336
f 333 335 336
f 334 336 335
o hull-b61f482abef80f21
v -0.0247085821 0.077161096 0.660889626
v -0.0247085821 0.0902680084 0.699144185
v -0.0247085821 0.0961236507 0.69822824
v -0.0247085821 0.101646721 0.696694314
v -0.0247085821 0.107312337 0.694260955
v -0.0247085821 0.112835407 0.69010061
v -0.0247085821 0.130859643 0.672040999
v -0.024441082 0.137831777 0.660889626
v -0.0237826221 0.0775530562 0.700413287
v -0.0166698992 0.077161096 0.70173198
v -0.00685475208 0.136216417 0.660889626
v -0.00452957023 0.077161096 0.700374603
v 0.00767934741 0.134589195 0.660889626
v 0.0442992449 0.0774105266 0.692605615
v 0.0452869311 0.130069777 0.660889626
v 0.0453623831 0.077161096 0.660889626
v 0.0453623831 0.0828920305 0.699127614
v 0.0453623831 0.091069743 0.706819355
v 0.0453623831 0.0995325148 0.712386787
v 0.0453623831 0.111433856 0.71725893
v 0.0453623831 0.119659081 0.716067076
v 0.0453623831 0.1248971 0.711801887
v 0.0453623831 0.129838169 0.70637244
v 0.0453623831 0.136151105 0.694404423
f 337 338 343
f 337 343 344
f 337 344 352
f 337 345 338
f 337 346 345
f 337 348 346
f 337 352 348
f 338 339 343
f 338 345 356
f 338 356 357
f 338 357 339
f 339 340 343
f 339 357 340
f 340 341 343
f 340 357 341
f 341 342 343
f 341 357 342
f 342 357 358
f 342 358 343
f 343 358 359
f 343 359 344
f 344 347 349
f 344 349 351
f 344 351 352
f 344 359 360
f 344 360 347
f 345 346 356
f 346 348 354
f 346 354 355
f 346 355 356
f 347 360 349
f 348 350 353
f 348 352 350
f 348 353 354
f 349 360 351
f 350 352 353
f 351 360 352
f 352 359 353
f 352 360 359
f 353 359 354
f 354 359 355
f 355 359 356
f 356 359 357
f 357 359 358
o hull-c340f8479c7167d8
v 0.18892996 -0.0473823659 0.5267362
v 0.18892996 -0.044412788 0.566759706
v 0.18892996 -0.0103518898 0.58548224
v 0.18892996 0.0344838724 0.575512171
v 0.18892996 0.0518956631 0.541290224
v 0.189265132 0.0420944281 0.508071005
v 0.190009922 -0.0218894314 0.503071606
v 0.191406414 0.0743378773 0.567791104
v 0.192179143 0.0635792464 0.592286527
v 0.196564153 0.012820554 0.499275565
v 0.199887827 0.0715468004 0.613215089
v 0.200883999 0.0888125524 0.552105427
v 0.21476987 0.0852101073 0.631250024
v 0.218847647 -0.0153336413 0.512024641
v 0.225141197 0.0952709764 0.531864524
v 0.226025641 -0.0235932879 0.54861021
v 0.233883291 0.0827597976 0.645617783
v 0.234725848 0.118362278 0.554469049
v 0.236480772 0.00245137163 0.545974433
v 0.236480772 0.0143459132 0.596254528
v 0.236480772 0.0218591075 0.525934041
v 0.236480772 0.0295832548 0.617970884
v 0.236480772 0.0483094491 0.635518789
v 0.236480772 0.0628490224 0.516193151
f 361 362 363
f 361 363 365
f 361 365 366
f 361 366 367
f 361 367 374
f 361 374 376
f 361 376 362
f 362 376 380
f 362 380 382
f 362 382 383
f 362 383 363
f 363 364 365
f 363 369 364
f 363 371 369
f 363 373 371
f 363 377 373
f 363 383 377
f 364 368 365
f 364 369 368
f 365 368 366
f 366 368 372
f 366 370 367
f 366 372 375
f 366 375 384
f 366 384 370
f 367 370 374
f 368 369 371
f 368 371 373
f 368 373 372
f 370 384 374
f 372 373 378
f 372 378 375
f 373 377 378
f 374 379 376
f 374 381 379
f 374 384 381
f 375 378 384
f 376 379 380
f 377 383 378
f 378 383 384
f 379 381 383
f 379 383 380
f 380 383 382
f 381 384 383
o hull-c7266fa51fd17b43
v 0.045371227 0.0767922923 0.587282419
v 0.0468590595 -0.0792383254 0.705045044
v 0.0489313938 0.0767922923 0.686586618
v 0.0499852747 -0.0262573101 0.704503715
v 0.053943973 -0.181882724 0.533505559
v 0.0542362258 -0.17674163 0.6110515
v 0.0554406606 -0.151922613 0.441677481
v 0.0570347682 -0.141767085 0.670164824
v 0.0601344146 0.0236086715 0.687617838
v 0.0668916479 0.0590897463 0.484472156
v 0.0699647292 0.0766656622 0.629303694
v 0.0868888125 -0.139589086 0.472252458
v 0.0885449126 -0.0784025863 0.671892107
v 0.088730894 -0.146629572 0.626828849
v 0.0898556188 -0.155518845 0.520718694
v 0.0940002948 -0.0236994326 0.443817228
v 0.100429848 -0.0977766141 0.456397831
v 0.114449114 -0.13204208 0.571479321
v 0.122038834 -0.0850632042 0.622265756
v 0.131506041 -0.0287138876 0.613320112
v 0.135836691 -0.0802766755 0.576222837
v 0.135836691 -0.0698932111 0.51924926
v 0.135836691 -0.0110113379 0.498728424
v 0.135836691 0.0253561325 0.559414327
f 385 386 387
f 385 387 395
f 385 389 386
f 385 391 389
f 385 394 391
f 385 395 394
f 386 388 387
f 386 389 390
f 386 390 392
f 386 392 397
f 386 397 388
f 387 388 393
f 387 393 404
f 387 404 408
f 387 408 395
f 388 397 393
f 389 391 399
f 389 399 390
f 390 398 392
f 390 399 402
f 390 402 398
f 391 394 400
f 391 396 399
f 391 400 401
f 391 401 396
f 392 398 397
f 393 397 404
f 394 395 408
f 394 407 400
f 394 408 407
f 396 401 406
f 396 406 399
f 397 398 403
f 397 403 404
f 398 402 403
f 399 406 402
f 400 407 401
f 401 407 406
f 402 405 403
f 402 406 405
f 403 405 404
f 404 405 408
f 405 406 408
f 406 407 408
o hull-e9eb578b82defb5c
v 0.0185002312 0.018581409 0.363583952
v 0.0185002312 0.043071311 0.42831713
v 0.0207695924 -0.165072486 0.434457868
v 0.0259637013 -0.155944794 0.382517189
v 0.0272646733 -0.147733957 0.362578094
v 0.0373789966 -0.15726912 0.399941623
v 0.04014723 -0.164176002 0.44112587
v 0.0475031026 -0.148080319 0.383733988
v 0.0527754612 -0.149873242 0.400306642
v 0.0542818494 0.0416451097 0.441677481
v 0.0596813709 -0.149486154 0.440736502
v 0.067105718 -0.000488932244 0.358806044
v 0.0692087933 0.028870428 0.441677481
v 0.072700873 -0.125770465 0.358806044
v 0.073855117 -0.132269859 0.437475502
v 0.0844487473 -0.00933137257 0.358806044
v 0.0883223116 -0.103195749 0.441677481
v 0.0922447965 -0.110876858 0.358806044
v 0.0922447965 -0.0745087415 0.441677481
v 0.0928903967 -0.0289314445 0.441677481
v 0.0972041413 -0.0194777735 0.358806044
v 0.109538913 -0.0329451822 0.358806044
v 0.115515567 -0.0688854381 0.358806044
v 0.118430525 -0.0525045022 0.358806044
f 409 410 418
f 409 411 410
f 409 413 411
f 409 418 420
f 409 420 413
f 410 411 418
f 411 412 415
f 411 413 412
f 411 415 418
f 412 413 416
f 412 414 415
f 412 416 414
f 413 420 422
f 413 422 416
f 414 416 417
f 414 417 415
f 415 417 419
f 415 419 425
f 415 425 418
f 416 422 417
f 417 422 426
f 417 426 419
f 418 421 429
f 418 424 420
f 418 425 427
f 418 427 428
f 418 428 421
f 418 429 424
f 419 423 425
f 419 426 423
f 420 424 429
f 420 426 422
f 420 429 430
f 420 430 432
f 420 431 426
f 420 432 431
f 421 428 432
f 421 430 429
f 421 432 430
f 423 426 431
f 423 431 425
f 425 431 432
f 425 432 427
f 427 432 428
o hull-ed298ee2317fa478
v 0.0643016845 -0.126390696 0.0193501096
v 0.0685634837 -0.106775515 0.0357833765
v 0.0761738271 -0.152795076 0.0172033217
v 0.0765576586 -0.103474967 0.0611978881
v 0.0802238584 -0.135471478 0.0611978881
v 0.0890386254 -0.0823206753 0.0611978881
v 0.0982769206 -0.0503925718 0.00338150235
v 0.101704895 -0.152282044 0.0149624245
v 0.102274016 -0.0239197798 0.00982188899
v 0.109553479 -0.144364148 0.0611978881
v 0.109963782 -0.0279385801 0.0415120833
v 0.111657917 -0.0675280616 0.0602979884
v 0.13062422 -0.130597606 0.0385712758
v 0.131034523 -0.130973846 0.0611978881
v 0.132741883 0.0219116751 0.0178973489
v 0.135759547 -0.0451937802 0.0511167832
v 0.136513963 -0.082765311 0.0611978881
v 0.143965498 -0.110076062 0.0611978881
v 0.164533302 -0.0872629434 0.00267570652
v 0.165367126 -0.0131288636 0.0328131467
v 0.176326022 -0.0782505646 0.0225850139
v 0.176339254 -0.053829927 0.0011170666
v 0.179899573 0.00930802058 0.0141213499
v 0.199514434 -0.0360445902 0.014127234
f 433 434 441
f 433 435 437
f 433 436 434
f 433 437 436
f 433 439 435
f 433 441 439
f 434 436 441
f 435 439 440
f 435 440 442
f 435 442 437
f 436 437 438
f 436 438 443
f 436 443 441
f 437 442 446
f 437 446 450
f 437 449 438
f 437 450 449
f 438 444 443
f 438 449 444
f 439 441 447
f 439 447 455
f 439 451 440
f 439 454 451
f 439 455 454
f 440 445 446
f 440 446 442
f 440 451 445
f 441 443 447
f 443 444 448
f 443 448 447
f 444 449 448
f 445 451 453
f 445 453 446
f 446 453 450
f 447 448 452
f 447 452 455
f 448 449 452
f 449 450 452
f 450 453 456
f 450 456 452
f 451 454 456
f 451 456 453
f 452 456 455
f 454 455 456
o hull-f20ade98817ad92c
v -0.0947753638 -0.130184159 0.320290029
v -0.0947753638 -0.127508849 0.294173211
v -0.0947753638 -0.119304627 0.270308226
v -0.0947753638 -0.102143109 0.246969327
v -0.0947753638 -0.0120352963 0.44165644
v -0.0947753638 -0.00551550649 0.260564387
v -0.0947753638 0.000885378686 0.294509947
v -0.0933250263 -0.0630442053 0.226703018
v -0.0909877047 -0.121781744 0.439446718
v -0.0724449977 -0.0868642181 0.252567291
v -0.0705751404 -0.149664238 0.441593319
v -0.0682258457 -0.0612804927 0.249263242
v -0.067554608 0.0348516889 0.44165644
v -0.0574981607 -0.073249951 0.261848122
v -0.0440975428 -0.163258687 0.44165644
v -0.0348321795 -0.155589506 0.379531652
v -0.0338612944 -0.147246554 0.347206563
v -0.0335496515 -0.135118574 0.31930092
v -0.0335496515 -0.0767773762 0.289732724
v -0.0335496515 -0.0526006594 0.293184102
v -0.0335496515 -0.0134621179 0.310903996
v -0.0335496515 0.00639449898 0.332390904
v -0.0335496515 0.0151536074 0.350700051
v -0.0335496515 0.0391916074 0.433848768
f 457 458 471
f 457 461 458
f 457 465 461
f 457 467 465
f 457 471 467
f 458 459 473
f 458 461 459
f 458 472 471
f 458 473 472
f 459 460 474
f 459 461 460
f 459 474 473
f 460 461 462
f 460 462 464
f 460 464 466
f 460 466 474
f 461 463 462
f 461 465 467
f 461 467 471
f 461 469 463
f 461 471 469
f 462 463 469
f 462 468 464
f 462 469 480
f 462 477 468
f 462 478 477
f 462 479 478
f 462 480 479
f 464 468 470
f 464 470 466
f 466 470 474
f 468 475 470
f 468 476 475
f 468 477 476
f 469 471 480
f 470 475 474
f 471 472 480
f 472 473 480
f 473 474 480
f 474 475 480
f 475 476 480
f 476 477 480
f 477 478 480
f 478 479 480
o hull-f2f4b2438504ac24
v -0.209827989 -0.0372940935 0.188086107
v -0.207692027 -0.0808757693 0.135134175
v -0.200542912 0.00395163568 0.205565527
v -0.197987556 -0.0759556219 0.0598514117
v -0.191374868 -0.101526842 0.160818219
v -0.189180374 -0.0195093434 0.123176835
v -0.188234329 -0.00340601592 0.165298671
v -0.184576854 -0.10657113 0.103642702
v -0.178832188 -0.0861231759 0.196133777
v -0.177866623 -0.0378696173 0.0689264238
v -0.151981533 -0.111333288 0.0684841052
v -0.148723945 -0.00406052964 0.200286031
v -0.146275893 -0.0101655768 0.136518255
v -0.144812897 -0.109866276 0.137788191
v -0.144178942 -0.101538144 0.174701869
v -0.142715946 -0.0459156409 0.0662724078
v -0.134679288 -0.0317194313 0.0978066921
v -0.133265063 -0.0713063106 0.205608338
v -0.123502068 -0.0348227397 0.205608338
v -0.115748242 -0.076497294 0.0776447281
v -0.11545565 -0.0304781124 0.166911051
v -0.113856122 -0.080559805 0.161988273
v -0.112159058 -0.0830650106 0.113274202
v -0.110188894 -0.0386369824 0.132109165
f 481 482 485
f 481 483 484
f 481 484 482
f 481 485 489
f 481 489 483
f 482 484 488
f 482 488 485
f 483 486 484
f 483 487 486
f 483 489 498
f 483 492 493
f 483 493 487
f 483 498 499
f 483 499 492
f 484 486 490
f 484 490 496
f 484 491 488
f 484 496 491
f 485 488 494
f 485 494 495
f 485 495 489
f 486 487 490
f 487 493 490
f 488 491 494
f 489 495 498
f 490 493 496
f 491 496 500
f 491 500 503
f 491 503 494
f 492 499 501
f 492 501 493
f 493 497 496
f 493 501 504
f 493 504 497
f 494 502 495
f 494 503 502
f 495 502 498
f 496 497 504
f 496 504 500
f 498 502 499
f 499 502 501
f 500 504 503
f 501 502 504
f 502 503 504
