# Deterministic AVBD convex-compound debug mesh
o hull-1033f7f8967533f3
v 0.408058882 0.000357775163 0.32495755
v 0.412080407 0.0266333818 0.32495755
v 0.413376421 -0.0305701923 0.32495755
v 0.428313494 -0.0569628403 0.32495755
v 0.429328889 0.0576783903 0.32495755
v 0.453324467 0.00762892002 0.402913779
v 0.45519495 -0.0214556586 0.402913779
v 0.464520603 0.040517319 0.402913779
v 0.465335608 -0.0424351804 0.402913779
v 0.465616137 -0.0745628104 0.327964067
v 0.467299581 0.0748979822 0.327239156
v 0.48462823 0.0564348362 0.399624884
v 0.486672372 -0.0660920069 0.363515973
v 0.486685783 0.0660906807 0.363531232
v 0.498777062 -0.0593768023 0.32507199
v 0.498937368 0.0594193675 0.324995697
v 0.502918839 -0.0546512902 0.401502073
v 0.510106802 0.0531430654 0.402913779
v 0.513233185 0.0348115899 0.325300932
v 0.513340056 -0.0323696919 0.32495755
v 0.518149853 0.00773133058 0.32495755
v 0.531951308 -0.0377974473 0.402913779
v 0.536801159 0.030100707 0.402913779
v 0.5445503 -0.00814229529 0.402913779
f 1 2 5
f 1 3 7
f 1 4 3
f 1 5 21
f 1 6 2
f 1 7 6
f 1 20 4
f 1 21 20
f 2 6 8
f 2 8 5
f 3 4 9
f 3 9 7
f 4 10 9
f 4 15 10
f 4 20 15
f 5 8 12
f 5 11 16
f 5 12 11
f 5 16 21
f 6 7 8
f 7 9 22
f 7 18 8
f 7 22 24
f 7 23 18
f 7 24 23
f 8 18 12
f 9 10 13
f 9 13 17
f 9 17 22
f 10 15 13
f 11 12 14
f 11 14 16
f 12 18 14
f 13 15 22
f 13 22 17
f 14 18 16
f 15 20 22
f 16 18 23
f 16 19 21
f 16 23 19
f 19 23 24
f 19 24 21
f 20 21 24
f 20 24 22
o hull-3308320038b513f7
v -0.455154508 -0.0435073003 0.147802323
v -0.455154508 0.0160796754 0.132413372
v -0.452220291 -0.0426990911 0.220647708
v -0.451815754 0.055865556 0.206527606
v -0.438684136 -0.011987186 0.292939991
v -0.437760413 -0.102726907 0.246708065
v -0.437760413 0.102741621 0.246708065
v -0.434107661 -0.127156839 0.158441201
v -0.432634532 0.129155323 0.156521663
v -0.426162302 -0.0652554482 0.315584183
v -0.419502914 0.0928227007 0.315649271
v -0.411183178 0.189330101 0.198751792
v -0.410609603 -0.125944525 0.316853046
v -0.409782499 -0.185972333 0.222632319
v -0.404892087 0.177941725 0.135992214
v -0.404656619 -0.178882152 0.136480227
v -0.40452984 0.0878999829 0.0873201638
v -0.404209852 0.174194574 0.276379794
v -0.403642327 -0.0013335346 0.0740785003
v -0.40320158 -0.0995675474 0.0893373415
v -0.399977535 -0.000562063244 0.406453848
v -0.398516446 -0.178294346 0.290792704
v -0.395147502 0.0755197108 0.389405608
v -0.393475115 -0.0780765638 0.39259401
f 25 26 44
f 25 27 28
f 25 28 26
f 25 30 27
f 25 32 30
f 25 40 32
f 25 44 40
f 26 28 33
f 26 33 39
f 26 39 41
f 26 41 43
f 26 43 44
f 27 29 28
f 27 30 34
f 27 34 29
f 28 29 31
f 28 31 33
f 29 34 45
f 29 35 31
f 29 45 35
f 30 32 38
f 30 37 34
f 30 38 46
f 30 46 37
f 31 35 42
f 31 36 33
f 31 42 36
f 32 40 38
f 33 36 39
f 34 37 48
f 34 48 45
f 35 45 47
f 35 47 42
f 36 42 39
f 37 46 48
f 38 40 46
f 39 42 47
f 39 47 41
f 40 44 46
f 41 47 43
f 43 47 48
f 43 48 44
f 44 48 46
f 45 48 47
o hull-5f1aa3b62ff07ea2
v -0.654614091 0.0236955993 0.349339783
v -0.65323621 0.00251763873 0.315475792
v -0.652304947 -0.0334160849 0.353947282
v -0.64125663 -0.0120661007 0.28657949
v -0.63584733 0.0298502054 0.290087253
v -0.631560683 -0.0416062959 0.311380237
v -0.62571764 0.0484956056 0.363958597
v -0.624837279 -0.0479711592 0.363939613
v -0.62469697 0.0174740963 0.262385488
v -0.62097168 0.0496615358 0.316480696
v -0.619900048 -0.0399051793 0.275316775
v -0.611071587 -0.0225881841 0.247501254
v -0.607103884 0.0468518212 0.271278113
v -0.598709285 0.0258172173 0.368262678
v -0.597152829 -0.0204665661 0.368262678
v -0.588847458 0.00203023991 0.218794584
v -0.586130083 0.0437554084 0.238779277
v -0.572058141 -0.042858243 0.224899963
v -0.561265051 -0.00522340275 0.193368122
v -0.542357981 0.0406781062 0.209446892
v -0.534435332 -0.00402879762 0.174558997
v -0.532253742 -0.0433743149 0.195131481
v -0.524280131 -0.0275577419 0.228597328
v -0.524280131 0.0140431896 0.234759584
f 49 50 51
f 49 51 55
f 49 53 50
f 49 55 58
f 49 58 53
f 50 52 51
f 50 53 57
f 50 57 52
f 51 52 59
f 51 54 56
f 51 56 55
f 51 59 54
f 52 57 60
f 52 60 59
f 53 58 61
f 53 61 65
f 53 65 57
f 54 59 66
f 54 66 56
f 55 56 62
f 55 62 68
f 55 68 58
f 56 63 62
f 56 66 70
f 56 70 71
f 56 71 63
f 57 64 60
f 57 65 64
f 58 68 61
f 59 60 66
f 60 64 67
f 60 67 66
f 61 68 65
f 62 63 72
f 62 72 68
f 63 71 72
f 64 65 67
f 65 68 69
f 65 69 67
f 66 67 70
f 67 69 70
f 68 72 69
f 69 71 70
f 69 72 71
o hull-61518577cc24eb9b
v -0.524266541 -0.0373856165 0.224113017
v -0.524266541 -0.014396945 0.234708697
v -0.524266541 0.0140579659 0.234718412
v -0.524266541 0.0377322994 0.22348173
v -0.523192048 -0.048765678 0.207457095
v -0.519670427 0.0479029268 0.194598526
v -0.518151581 -0.0242057014 0.16692932
v -0.517504632 0.00784892868 0.163073689
v -0.516205132 0.0318089575 0.16835697
v -0.50874567 -0.0473848358 0.180632815
v -0.501725018 0.0467125438 0.174300656
v -0.499120414 -0.0135113001 0.152497441
v -0.498040318 0.0104296785 0.151584506
v -0.493719876 0.0376942083 0.158577085
v -0.491565317 -0.0431565903 0.163326204
v -0.475375056 -0.0317289196 0.146019593
v -0.474429995 0.0233334284 0.141765758
v -0.473828048 0.0474458262 0.1698526
v -0.470340192 -0.049365636 0.166045532
v -0.469215125 -0.00289308582 0.135501593
v -0.46679613 -0.0388236009 0.18423593
v -0.46679613 -0.0151206972 0.194763631
v -0.46679613 0.0144103188 0.194889888
v -0.46679613 0.0327803083 0.188858792
f 73 74 76
f 73 76 77
f 73 77 93
f 73 93 74
f 74 75 76
f 74 93 94
f 74 94 95
f 74 95 75
f 75 95 96
f 75 96 76
f 76 78 80
f 76 80 77
f 76 90 78
f 76 96 90
f 77 79 82
f 77 80 79
f 77 82 91
f 77 91 93
f 78 81 80
f 78 83 81
f 78 90 83
f 79 80 84
f 79 84 88
f 79 87 82
f 79 88 87
f 80 81 85
f 80 85 84
f 81 83 86
f 81 86 89
f 81 89 85
f 82 87 91
f 83 90 86
f 84 85 92
f 84 92 88
f 85 89 92
f 86 90 89
f 87 88 91
f 88 92 91
f 89 90 92
f 90 96 92
f 91 92 93
f 92 96 93
f 93 95 94
f 93 96 95
o hull-6ab767b0895a55f8
v -0.46679613 -0.0467448272 0.175013438
v -0.46679613 -0.0336378627 0.188431725
v -0.46679613 -0.0151216695 0.194757774
v -0.46679613 0.0144100683 0.194879234
v -0.46679613 0.0327839106 0.188861564
v -0.46679613 0.045244839 0.152148142
v -0.46679613 0.0464602672 0.175499335
v -0.462553591 -0.00722682988 0.132301018
v -0.460726917 -0.0403282158 0.143074915
v -0.460650533 -0.0224799681 0.133926913
v -0.46056509 0.0255241636 0.135001495
v -0.459815234 0.0075773634 0.13099283
v -0.458064914 -0.052909594 0.15973565
v -0.456128836 0.0411276929 0.141121969
v -0.455154508 -0.0546615645 0.181152582
v -0.455154508 -0.0466900803 0.197224647
v -0.455154508 -0.0321705826 0.210998014
v -0.455154508 -0.0159210078 0.220304847
v -0.455154508 1.10188785e-05 0.226453349
v -0.455154508 0.0156583507 0.220426321
v -0.455154508 0.0348205827 0.209512278
v -0.455154508 0.0484093428 0.19683218
v -0.455154508 0.0538185649 0.157894835
v -0.455154508 0.057202071 0.177368179
f 97 98 99
f 97 99 102
f 97 102 104
f 97 104 105
f 97 105 109
f 97 109 111
f 97 111 112
f 97 112 98
f 98 112 113
f 98 113 114
f 98 114 115
f 98 115 99
f 99 100 101
f 99 101 103
f 99 103 102
f 99 115 100
f 100 115 101
f 101 115 116
f 101 116 117
f 101 117 118
f 101 118 103
f 102 103 120
f 102 107 104
f 102 110 107
f 102 119 110
f 102 120 119
f 103 118 120
f 104 106 105
f 104 107 108
f 104 108 106
f 105 106 109
f 106 108 110
f 106 110 109
f 107 110 108
f 109 110 111
f 110 119 111
f 111 115 112
f 111 119 115
f 112 115 113
f 113 115 114
f 115 117 116
f 115 118 117
f 115 119 120
f 115 120 118
o hull-711a67e1ab6baa73
v -0.116907366 0.00778355962 0.628663242
v -0.112773515 -0.0240044612 0.631010592
v -0.104856133 0.0412113853 0.627786398
v -0.100764312 -0.0499725156 0.622187376
v -0.08581236 -0.0121763609 0.553528726
v -0.0831358656 0.00846905168 0.644921362
v -0.081075944 -0.0253082402 0.644318581
v -0.0778108984 0.0310634132 0.553528726
v -0.0732005984 -0.0589914508 0.633951664
v -0.0626767799 0.0390205011 0.64433682
v -0.0623264574 0.0701230317 0.626461983
v -0.050205145 -0.0262491126 0.646081388
v -0.0494344272 0.00822711363 0.64683032
v -0.0477808863 0.0448942296 0.553528726
v -0.0385883115 -0.0428218953 0.553528726
v -0.035953857 -0.0671904683 0.630855322
v -0.0174145643 0.057797607 0.634116113
v -0.0161674004 -0.024179196 0.64527756
v -0.0142055713 0.0351226032 0.553528726
v -0.00778758433 0.0141411638 0.644656479
v -0.000346644898 -0.00432680268 0.553528726
v 0.00164321542 -0.0486821868 0.633294046
v 0.0108918408 0.0496389084 0.625776947
v 0.0262501668 -0.00134289544 0.628818512
f 121 122 126
f 121 123 128
f 121 125 122
f 121 126 123
f 121 128 125
f 122 124 129
f 122 125 124
f 122 127 126
f 122 129 127
f 123 126 130
f 123 130 131
f 123 131 128
f 124 125 135
f 124 135 136
f 124 136 129
f 125 128 135
f 126 127 132
f 126 132 133
f 126 133 130
f 127 129 132
f 128 131 134
f 128 134 139
f 128 139 141
f 128 141 135
f 129 136 132
f 130 133 140
f 130 137 131
f 130 140 137
f 131 137 143
f 131 143 134
f 132 136 138
f 132 138 133
f 133 138 140
f 134 143 139
f 135 141 142
f 135 142 136
f 136 142 138
f 137 140 143
f 138 142 144
f 138 144 140
f 139 143 141
f 140 144 143
f 141 143 144
f 141 144 142
o hull-72f1cf527c322bf8
v -0.567763925 -0.0175190009 0.399902225
v -0.567763925 0.0116244713 0.398427129
v -0.567763925 0.0349875726 0.405995935
v -0.566904187 -0.0461978167 0.420193106
v -0.566694796 0.0487415083 0.426460743
v -0.562153816 -0.00196218607 0.456697375
v -0.561117768 -0.03407019 0.44978559
v -0.554438531 0.0207503922 0.456008136
v -0.540661335 0.0421340466 0.445366681
v -0.534279764 -0.0397390388 0.447363555
v -0.528945267 0.00177367998 0.460871488
v -0.507574022 -0.00987999141 0.461960107
v -0.504895747 -0.0384472832 0.452284902
v -0.502581179 0.0449312963 0.445869118
v -0.50247097 0.0129905716 0.461889267
v -0.472844452 0.0460929424 0.444522858
v -0.467950761 -0.0456495136 0.446268499
v -0.467443764 0.021726178 0.461818397
v -0.466473818 -0.0242101066 0.461206436
v -0.455562294 0.0455260649 0.4295398
v -0.455430031 -0.043800164 0.4262546
v -0.455430031 0.000528391334 0.464227527
v -0.455165505 -0.0150655964 0.411368191
v -0.455165505 0.0162060186 0.411838412
f 145 146 167
f 145 147 146
f 145 148 147
f 145 165 148
f 145 167 165
f 146 147 168
f 146 168 167
f 147 148 149
f 147 149 164
f 147 164 168
f 148 150 149
f 148 151 150
f 148 154 151
f 148 161 154
f 148 165 161
f 149 150 152
f 149 152 153
f 149 153 158
f 149 158 160
f 149 160 164
f 150 151 156
f 150 155 152
f 150 156 155
f 151 154 157
f 151 157 163
f 151 163 156
f 152 155 159
f 152 159 162
f 152 162 153
f 153 162 158
f 154 161 157
f 155 156 166
f 155 166 159
f 156 163 166
f 157 161 163
f 158 162 160
f 159 166 162
f 160 162 164
f 161 165 166
f 161 166 163
f 162 166 164
f 164 166 168
f 165 167 166
f 166 167 168
o hull-7bad601cace97903
v -0.660330951 0.0128166834 0.380361289
v -0.659995794 -0.0142262662 0.381381661
v -0.646912992 -0.00975038577 0.416171193
v -0.645988882 0.0212335903 0.413879424
v -0.642718196 0.0427966341 0.379535288
v -0.638831377 -0.0441311486 0.385641247
v -0.633223236 -0.0361834131 0.418657303
v -0.626555026 0.0488958433 0.400460839
v -0.622550428 -0.0172852539 0.437218219
v -0.622043073 0.0141960429 0.437720299
v -0.618482471 0.0412389934 0.423751026
v -0.610237837 0.0414923429 0.368262678
v -0.608407676 -0.039458219 0.368262678
v -0.602618337 -0.046964936 0.424131662
v -0.598758698 0.00962632801 0.447705299
v -0.596122205 -0.0198281538 0.447454244
v -0.594627321 0.0164292902 0.368262678
v -0.59377569 -0.0088026626 0.368262678
v -0.577775598 0.0471411496 0.43032673
v -0.576235354 0.022096863 0.45099315
v -0.575120986 -0.0291833989 0.448280275
v -0.568688273 -0.0461954959 0.419669598
v -0.567773223 -0.0167316329 0.399902076
v -0.567773223 0.0253529008 0.402469158
f 169 170 171
f 169 171 172
f 169 172 173
f 169 173 180
f 169 180 181
f 169 181 170
f 170 174 175
f 170 175 171
f 170 181 174
f 171 175 177
f 171 177 178
f 171 178 172
f 172 176 173
f 172 178 179
f 172 179 176
f 173 176 180
f 174 181 190
f 174 182 175
f 174 190 182
f 175 182 184
f 175 184 177
f 176 179 187
f 176 187 180
f 177 183 178
f 177 184 183
f 178 183 188
f 178 188 179
f 179 188 187
f 180 185 186
f 180 186 181
f 180 187 192
f 180 192 185
f 181 186 191
f 181 191 190
f 182 189 184
f 182 190 189
f 183 184 188
f 184 189 188
f 185 191 186
f 185 192 191
f 187 188 192
f 188 189 190
f 188 190 192
f 190 191 192
o hull-8dc100598c4d54f9
v -0.375106126 0.182780474 0.0957560092
v -0.37254259 -0.170253187 0.0889717862
v -0.364285618 -0.0191275943 0.485371947
v -0.358055651 0.0246293359 0.0394681282
v -0.342465788 0.238832101 0.327585697
v -0.323597014 -0.210115522 0.399986118
v -0.314892918 0.300763816 0.185116962
v -0.310332239 0.160940185 0.473870575
v -0.297514528 -0.306029499 0.181724861
v -0.241623595 -0.131078139 0.00549399294
v -0.22561641 0.339022517 0.318151385
v -0.205972597 0.0215747524 -0.00150225381
v -0.20379658 -0.306869507 0.410586476
v -0.156609699 0.364222825 0.114889622
v -0.150081635 0.208973557 0.00485795271
v -0.113208495 0.321534991 0.442811549
v -0.109720901 -0.374986738 0.112027541
v -0.101314902 -0.390106976 0.273894906
v -0.101314902 0.39003405 0.27410692
v -0.0966349617 0.0121055376 0.537578702
v -0.08629141 0.0924411267 -0.00325130578
v -0.0857846588 -0.216148332 0.00363894738
v -0.0842942372 -0.0565462597 -0.00388730667
v -0.0705823228 -0.326418847 0.451927841
f 193 194 195
f 193 195 197
f 193 196 194
f 193 197 199
f 193 199 206
f 193 206 207
f 193 207 196
f 194 196 202
f 194 198 195
f 194 201 198
f 194 202 209
f 194 209 201
f 195 198 205
f 195 200 197
f 195 205 216
f 195 212 200
f 195 216 212
f 196 204 202
f 196 207 204
f 197 200 203
f 197 203 199
f 198 201 205
f 199 203 211
f 199 211 206
f 200 208 203
f 200 212 208
f 201 209 210
f 201 210 205
f 202 204 215
f 202 214 209
f 202 215 214
f 203 208 211
f 204 207 213
f 204 213 215
f 205 210 216
f 206 211 213
f 206 213 207
f 208 212 211
f 209 214 216
f 209 216 210
f 211 212 216
f 211 216 213
f 213 216 215
f 214 215 216
o hull-9f97173e1d80cd64
v -0.00434970623 0.388894975 0.297890097
v 0.0015423093 -0.392173171 0.135022759
v 0.00507751852 -0.0164714139 -0.00404012902
v 0.00789852813 -0.201416969 0.0029580819
v 0.00979111157 0.00700038718 0.537578702
v 0.0280741956 -0.375888169 0.307221055
v 0.0536419451 0.380943656 0.141808897
v 0.0608908981 0.307393581 0.445965797
v 0.0625692382 -0.299432784 0.464574695
v 0.083887592 0.196609721 0.00550291082
v 0.136879951 0.356783718 0.262474954
v 0.149735257 -0.124349952 0.00486667408
v 0.169589534 -0.323898494 0.120125033
v 0.199228123 0.310451806 0.130357265
v 0.217082694 0.0178570505 0.00947916415
v 0.220439345 -0.209368333 0.420093656
v 0.229152396 0.148748651 0.475973278
v 0.244828701 0.254486442 0.307804227
v 0.255934238 -0.268774152 0.221864134
v 0.257362604 -0.0273280777 0.501474321
v 0.28935799 0.202802598 0.128925815
v 0.304962903 -0.142469883 0.109786786
v 0.349277973 0.0885782763 0.174944341
v 0.360454917 -0.0478181206 0.275039911
f 217 218 221
f 217 219 218
f 217 221 224
f 217 223 219
f 217 224 227
f 217 227 223
f 218 219 220
f 218 220 229
f 218 222 221
f 218 229 222
f 219 223 226
f 219 226 231
f 219 228 220
f 219 231 228
f 220 228 229
f 221 222 225
f 221 225 236
f 221 233 224
f 221 236 233
f 222 229 235
f 222 235 225
f 223 227 230
f 223 230 226
f 224 233 234
f 224 234 227
f 225 232 236
f 225 235 232
f 226 230 237
f 226 237 231
f 227 234 230
f 228 231 238
f 228 238 229
f 229 238 235
f 230 234 237
f 231 237 239
f 231 239 238
f 232 235 240
f 232 240 236
f 233 236 240
f 233 239 234
f 233 240 239
f 234 239 237
f 235 238 240
f 238 239 240
o hull-ac7511008b06fb3b
v -0.134316802 0.011373763 0.537580252
v -0.129567027 -0.0316716023 0.537580252
v -0.115052819 0.0567828901 0.537580252
v -0.111786239 -0.0623294301 0.537580252
v -0.0898913369 0.00609528553 0.553526223
v -0.0880549848 -0.0799776688 0.537580252
v -0.0813805759 -0.0263753515 0.553526223
v -0.0810627416 0.0831930488 0.537580252
v -0.0778138191 0.0310480893 0.553526223
v -0.0589912683 -0.0902324915 0.537580252
v -0.0494034179 0.0912618414 0.537580252
v -0.0477789566 0.0448752157 0.553526223
v -0.042834945 -0.0450010933 0.553526223
v -0.032893952 -0.0903035775 0.537580252
v -0.0236062724 0.0886847973 0.537580252
v -0.0142303091 0.0351180285 0.553526223
v -0.00707915006 -0.0247224942 0.553526223
v 0.000495779444 0.00744600687 0.553526223
v 0.00769991288 -0.0740771517 0.537580252
v 0.01047209 0.0722806454 0.537580252
v 0.0336029977 -0.0472404435 0.537580252
v 0.0374699235 0.0404142775 0.537580252
v 0.0450095348 -0.0164582096 0.537580252
v 0.0460689701 0.0106984023 0.537580252
f 241 242 245
f 241 243 248
f 241 244 242
f 241 245 243
f 241 246 244
f 241 248 251
f 241 250 246
f 241 251 255
f 241 254 250
f 241 255 260
f 241 259 254
f 241 260 262
f 241 261 259
f 241 262 264
f 241 263 261
f 241 264 263
f 242 244 247
f 242 247 245
f 243 245 249
f 243 249 248
f 244 246 247
f 245 247 253
f 245 252 249
f 245 253 257
f 245 256 252
f 245 257 258
f 245 258 256
f 246 250 253
f 246 253 247
f 248 249 252
f 248 252 251
f 250 254 253
f 251 252 255
f 252 256 255
f 253 254 259
f 253 259 257
f 255 256 260
f 256 258 262
f 256 262 260
f 257 259 261
f 257 261 263
f 257 263 258
f 258 263 264
f 258 264 262
o hull-c572d7ae2e78dee1
v -0.455154508 -0.0381229557 0.419713378
v -0.455154508 -0.015196587 0.411398262
v -0.455154508 0.00769990543 0.410408258
v -0.455154508 0.0245710071 0.413235277
v -0.455154508 0.0454158783 0.427107155
v -0.452463061 -0.0457916409 0.444704503
v -0.452077717 0.0239136908 0.461803973
v -0.451698452 0.0433841757 0.450347096
v -0.449251682 0.00225215405 0.46445933
v -0.444370359 -0.0204252321 0.462616622
v -0.435623139 0.0175198019 0.463331968
v -0.434595495 0.0431152731 0.451050997
v -0.433567852 -0.0432619713 0.451325685
v -0.418642491 -0.0236819331 0.461912721
v -0.404120862 0.0426870212 0.451857895
v -0.403607041 -0.0435906276 0.450410068
v -0.400022507 0.0142431837 0.406453848
v -0.399936914 -0.0154356109 0.406453848
v -0.399056047 -0.00221958361 0.464917153
v -0.396132171 -0.02446872 0.462141633
v -0.396132171 0.0242821854 0.462198853
v -0.392663836 -0.0508908145 0.406453848
v -0.392663836 0.0508536696 0.406453848
f 265 266 286
f 265 267 266
f 265 268 267
f 265 269 268
f 265 270 271
f 265 271 269
f 265 286 270
f 266 267 286
f 267 268 287
f 267 281 282
f 267 282 286
f 267 287 281
f 268 269 287
f 269 271 272
f 269 272 287
f 270 273 271
f 270 274 273
f 270 277 274
f 270 280 277
f 270 286 280
f 271 273 275
f 271 275 285
f 271 276 272
f 271 279 276
f 271 285 279
f 272 276 287
f 273 274 283
f 273 283 275
f 274 277 278
f 274 278 284
f 274 284 283
f 275 283 285
f 276 279 287
f 277 280 284
f 277 284 278
f 279 285 287
f 280 286 284
f 281 286 282
f 281 287 286
f 283 284 285
f 284 286 285
f 285 286 287
o hull-dc32732ab4eea096
v 0.456300318 0.00857689697 0.411076456
v 0.467519343 -0.0312889107 0.420426995
v 0.470665932 0.043499127 0.409137309
v 0.472276658 0.0193280876 0.442843914
v 0.47978723 -0.0170378424 0.458864719
v 0.492279828 -0.0447634459 0.438315868
v 0.496456504 0.0557924509 0.404172689
v 0.497037113 0.0462990291 0.43874228
v 0.497730136 -0.0559411868 0.402923912
v 0.500614464 -0.0100927697 0.485484838
v 0.506851435 0.0304183289 0.476926178
v 0.510129094 -0.0382886715 0.469667077
v 0.524700701 0.00343645015 0.503759503
v 0.524869263 0.0445490927 0.402923912
v 0.529589117 -0.0395245627 0.402923912
v 0.541557312 0.0216467585 0.402923912
v 0.542475045 0.0368384197 0.491688073
v 0.544572771 -0.00790534448 0.402923912
v 0.549198925 -0.0321420059 0.500591874
v 0.586489499 -0.0398964249 0.499769539
v 0.608234525 0.0326713771 0.506125033
v 0.610875368 -0.0325685553 0.506632686
v 0.647622764 -0.0187330954 0.506297648
v 0.647622764 0.0187374838 0.506297648
f 288 289 292
f 288 290 294
f 288 291 290
f 288 292 291
f 288 294 296
f 288 296 289
f 289 293 292
f 289 296 293
f 290 291 298
f 290 295 294
f 290 298 295
f 291 292 297
f 291 297 298
f 292 293 299
f 292 299 297
f 293 296 299
f 294 295 304
f 294 301 296
f 294 304 308
f 294 308 311
f 294 311 301
f 295 298 304
f 296 301 303
f 296 302 310
f 296 303 305
f 296 305 302
f 296 307 299
f 296 309 307
f 296 310 309
f 297 299 306
f 297 300 298
f 297 306 300
f 298 300 304
f 299 307 306
f 300 306 309
f 300 308 304
f 300 309 308
f 301 311 303
f 302 305 310
f 303 311 305
f 305 311 310
f 306 307 309
f 308 309 311
f 309 310 311
o hull-df173e0dabbc8ee8
v 0.360469759 -0.103636436 0.208655834
v 0.360469759 -0.0875219926 0.261586279
v 0.360469759 -0.0805869028 0.160500944
v 0.360469759 -0.0445972718 0.294434011
v 0.360469759 0.0270382687 0.297738761
v 0.360469759 0.0717018023 0.152057469
v 0.360469759 0.102919787 0.201882929
v 0.367226958 0.0905660242 0.258317858
v 0.374533683 -0.00302722631 0.13945587
v 0.401993245 -0.097186625 0.228284582
v 0.410131574 -0.0132984249 0.32495755
v 0.415180922 0.0853697881 0.203045025
v 0.417675912 0.0400187969 0.32495755
v 0.426334083 -0.0359031484 0.173193336
v 0.427254856 0.0367635563 0.17404677
v 0.428264707 -0.0569105782 0.32495755
v 0.445477068 0.0851675794 0.257046789
v 0.449323505 -0.0687992871 0.217734814
v 0.469327807 0.0687700659 0.317222238
v 0.471362412 -0.0727621913 0.300970882
v 0.482263058 0.039230261 0.243500948
v 0.491945922 -0.0148754986 0.249220714
v 0.50862366 0.0211747885 0.298773766
v 0.512173057 -0.0246412233 0.314480394
f 312 313 316
f 312 314 321
f 312 316 314
f 312 321 313
f 313 315 316
f 313 321 331
f 313 327 315
f 313 331 327
f 314 316 317
f 314 317 320
f 314 320 325
f 314 325 329
f 314 329 321
f 315 322 316
f 315 327 322
f 316 318 317
f 316 319 318
f 316 322 324
f 316 324 319
f 317 318 323
f 317 323 326
f 317 326 320
f 318 319 328
f 318 328 323
f 319 324 330
f 319 330 328
f 320 326 325
f 321 329 331
f 322 327 324
f 323 328 332
f 323 332 326
f 324 327 335
f 324 335 330
f 325 326 333
f 325 333 329
f 326 332 333
f 327 331 335
f 328 330 334
f 328 334 332
f 329 333 335
f 329 335 331
f 330 335 334
f 332 334 333
f 333 334 335
